<svg width="48" height="48" viewBox="0 0 48 48" fill="none" xmlns="http://www.w3.org/2000/svg">
<rect width="48" height="48" rx="24" fill="black"/>
<g clip-path="url(#clip0_1870_6033)">
<path fill-rule="evenodd" clip-rule="evenodd" d="M24.1073 14.5021L23.732 14.5L19.185 14.5C18.323 14.5001 17.6241 15.199 17.624 16.061V31.3883C17.624 32.2508 18.3232 32.9499 19.185 32.9501L23.809 32.9501L24.1809 32.9452C25.9508 32.9011 27.4632 32.5281 28.7379 31.8492L28.7463 31.845C30.0957 31.1178 30.9119 30.1447 31.6523 28.7944L31.6572 28.7853L31.6621 28.7769L31.6705 28.7622L31.6733 28.7566C32.4049 27.3987 32.7868 25.75 32.7868 23.7843C32.7868 21.9327 32.4448 20.3648 31.7903 19.062L31.6523 18.8L31.5025 18.5346L31.3631 18.3063C30.6479 17.1833 29.9172 16.2486 28.7162 15.6135C28.7092 15.6099 28.7023 15.6057 28.6977 15.603L28.6966 15.6023L28.4598 15.4805L28.2273 15.3705C27.0514 14.8367 25.6818 14.5411 24.1073 14.5021ZM26.2328 29.3014C26.2363 29.3013 26.2408 29.3008 26.2461 29.3005L26.2328 29.3014ZM26.2433 29.3007C26.2362 29.301 26.2299 29.3014 26.2251 29.3014H26.2328M20.8536 27.026V20.2686V18.6487C20.8536 18.0964 21.3013 17.6487 21.8536 17.6487H23.4735C24.5702 17.6487 25.5436 17.8144 26.3687 18.1781L26.375 18.1809L26.3953 18.19L26.4023 18.1928L26.4135 18.1984L26.5052 18.2411L26.5087 18.2432L26.5199 18.2488L26.5368 18.2566L26.5424 18.2587L26.5473 18.2608C27.3407 18.6548 27.9375 19.2875 28.3436 20.1124L28.3471 20.1187L28.3485 20.1215L28.3559 20.1349C28.3561 20.1353 28.3562 20.1358 28.3562 20.1362C28.3562 20.1367 28.3563 20.1371 28.3565 20.1375L28.3646 20.1523L28.3723 20.1663L28.3793 20.181L28.3863 20.1972L28.3877 20.2007L28.3933 20.2133L28.3947 20.2168L28.4718 20.3904C28.8435 21.275 29.0068 22.4013 29.0068 23.7247C29.0068 25.1577 28.8198 26.3617 28.3856 27.276L28.3821 27.2823L28.373 27.3005L28.3674 27.3111L28.3646 27.3167L28.3611 27.323C27.9489 28.1806 27.3371 28.8257 26.525 29.2185C26.5198 29.221 26.5147 29.2239 26.51 29.2271C26.5045 29.2309 26.4987 29.2341 26.4927 29.2369L26.4786 29.2432L26.4408 29.2622C25.6316 29.6323 24.6858 29.8014 23.629 29.8014H21.8536C21.3013 29.8014 20.8536 29.3537 20.8536 28.8014V27.026ZM26.3295 18.1655L26.3274 18.1648L26.3246 18.1641L26.3295 18.1655Z" fill="white"/>
<line x1="16.2458" y1="22.0019" x2="33.9311" y2="22.0019" stroke="white" stroke-width="2.86853" stroke-linecap="round"/>
<line x1="16.2458" y1="25.5875" x2="33.9303" y2="25.5875" stroke="white" stroke-width="2.86853" stroke-linecap="round"/>
</g>
<defs>
<clipPath id="clip0_1870_6033">
<rect width="24" height="24" fill="white" transform="translate(12 12)"/>
</clipPath>
</defs>
</svg>
