<svg width="6" height="10" viewBox="0 0 6 10" fill="none" xmlns="http://www.w3.org/2000/svg">
<path fill-rule="evenodd" clip-rule="evenodd" d="M5.47133 4.52867C5.59632 4.65368 5.66653 4.82322 5.66653 5C5.66653 5.17677 5.59632 5.34631 5.47133 5.47133L1.7 9.24267C1.6385 9.30634 1.56494 9.35713 1.48361 9.39207C1.40227 9.42701 1.31479 9.4454 1.22627 9.44617C1.13775 9.44693 1.04996 9.43007 0.968033 9.39655C0.886102 9.36303 0.811667 9.31352 0.749072 9.25093C0.686477 9.18833 0.636975 9.1139 0.603454 9.03197C0.569934 8.95004 0.553066 8.86225 0.553835 8.77373C0.554605 8.68521 0.572995 8.59773 0.607935 8.5164C0.642874 8.43506 0.693662 8.3615 0.757335 8.3L4.05734 5L0.757335 1.7C0.635897 1.57426 0.5687 1.40586 0.570219 1.23106C0.571738 1.05627 0.641851 0.889058 0.765456 0.765452C0.889062 0.641847 1.05627 0.571735 1.23107 0.570216C1.40587 0.568697 1.57427 0.635893 1.7 0.757332L5.47133 4.52867Z" fill="white"/>
</svg>
