<svg width="25" height="25" viewBox="0 0 25 25" fill="none" xmlns="http://www.w3.org/2000/svg">
<path d="M11.3557 20.403C11.5438 20.5899 11.7984 20.6945 12.0636 20.6936C12.3288 20.6928 12.5827 20.5867 12.7697 20.3987L18.4092 14.7243C18.5045 14.6317 18.5803 14.5212 18.6323 14.399C18.6844 14.2768 18.7116 14.1455 18.7123 14.0127C18.713 13.88 18.6873 13.7484 18.6367 13.6256C18.586 13.5029 18.5114 13.3915 18.4172 13.2979C18.3231 13.2043 18.2112 13.1303 18.0881 13.0804C17.9651 13.0305 17.8333 13.0056 17.7005 13.0072C17.5678 13.0088 17.4366 13.0368 17.3148 13.0895C17.193 13.1423 17.0828 13.2189 16.9909 13.3146L13.0531 17.2768L13.0123 4.03385C13.0115 3.76864 12.9053 3.51461 12.7172 3.32765C12.5291 3.14069 12.2744 3.03612 12.0092 3.03694C11.744 3.03775 11.49 3.14389 11.303 3.332C11.1161 3.52012 11.0115 3.77479 11.0123 4.04001L11.0531 17.2829L7.09094 13.3451C6.90177 13.1636 6.64886 13.0635 6.38667 13.0666C6.12449 13.0697 5.874 13.1756 5.68916 13.3616C5.50433 13.5476 5.39993 13.7987 5.39846 14.0609C5.39699 14.3231 5.49856 14.5754 5.6813 14.7635L11.3557 20.403Z" fill="black"/>
</svg>
