<svg width="14" height="8" viewBox="0 0 14 8" fill="none" xmlns="http://www.w3.org/2000/svg">
<path fill-rule="evenodd" clip-rule="evenodd" d="M7.70734 7.70701C7.51981 7.89448 7.26551 7.99979 7.00034 7.99979C6.73518 7.99979 6.48087 7.89448 6.29334 7.70701L0.636343 2.05001C0.540833 1.95776 0.464651 1.84742 0.412242 1.72541C0.359833 1.60341 0.332246 1.47219 0.331092 1.33941C0.329939 1.20663 0.355241 1.07495 0.405521 0.952054C0.455802 0.829157 0.530055 0.717505 0.623948 0.623612C0.717841 0.529719 0.829492 0.455466 0.952389 0.405185C1.07529 0.354904 1.20696 0.329603 1.33974 0.330757C1.47252 0.331911 1.60374 0.359497 1.72575 0.411906C1.84775 0.464315 1.9581 0.540497 2.05034 0.636007L7.00034 5.58601L11.9503 0.636007C12.1389 0.453849 12.3915 0.353055 12.6537 0.355333C12.9159 0.357611 13.1668 0.46278 13.3522 0.648188C13.5376 0.833596 13.6427 1.08441 13.645 1.34661C13.6473 1.6088 13.5465 1.86141 13.3643 2.05001L7.70734 7.70701Z" fill="#7C7B85"/>
</svg>
