<svg width="36" height="36" viewBox="0 0 36 36" fill="none" xmlns="http://www.w3.org/2000/svg">
<rect width="36" height="36" rx="18" fill="black"/>
<g clip-path="url(#clip0_1751_4776)">
<path d="M24.6667 15.5002C24.8877 15.5002 25.0996 15.588 25.2559 15.7443C25.4122 15.9005 25.5 16.1125 25.5 16.3335V17.1668C25.5 18.935 24.7976 20.6306 23.5474 21.8809C22.2971 23.1311 20.6014 23.8335 18.8333 23.8335H15.845L16.5058 24.4943C16.6576 24.6515 16.7416 24.862 16.7397 25.0805C16.7378 25.299 16.6502 25.508 16.4957 25.6625C16.3412 25.817 16.1322 25.9047 15.9137 25.9066C15.6952 25.9085 15.4847 25.8245 15.3275 25.6727L13.2475 23.5927C13.1184 23.4655 13.0344 23.2995 13.0083 23.1202L13 22.9927C13.0014 22.7978 13.0713 22.6095 13.1975 22.461L13.2442 22.411L15.3275 20.3277C15.4847 20.1759 15.6952 20.0919 15.9137 20.0938C16.1322 20.0957 16.3412 20.1833 16.4957 20.3378C16.6502 20.4923 16.7378 20.7013 16.7397 20.9198C16.7416 21.1383 16.6576 21.3488 16.5058 21.506L15.845 22.1668H18.8333C20.1594 22.1668 21.4312 21.6401 22.3689 20.7024C23.3065 19.7647 23.8333 18.4929 23.8333 17.1668V16.3335C23.8333 16.1125 23.9211 15.9005 24.0774 15.7443C24.2337 15.588 24.4457 15.5002 24.6667 15.5002ZM20.6725 10.3277L22.7558 12.411C22.9121 12.5673 22.9998 12.7792 22.9998 13.0002C22.9998 13.2211 22.9121 13.4331 22.7558 13.5893L20.6725 15.6727C20.5956 15.7523 20.5037 15.8158 20.402 15.8594C20.3003 15.9031 20.191 15.9261 20.0803 15.9271C19.9697 15.928 19.86 15.9069 19.7575 15.865C19.6551 15.8231 19.5621 15.7612 19.4838 15.683C19.4056 15.6048 19.3437 15.5117 19.3018 15.4093C19.2599 15.3069 19.2388 15.1972 19.2398 15.0865C19.2408 14.9759 19.2637 14.8665 19.3074 14.7648C19.3511 14.6632 19.4146 14.5712 19.4942 14.4943L20.155 13.8335H17.1667C15.8406 13.8335 14.5688 14.3603 13.6311 15.298C12.6935 16.2357 12.1667 17.5074 12.1667 18.8335V19.6668C12.1667 19.8879 12.0789 20.0998 11.9226 20.2561C11.7663 20.4124 11.5543 20.5002 11.3333 20.5002C11.1123 20.5002 10.9004 20.4124 10.7441 20.2561C10.5878 20.0998 10.5 19.8879 10.5 19.6668V18.8335C10.5 17.0654 11.2024 15.3697 12.4526 14.1195C13.7029 12.8692 15.3986 12.1668 17.1667 12.1668H20.155L19.4942 11.506C19.3424 11.3488 19.2584 11.1383 19.2603 10.9198C19.2622 10.7013 19.3498 10.4923 19.5043 10.3378C19.6588 10.1833 19.8678 10.0957 20.0863 10.0938C20.3048 10.0919 20.5153 10.1759 20.6725 10.3277Z" fill="white"/>
</g>
<defs>
<clipPath id="clip0_1751_4776">
<rect width="20" height="20" fill="white" transform="translate(8 8)"/>
</clipPath>
</defs>
</svg>
