<svg width="20" height="18" viewBox="0 0 20 18" fill="none" xmlns="http://www.w3.org/2000/svg">
<path d="M6.207 8.757C6.29997 8.84988 6.37373 8.96016 6.42406 9.08156C6.47438 9.20296 6.50028 9.33309 6.50028 9.4645C6.50028 9.59592 6.47438 9.72605 6.42406 9.84744C6.37373 9.96884 6.29997 10.0791 6.207 10.172L4.38 12H14C14.2652 12 14.5196 12.1054 14.7071 12.2929C14.8946 12.4804 15 12.7348 15 13C15 13.2652 14.8946 13.5196 14.7071 13.7071C14.5196 13.8946 14.2652 14 14 14H4.38L6.208 15.828C6.30091 15.9208 6.37462 16.0311 6.42493 16.1524C6.47524 16.2737 6.50115 16.4038 6.5012 16.5352C6.50125 16.6665 6.47542 16.7966 6.4252 16.9179C6.37498 17.0393 6.30134 17.1496 6.2085 17.2425C6.11565 17.3354 6.00542 17.4091 5.88408 17.4594C5.76275 17.5097 5.6327 17.5357 5.50135 17.5357C5.37 17.5358 5.23993 17.5099 5.11856 17.4597C4.99719 17.4095 4.88691 17.3358 4.794 17.243L1.258 13.707C1.07053 13.5195 0.96521 13.2652 0.96521 13C0.96521 12.7348 1.07053 12.4805 1.258 12.293L4.794 8.757C4.98152 8.56953 5.23583 8.46422 5.501 8.46422C5.76616 8.46422 6.02047 8.56953 6.208 8.757H6.207ZM13.793 0.757003C13.9652 0.584826 14.1943 0.481395 14.4373 0.466114C14.6803 0.450833 14.9206 0.524752 15.113 0.674003L15.207 0.757003L18.743 4.293C18.9152 4.4652 19.0186 4.6943 19.0339 4.93732C19.0492 5.18035 18.9752 5.4206 18.826 5.613L18.743 5.707L15.207 9.242C15.027 9.42135 14.7856 9.52548 14.5316 9.53323C14.2777 9.54099 14.0303 9.45179 13.8397 9.28375C13.6492 9.11572 13.5297 8.88145 13.5056 8.62853C13.4815 8.37561 13.5546 8.12299 13.71 7.922L13.793 7.828L15.62 6H6C5.74512 5.99972 5.49996 5.90212 5.31463 5.72716C5.12929 5.55219 5.01776 5.31305 5.00282 5.05861C4.98789 4.80417 5.07067 4.55362 5.23426 4.35817C5.39785 4.16272 5.6299 4.03711 5.883 4.007L6 4H15.621L13.793 2.17C13.6055 1.98248 13.5002 1.72817 13.5002 1.463C13.5002 1.19784 13.6055 0.944531 13.793 0.757003Z" fill="black"/>
</svg>
