<svg width="8" height="14" viewBox="0 0 8 14" fill="none" xmlns="http://www.w3.org/2000/svg">
<path fill-rule="evenodd" clip-rule="evenodd" d="M0.293024 6.293C0.105553 6.48053 0.000236988 6.73483 0.000236988 7C0.000236988 7.26516 0.105553 7.51947 0.293024 7.707L5.95002 13.364C6.04227 13.4595 6.15261 13.5357 6.27462 13.5881C6.39662 13.6405 6.52784 13.6681 6.66062 13.6692C6.7934 13.6704 6.92508 13.6451 7.04798 13.5948C7.17087 13.5445 7.28253 13.4703 7.37642 13.3764C7.47031 13.2825 7.54456 13.1708 7.59485 13.048C7.64513 12.9251 7.67043 12.7934 7.66927 12.6606C7.66812 12.5278 7.64053 12.3966 7.58812 12.2746C7.53572 12.1526 7.45953 12.0422 7.36402 11.95L2.41402 7L7.36402 2.05C7.54618 1.8614 7.64698 1.60879 7.6447 1.3466C7.64242 1.0844 7.53725 0.833587 7.35184 0.648179C7.16643 0.462771 6.91562 0.357602 6.65342 0.355323C6.39123 0.353045 6.13863 0.453839 5.95002 0.635997L0.293024 6.293Z" fill="black"/>
</svg>
