<svg width="44" height="44" viewBox="0 0 44 44" fill="none" xmlns="http://www.w3.org/2000/svg">
<rect x="0.5" y="0.5" width="43" height="43" rx="21.5" fill="white"/>
<rect x="0.5" y="0.5" width="43" height="43" rx="21.5" stroke="#E9EDF3"/>
<path fill-rule="evenodd" clip-rule="evenodd" d="M19.2497 23.8333C19.249 24.5492 19.5274 25.2371 20.0259 25.7508C20.5243 26.2646 21.2035 26.5638 21.919 26.5848C22.6345 26.6058 23.33 26.347 23.8577 25.8633C24.3855 25.3797 24.7038 24.7093 24.7451 23.9947L24.7497 23.8333H31.1663V28.4167C31.1665 28.8792 30.9918 29.3247 30.6773 29.6638C30.3628 30.003 29.9317 30.2107 29.4705 30.2454L29.333 30.25H14.6663C14.2038 30.2501 13.7583 30.0755 13.4192 29.761C13.08 29.4465 12.8723 29.0154 12.8376 28.5542L12.833 28.4167V23.8333H19.2497ZM21.9997 22C22.2428 22 22.4759 22.0966 22.6479 22.2685C22.8198 22.4404 22.9163 22.6736 22.9163 22.9167V23.8333C22.9163 24.0764 22.8198 24.3096 22.6479 24.4815C22.4759 24.6534 22.2428 24.75 21.9997 24.75C21.7566 24.75 21.5234 24.6534 21.3515 24.4815C21.1796 24.3096 21.083 24.0764 21.083 23.8333V22.9167C21.083 22.6736 21.1796 22.4404 21.3515 22.2685C21.5234 22.0966 21.7566 22 21.9997 22ZM21.9997 13.75C23.0562 13.7501 24.0802 14.1151 24.8987 14.7832C25.7171 15.4513 26.2797 16.3816 26.4913 17.4167H29.333C29.8192 17.4167 30.2856 17.6098 30.6294 17.9536C30.9732 18.2975 31.1663 18.7638 31.1663 19.25V22H24.5938C24.4045 21.4633 24.0532 20.9985 23.5886 20.6697C23.124 20.341 22.5688 20.1644 21.9997 20.1644C21.4305 20.1644 20.8753 20.341 20.4107 20.6697C19.9461 20.9985 19.5949 21.4633 19.4055 22H12.833V19.25C12.833 18.7638 13.0262 18.2975 13.37 17.9536C13.7138 17.6098 14.1801 17.4167 14.6663 17.4167H17.508C17.7196 16.3816 18.2822 15.4513 19.1007 14.7832C19.9191 14.1151 20.9432 13.7501 21.9997 13.75ZM21.9997 15.5833C21.4598 15.5833 20.9318 15.7421 20.4816 16.0401C20.0313 16.3381 19.6788 16.762 19.4678 17.259L19.4055 17.4167H24.592C24.4024 16.8806 24.0513 16.4166 23.587 16.0882C23.1228 15.7599 22.5683 15.5835 21.9997 15.5833Z" fill="black"/>
</svg>
