<svg width="15" height="20" viewBox="0 0 15 20" fill="none" xmlns="http://www.w3.org/2000/svg">
<path fill-rule="evenodd" clip-rule="evenodd" d="M5 0.5C5.39782 0.5 5.77936 0.658035 6.06066 0.93934C6.34196 1.22064 6.5 1.60218 6.5 2V2.5H7.5V2C7.5 1.60218 7.65804 1.22064 7.93934 0.93934C8.22064 0.658035 8.60218 0.5 9 0.5C9.39782 0.5 9.77936 0.658035 10.0607 0.93934C10.342 1.22064 10.5 1.60218 10.5 2V2.527C11.3211 2.61869 12.1012 2.93469 12.7546 3.44036C13.4081 3.94603 13.9097 4.62184 14.2045 5.39372C14.4993 6.16559 14.5758 7.00372 14.4258 7.81624C14.2758 8.62875 13.905 9.38428 13.354 10C13.905 10.6157 14.2758 11.3712 14.4258 12.1838C14.5758 12.9963 14.4993 13.8344 14.2045 14.6063C13.9097 15.3782 13.4081 16.054 12.7546 16.5596C12.1012 17.0653 11.3211 17.3813 10.5 17.473V18C10.5 18.3978 10.342 18.7794 10.0607 19.0607C9.77936 19.342 9.39782 19.5 9 19.5C8.60218 19.5 8.22064 19.342 7.93934 19.0607C7.65804 18.7794 7.5 18.3978 7.5 18V17.5H6.5V18C6.5 18.3978 6.34196 18.7794 6.06066 19.0607C5.77936 19.342 5.39782 19.5 5 19.5C4.60218 19.5 4.22064 19.342 3.93934 19.0607C3.65804 18.7794 3.5 18.3978 3.5 18V17.5H2C1.60218 17.5 1.22064 17.342 0.93934 17.0607C0.658035 16.7794 0.5 16.3978 0.5 16C0.5 15.6022 0.658035 15.2206 0.93934 14.9393C1.22064 14.658 1.60218 14.5 2 14.5H2.5V5.5H2C1.60218 5.5 1.22064 5.34196 0.93934 5.06066C0.658035 4.77936 0.5 4.39782 0.5 4C0.5 3.60218 0.658035 3.22064 0.93934 2.93934C1.22064 2.65804 1.60218 2.5 2 2.5H3.5V2C3.5 1.60218 3.65804 1.22064 3.93934 0.93934C4.22064 0.658035 4.60218 0.5 5 0.5ZM5.5 11.5V14.5H10C10.3978 14.5 10.7794 14.342 11.0607 14.0607C11.342 13.7794 11.5 13.3978 11.5 13C11.5 12.6022 11.342 12.2206 11.0607 11.9393C10.7794 11.658 10.3978 11.5 10 11.5H5.5ZM5.5 8.5H10C10.3978 8.5 10.7794 8.34196 11.0607 8.06066C11.342 7.77936 11.5 7.39782 11.5 7C11.5 6.60218 11.342 6.22064 11.0607 5.93934C10.7794 5.65804 10.3978 5.5 10 5.5H5.5V8.5Z" fill="#EF9D29"/>
</svg>
