<svg width="48" height="48" viewBox="0 0 48 48" fill="none" xmlns="http://www.w3.org/2000/svg">
<rect width="48" height="48" rx="24" fill="#EF9D29"/>
<g clip-path="url(#clip0_359_1184)">
<path fill-rule="evenodd" clip-rule="evenodd" d="M21 14.5C21.3978 14.5 21.7794 14.658 22.0607 14.9393C22.342 15.2206 22.5 15.6022 22.5 16V16.5H23.5V16C23.5 15.6022 23.658 15.2206 23.9393 14.9393C24.2206 14.658 24.6022 14.5 25 14.5C25.3978 14.5 25.7794 14.658 26.0607 14.9393C26.342 15.2206 26.5 15.6022 26.5 16V16.527C27.3211 16.6187 28.1012 16.9347 28.7546 17.4404C29.4081 17.946 29.9097 18.6218 30.2045 19.3937C30.4993 20.1656 30.5758 21.0037 30.4258 21.8162C30.2758 22.6288 29.905 23.3843 29.354 24C29.905 24.6157 30.2758 25.3712 30.4258 26.1838C30.5758 26.9963 30.4993 27.8344 30.2045 28.6063C29.9097 29.3782 29.4081 30.054 28.7546 30.5596C28.1012 31.0653 27.3211 31.3813 26.5 31.473V32C26.5 32.3978 26.342 32.7794 26.0607 33.0607C25.7794 33.342 25.3978 33.5 25 33.5C24.6022 33.5 24.2206 33.342 23.9393 33.0607C23.658 32.7794 23.5 32.3978 23.5 32V31.5H22.5V32C22.5 32.3978 22.342 32.7794 22.0607 33.0607C21.7794 33.342 21.3978 33.5 21 33.5C20.6022 33.5 20.2206 33.342 19.9393 33.0607C19.658 32.7794 19.5 32.3978 19.5 32V31.5H18C17.6022 31.5 17.2206 31.342 16.9393 31.0607C16.658 30.7794 16.5 30.3978 16.5 30C16.5 29.6022 16.658 29.2206 16.9393 28.9393C17.2206 28.658 17.6022 28.5 18 28.5H18.5V19.5H18C17.6022 19.5 17.2206 19.342 16.9393 19.0607C16.658 18.7794 16.5 18.3978 16.5 18C16.5 17.6022 16.658 17.2206 16.9393 16.9393C17.2206 16.658 17.6022 16.5 18 16.5H19.5V16C19.5 15.6022 19.658 15.2206 19.9393 14.9393C20.2206 14.658 20.6022 14.5 21 14.5ZM21.5 25.5V28.5H26C26.3978 28.5 26.7794 28.342 27.0607 28.0607C27.342 27.7794 27.5 27.3978 27.5 27C27.5 26.6022 27.342 26.2206 27.0607 25.9393C26.7794 25.658 26.3978 25.5 26 25.5H21.5ZM21.5 22.5H26C26.3978 22.5 26.7794 22.342 27.0607 22.0607C27.342 21.7794 27.5 21.3978 27.5 21C27.5 20.6022 27.342 20.2206 27.0607 19.9393C26.7794 19.658 26.3978 19.5 26 19.5H21.5V22.5Z" fill="white"/>
</g>
<defs>
<clipPath id="clip0_359_1184">
<rect width="24" height="24" fill="white" transform="translate(12 12)"/>
</clipPath>
</defs>
</svg>
