<svg width="24" height="24" viewBox="0 0 24 24" fill="none" xmlns="http://www.w3.org/2000/svg">
<g clip-path="url(#clip0_1436_8317)">
<path d="M13.9922 5.83057C14.0584 5.83116 14.1237 5.84547 14.1846 5.87158C14.2456 5.89779 14.3015 5.93516 14.3477 5.98291L14.3535 5.98975L20.0107 11.646C20.1044 11.7397 20.1571 11.8671 20.1572 11.9995C20.1572 12.1319 20.1043 12.2593 20.0107 12.353L14.3594 18.0044C14.2651 18.0953 14.1388 18.1462 14.0078 18.145C13.877 18.1438 13.7518 18.0909 13.6592 17.9985C13.5665 17.9058 13.5138 17.78 13.5127 17.6489C13.5118 17.5507 13.5393 17.4549 13.5918 17.3735L13.6523 17.2974L18.4502 12.4995H4C3.86739 12.4995 3.74025 12.4468 3.64648 12.353C3.55282 12.2593 3.5 12.132 3.5 11.9995C3.50009 11.867 3.5528 11.7397 3.64648 11.646C3.74024 11.5523 3.86747 11.4995 4 11.4995H18.4502L17.5967 10.646L13.6465 6.69678V6.6958L13.6406 6.68994L13.5762 6.61475C13.5574 6.58755 13.5414 6.55835 13.5283 6.52783C13.5021 6.46685 13.4879 6.40084 13.4873 6.33447C13.4868 6.26824 13.5003 6.20243 13.5254 6.14111C13.5505 6.07986 13.587 6.02389 13.6338 5.97705C13.6807 5.9301 13.7374 5.89282 13.7988 5.86768C13.8602 5.84265 13.926 5.82999 13.9922 5.83057Z" fill="white" stroke="white"/>
</g>
<defs>
<clipPath id="clip0_1436_8317">
<rect width="24" height="24" fill="white"/>
</clipPath>
</defs>
</svg>
