<svg width="54" height="54" viewBox="0 0 54 54" fill="none" xmlns="http://www.w3.org/2000/svg">
<path d="M26.9997 0.333374C41.7277 0.333374 53.6663 12.272 53.6663 27C53.6663 41.728 41.7277 53.6667 26.9997 53.6667C12.2717 53.6667 0.333008 41.728 0.333008 27C0.333008 12.272 12.2717 0.333374 26.9997 0.333374ZM36.4263 17.3494L23.2263 30.5494L17.573 24.8934C17.3254 24.6456 17.0315 24.449 16.7079 24.3149C16.3844 24.1807 16.0375 24.1116 15.6873 24.1115C14.9799 24.1112 14.3014 24.392 13.801 24.892C13.3006 25.3921 13.0194 26.0704 13.0191 26.7778C13.0189 27.4851 13.2997 28.1637 13.7997 28.664L21.1543 36.0187C21.4267 36.2912 21.7502 36.5074 22.1062 36.6549C22.4621 36.8024 22.8437 36.8783 23.229 36.8783C23.6143 36.8783 23.9959 36.8024 24.3519 36.6549C24.7078 36.5074 25.0313 36.2912 25.3037 36.0187L40.1997 21.1227C40.7001 20.6223 40.9812 19.9437 40.9812 19.236C40.9812 18.5284 40.7001 17.8497 40.1997 17.3494C39.6993 16.849 39.0206 16.5679 38.313 16.5679C37.6054 16.5679 36.9267 16.849 36.4263 17.3494Z" fill="#B9FF7B"/>
</svg>
