<svg width="14" height="10" viewBox="0 0 14 10" fill="none" xmlns="http://www.w3.org/2000/svg">
<path fill-rule="evenodd" clip-rule="evenodd" d="M13.3641 0.407336C13.5516 0.594863 13.6569 0.849172 13.6569 1.11434C13.6569 1.3795 13.5516 1.63381 13.3641 1.82134L5.86877 9.31667C5.76971 9.41574 5.65211 9.49434 5.52268 9.54796C5.39325 9.60158 5.25453 9.62917 5.11443 9.62917C4.97434 9.62917 4.83561 9.60158 4.70618 9.54796C4.57675 9.49434 4.45915 9.41574 4.3601 9.31667L0.636099 5.59334C0.540589 5.50109 0.464406 5.39074 0.411997 5.26874C0.359588 5.14674 0.332002 5.01552 0.330848 4.88274C0.329694 4.74996 0.354996 4.61828 0.405277 4.49538C0.455558 4.37248 0.529811 4.26083 0.623704 4.16694C0.717597 4.07305 0.829248 3.99879 0.952145 3.94851C1.07504 3.89823 1.20672 3.87293 1.3395 3.87408C1.47228 3.87524 1.6035 3.90282 1.7255 3.95523C1.84751 4.00764 1.95785 4.08383 2.0501 4.17934L5.1141 7.24334L11.9494 0.407336C12.0423 0.314409 12.1526 0.240692 12.2739 0.190398C12.3953 0.140103 12.5254 0.114216 12.6568 0.114216C12.7881 0.114216 12.9182 0.140103 13.0396 0.190398C13.161 0.240692 13.2712 0.314409 13.3641 0.407336Z" fill="#83DA34"/>
</svg>
