<svg width="20" height="20" viewBox="0 0 20 20" fill="none" xmlns="http://www.w3.org/2000/svg">
<path fill-rule="evenodd" clip-rule="evenodd" d="M9.99995 11.7684L14.4191 16.1876C14.6536 16.4221 14.9717 16.5538 15.3033 16.5538C15.6349 16.5538 15.953 16.4221 16.1875 16.1876C16.4219 15.9531 16.5537 15.6351 16.5537 15.3034C16.5537 14.9718 16.4219 14.6538 16.1875 14.4193L11.7666 10.0001L16.1866 5.58092C16.3027 5.46481 16.3947 5.32698 16.4575 5.1753C16.5203 5.02361 16.5526 4.86105 16.5526 4.69688C16.5525 4.53271 16.5201 4.37016 16.4573 4.21851C16.3944 4.06685 16.3023 3.92906 16.1862 3.81301C16.0701 3.69695 15.9323 3.6049 15.7806 3.54212C15.6289 3.47933 15.4663 3.44703 15.3022 3.44707C15.138 3.44711 14.9754 3.47948 14.8238 3.54234C14.6721 3.6052 14.5343 3.69731 14.4183 3.81343L9.99995 8.23259L5.58079 3.81343C5.46554 3.69398 5.32765 3.59869 5.17518 3.53311C5.0227 3.46753 4.85869 3.43297 4.69272 3.43145C4.52675 3.42993 4.36213 3.46148 4.20849 3.52426C4.05484 3.58704 3.91523 3.67979 3.79781 3.7971C3.68039 3.91441 3.58751 4.05393 3.52458 4.20752C3.46166 4.36111 3.42995 4.52569 3.43132 4.69167C3.43268 4.85764 3.46708 5.02168 3.53252 5.17422C3.59796 5.32675 3.69312 5.46473 3.81245 5.58009L8.23329 10.0001L3.81329 14.4201C3.69396 14.5355 3.59879 14.6734 3.53336 14.826C3.46792 14.9785 3.43351 15.1425 3.43215 15.3085C3.43079 15.4745 3.46249 15.6391 3.52541 15.7927C3.58834 15.9463 3.68122 16.0858 3.79864 16.2031C3.91606 16.3204 4.05567 16.4131 4.20932 16.4759C4.36297 16.5387 4.52758 16.5703 4.69355 16.5687C4.85953 16.5672 5.02354 16.5327 5.17601 16.4671C5.32848 16.4015 5.46637 16.3062 5.58162 16.1868L9.99995 11.7684Z" fill="black"/>
</svg>
