<svg width="18" height="18" viewBox="0 0 18 18" fill="none" xmlns="http://www.w3.org/2000/svg">
<path fill-rule="evenodd" clip-rule="evenodd" d="M6.50033 0.666672C6.0583 0.666672 5.63437 0.842266 5.32181 1.15483C5.00925 1.46739 4.83366 1.89131 4.83366 2.33334V4.00001H6.50033V2.33334H15.667V11.5H14.0003V13.1667H15.667C16.109 13.1667 16.5329 12.9911 16.8455 12.6785C17.1581 12.366 17.3337 11.942 17.3337 11.5V2.33334C17.3337 1.89131 17.1581 1.46739 16.8455 1.15483C16.5329 0.842266 16.109 0.666672 15.667 0.666672H6.50033ZM2.33366 4.83334C1.89163 4.83334 1.46771 5.00893 1.15515 5.32149C0.842587 5.63405 0.666992 6.05798 0.666992 6.5V15.6667C0.666992 16.1087 0.842587 16.5326 1.15515 16.8452C1.46771 17.1577 1.89163 17.3333 2.33366 17.3333H11.5003C11.9424 17.3333 12.3663 17.1577 12.6788 16.8452C12.9914 16.5326 13.167 16.1087 13.167 15.6667V6.5C13.167 6.05798 12.9914 5.63405 12.6788 5.32149C12.3663 5.00893 11.9424 4.83334 11.5003 4.83334H2.33366Z" fill="#CECECF"/>
</svg>
