<svg width="48" height="48" viewBox="0 0 48 48" fill="none" xmlns="http://www.w3.org/2000/svg">
<path d="M24 48C37.2548 48 48 37.2548 48 24C48 10.7452 37.2548 0 24 0C10.7452 0 0 10.7452 0 24C0 37.2548 10.7452 48 24 48Z" fill="#3E73C4"/>
<path d="M29.1192 26.7034C29.1192 24 27.49 23.0734 24.2316 22.6865C21.9049 22.3772 21.4404 21.7599 21.4404 20.678C21.4404 19.5961 22.2168 18.9011 23.7671 18.9011C25.1633 18.9011 25.9397 19.3644 26.3267 20.524C26.367 20.6361 26.4407 20.7332 26.5379 20.8021C26.635 20.8711 26.751 20.9086 26.8702 20.9096H28.1111C28.1828 20.9115 28.2541 20.8989 28.3208 20.8724C28.3874 20.8459 28.448 20.8062 28.4988 20.7556C28.5496 20.705 28.5896 20.6447 28.6164 20.5781C28.6432 20.5116 28.6562 20.4404 28.6546 20.3687V20.2923C28.503 19.4534 28.0785 18.6881 27.4472 18.1152C26.8158 17.5423 26.013 17.194 25.1633 17.1243V15.2711C25.1633 14.9618 24.9304 14.7302 24.5435 14.6525H23.3789C23.0696 14.6525 22.8366 14.8842 22.759 15.2711V17.0479C20.431 17.356 18.9584 18.9011 18.9584 20.8333C18.9584 23.3814 20.5087 24.3857 23.7671 24.7726C25.9397 25.1583 26.6372 25.6228 26.6372 26.8587C26.6372 28.0934 25.5515 28.9436 24.0776 28.9436C22.0602 28.9436 21.3627 28.0946 21.1298 26.9351C21.0534 26.6271 20.8192 26.4718 20.5863 26.4718H19.2677C19.1961 26.4701 19.1249 26.4829 19.0584 26.5094C18.992 26.536 18.9315 26.5757 18.8809 26.6263C18.8302 26.6768 18.7903 26.7372 18.7636 26.8036C18.7369 26.87 18.7239 26.9412 18.7255 27.0127V27.0891C19.0348 29.0212 20.277 30.4111 22.8366 30.7981V32.6525C22.8366 32.9606 23.0696 33.1935 23.4565 33.2699H24.6211C24.9304 33.2699 25.1633 33.0382 25.241 32.6525V30.7968C27.5689 30.4111 29.1192 28.7883 29.1192 26.7022V26.7034Z" fill="white"/>
<path d="M20.0441 34.815C13.9932 32.6513 10.8901 25.9309 13.1404 19.983C14.3038 16.7374 16.8634 14.2668 20.0441 13.1073C20.3547 12.9533 20.5087 12.7217 20.5087 12.3347V11.2528C20.5087 10.9448 20.3547 10.7132 20.0441 10.6355C19.9665 10.6355 19.8112 10.6355 19.7335 10.7119C17.9878 11.2571 16.3671 12.1422 14.9649 13.3163C13.5626 14.4904 12.4064 15.9303 11.5629 17.553C10.7195 19.1758 10.2053 20.9494 10.05 22.7716C9.89481 24.5939 10.1016 26.4289 10.6584 28.171C12.0534 32.4985 15.3895 35.8206 19.7335 37.2105C20.0441 37.3645 20.3547 37.2105 20.431 36.9012C20.5087 36.8248 20.5087 36.7459 20.5087 36.5919V35.51C20.5087 35.2783 20.277 34.9703 20.0441 34.815ZM28.2664 10.7132C27.9559 10.5579 27.6453 10.7132 27.569 11.0212C27.4913 11.0988 27.4913 11.1765 27.4913 11.3305V12.4124C27.4913 12.7217 27.723 13.0297 27.9559 13.185C34.0068 15.3487 37.1099 22.0692 34.8596 28.017C33.6962 31.2626 31.1366 33.7332 27.9559 34.8927C27.6453 35.0467 27.4913 35.2783 27.4913 35.6653V36.7472C27.4913 37.0552 27.6453 37.2868 27.9559 37.3645C28.0335 37.3645 28.1888 37.3645 28.2664 37.2881C30.0122 36.7429 31.6329 35.8578 33.0351 34.6837C34.4374 33.5096 35.5935 32.0698 36.437 30.447C37.2805 28.8242 37.7947 27.0506 37.95 25.2284C38.1052 23.4061 37.8984 21.5711 37.3416 19.829C35.9466 15.4251 32.5329 12.1031 28.2664 10.7132Z" fill="white"/>
</svg>
