<svg width="48" height="48" viewBox="0 0 48 48" fill="none" xmlns="http://www.w3.org/2000/svg">
<rect width="48" height="48" rx="24" fill="black"/>
<g clip-path="url(#clip0_473_2023)">
<path d="M25.5 16C25.5 15.6022 25.342 15.2206 25.0607 14.9393C24.7794 14.658 24.3978 14.5 24 14.5C23.6022 14.5 23.2206 14.658 22.9393 14.9393C22.658 15.2206 22.5 15.6022 22.5 16V16.5H21.5C20.3065 16.5 19.1619 16.9741 18.318 17.818C17.4741 18.6619 17 19.8065 17 21C17 22.1935 17.4741 23.3381 18.318 24.182C19.1619 25.0259 20.3065 25.5 21.5 25.5H26.5C26.8978 25.5 27.2794 25.658 27.5607 25.9393C27.842 26.2206 28 26.6022 28 27C28 27.3978 27.842 27.7794 27.5607 28.0607C27.2794 28.342 26.8978 28.5 26.5 28.5H19C18.6022 28.5 18.2206 28.658 17.9393 28.9393C17.658 29.2206 17.5 29.6022 17.5 30C17.5 30.3978 17.658 30.7794 17.9393 31.0607C18.2206 31.342 18.6022 31.5 19 31.5H22.5V32C22.5 32.3978 22.658 32.7794 22.9393 33.0607C23.2206 33.342 23.6022 33.5 24 33.5C24.3978 33.5 24.7794 33.342 25.0607 33.0607C25.342 32.7794 25.5 32.3978 25.5 32V31.5H26.5C27.6935 31.5 28.8381 31.0259 29.682 30.182C30.5259 29.3381 31 28.1935 31 27C31 25.8065 30.5259 24.6619 29.682 23.818C28.8381 22.9741 27.6935 22.5 26.5 22.5H21.5C21.1022 22.5 20.7206 22.342 20.4393 22.0607C20.158 21.7794 20 21.3978 20 21C20 20.6022 20.158 20.2206 20.4393 19.9393C20.7206 19.658 21.1022 19.5 21.5 19.5H29C29.3978 19.5 29.7794 19.342 30.0607 19.0607C30.342 18.7794 30.5 18.3978 30.5 18C30.5 17.6022 30.342 17.2206 30.0607 16.9393C29.7794 16.658 29.3978 16.5 29 16.5H25.5V16Z" fill="white"/>
</g>
<defs>
<clipPath id="clip0_473_2023">
<rect width="24" height="24" fill="white" transform="translate(12 12)"/>
</clipPath>
</defs>
</svg>
