<svg width="16" height="16" viewBox="0 0 16 16" fill="none" xmlns="http://www.w3.org/2000/svg">
<path d="M9.05742 1.3335C9.37045 1.33357 9.67347 1.44379 9.91341 1.64483L10.0001 1.72416L12.9427 4.66683C13.1641 4.88818 13.3005 5.18035 13.3281 5.49216L13.3334 5.6095V13.3335C13.3335 13.6699 13.2065 13.9939 12.9778 14.2405C12.749 14.4872 12.4355 14.6383 12.1001 14.6635L12.0001 14.6668H4.00008C3.6637 14.6669 3.3397 14.5399 3.09305 14.3112C2.8464 14.0824 2.69531 13.7689 2.67008 13.4335L2.66675 13.3335V2.66683C2.66664 2.33045 2.79369 2.00645 3.02241 1.7598C3.25114 1.51314 3.56464 1.36206 3.90008 1.33683L4.00008 1.3335H9.05742ZM8.00008 2.66683H4.00008V13.3335H12.0001V6.66683H9.00008C8.73487 6.66683 8.48051 6.56147 8.29297 6.37394C8.10544 6.1864 8.00008 5.93205 8.00008 5.66683V2.66683ZM8.00008 7.3335C8.17689 7.3335 8.34646 7.40373 8.47149 7.52876C8.59651 7.65378 8.66675 7.82335 8.66675 8.00016V9.8055L8.94275 9.5295C9.06848 9.40806 9.23688 9.34086 9.41168 9.34238C9.58648 9.3439 9.75369 9.41401 9.87729 9.53762C10.0009 9.66122 10.071 9.82843 10.0725 10.0032C10.074 10.178 10.0069 10.3464 9.88542 10.4722L8.47208 11.8868C8.41017 11.9488 8.33664 11.998 8.25571 12.0315C8.17478 12.0651 8.08803 12.0824 8.00041 12.0824C7.9128 12.0824 7.82605 12.0651 7.74512 12.0315C7.66419 11.998 7.59066 11.9488 7.52875 11.8868L6.11475 10.4722C6.05107 10.4107 6.00029 10.3371 5.96535 10.2558C5.93041 10.1744 5.91202 10.0869 5.91125 9.99843C5.91048 9.90991 5.92735 9.82212 5.96087 9.74019C5.99439 9.65826 6.04389 9.58383 6.10648 9.52123C6.16908 9.45864 6.24351 9.40913 6.32545 9.37561C6.40738 9.34209 6.49516 9.32523 6.58368 9.326C6.6722 9.32676 6.75968 9.34516 6.84102 9.38009C6.92235 9.41503 6.99592 9.46582 7.05742 9.5295L7.33342 9.8055V8.00016C7.33342 7.82335 7.40365 7.65378 7.52868 7.52876C7.6537 7.40373 7.82327 7.3335 8.00008 7.3335ZM9.33342 2.94283V5.3335H11.7241L9.33342 2.94283Z" fill="black"/>
</svg>
