<svg width="48" height="48" viewBox="0 0 48 48" fill="none" xmlns="http://www.w3.org/2000/svg">
<rect width="48" height="48" rx="24" fill="black"/>
<g clip-path="url(#clip0_1848_6044)">
<path d="M24.0003 14C24.1649 14 24.3269 14.0406 24.472 14.1182C24.6172 14.1958 24.7409 14.3081 24.8323 14.445L30.6363 23.152L25.4093 25.33L24.1993 16.453C24.1673 16.223 23.8333 16.223 23.8023 16.453L22.5923 25.33L17.3643 23.152L23.1683 14.445C23.2596 14.3081 23.3833 14.1958 23.5285 14.1182C23.6736 14.0406 23.8357 14 24.0003 14ZM24.3853 27.923L30.2033 25.499L24.8333 33.555C24.742 33.6922 24.6182 33.8047 24.473 33.8825C24.3277 33.9603 24.1655 34.001 24.0008 34.001C23.836 34.001 23.6738 33.9603 23.5285 33.8825C23.3833 33.8047 23.2595 33.6922 23.1683 33.555L17.7983 25.499L23.6153 27.923C23.7372 27.9739 23.8681 28.0001 24.0003 28.0001C24.1324 28.0001 24.2633 27.9739 24.3853 27.923Z" fill="white"/>
</g>
<defs>
<clipPath id="clip0_1848_6044">
<rect width="24" height="24" fill="white" transform="translate(12 12)"/>
</clipPath>
</defs>
</svg>
