<svg width="14" height="20" viewBox="0 0 14 20" fill="none" xmlns="http://www.w3.org/2000/svg">
<path d="M7.00026 1.11994e-08C7.16485 -2.46193e-05 7.3269 0.0405779 7.47204 0.118205C7.61718 0.195832 7.74091 0.308084 7.83226 0.445L13.6363 9.152L8.40926 11.33L7.19926 2.453C7.16726 2.223 6.83326 2.223 6.80226 2.453L5.59226 11.33L0.364258 9.152L6.16826 0.445C6.25961 0.308084 6.38334 0.195832 6.52848 0.118205C6.67361 0.0405779 6.83567 -2.46193e-05 7.00026 1.11994e-08ZM7.38526 13.923L13.2033 11.499L7.83326 19.555C7.74197 19.6922 7.61821 19.8047 7.47297 19.8825C7.32774 19.9603 7.16552 20.001 7.00076 20.001C6.83599 20.001 6.67378 19.9603 6.52854 19.8825C6.3833 19.8047 6.25954 19.6922 6.16826 19.555L0.798258 11.499L6.61526 13.923C6.73724 13.9739 6.86809 14.0001 7.00026 14.0001C7.13242 14.0001 7.26328 13.9739 7.38526 13.923Z" fill="#9A57E0"/>
</svg>
