<svg width="48" height="48" viewBox="0 0 48 48" fill="none" xmlns="http://www.w3.org/2000/svg">
<rect width="48" height="48" rx="24" fill="#9A57E0"/>
<g clip-path="url(#clip0_359_1157)">
<path d="M24 14C24.1646 14 24.3267 14.0406 24.4718 14.1182C24.6169 14.1958 24.7407 14.3081 24.832 14.445L30.636 23.152L25.409 25.33L24.199 16.453C24.167 16.223 23.833 16.223 23.802 16.453L22.592 25.33L17.364 23.152L23.168 14.445C23.2594 14.3081 23.3831 14.1958 23.5282 14.1182C23.6734 14.0406 23.8354 14 24 14ZM24.385 27.923L30.203 25.499L24.833 33.555C24.7417 33.6922 24.618 33.8047 24.4727 33.8825C24.3275 33.9603 24.1653 34.001 24.0005 34.001C23.8357 34.001 23.6735 33.9603 23.5283 33.8825C23.3831 33.8047 23.2593 33.6922 23.168 33.555L17.798 25.499L23.615 27.923C23.737 27.9739 23.8678 28.0001 24 28.0001C24.1322 28.0001 24.263 27.9739 24.385 27.923Z" fill="white"/>
</g>
<defs>
<clipPath id="clip0_359_1157">
<rect width="24" height="24" fill="white" transform="translate(12 12)"/>
</clipPath>
</defs>
</svg>
