<svg width="48" height="48" viewBox="0 0 48 48" fill="none" xmlns="http://www.w3.org/2000/svg">
<rect width="48" height="48" rx="24" fill="#3D6AFA"/>
<g clip-path="url(#clip0_1130_4846)">
<path d="M21.636 20.5C22.566 19.262 23.97 18.5 25.471 18.5C26.786 18.5 28.001 19.066 28.909 20.03C29.0443 20.1733 29.2064 20.2885 29.3862 20.3691C29.566 20.4497 29.7599 20.4941 29.9569 20.4998C30.1538 20.5054 30.35 20.4723 30.5341 20.4021C30.7182 20.332 30.8867 20.2263 31.03 20.091C31.1733 19.9557 31.2885 19.7936 31.3691 19.6138C31.4497 19.434 31.4941 19.2401 31.4998 19.0431C31.5054 18.8462 31.4723 18.65 31.4021 18.4659C31.332 18.2818 31.2263 18.1133 31.091 17.97C29.665 16.46 27.682 15.5 25.471 15.5C22.177 15.5 19.444 17.59 18.209 20.5H17C16.6022 20.5 16.2206 20.658 15.9393 20.9393C15.658 21.2206 15.5 21.6022 15.5 22C15.5 22.3978 15.658 22.7794 15.9393 23.0607C16.2206 23.342 16.6022 23.5 17 23.5H17.514C17.4957 23.8331 17.4957 24.1669 17.514 24.5H17C16.6022 24.5 16.2206 24.658 15.9393 24.9393C15.658 25.2206 15.5 25.6022 15.5 26C15.5 26.3978 15.658 26.7794 15.9393 27.0607C16.2206 27.342 16.6022 27.5 17 27.5H18.209C19.444 30.41 22.177 32.5 25.471 32.5C27.682 32.5 29.665 31.54 31.091 30.03C31.2263 29.8867 31.332 29.7182 31.4021 29.5341C31.4723 29.35 31.5054 29.1538 31.4998 28.9569C31.4941 28.7599 31.4497 28.566 31.3691 28.3862C31.2885 28.2064 31.1733 28.0443 31.03 27.909C30.8867 27.7737 30.7182 27.668 30.5341 27.5979C30.35 27.5277 30.1538 27.4946 29.9569 27.5002C29.7599 27.5059 29.566 27.5503 29.3862 27.6309C29.2064 27.7115 29.0443 27.8267 28.909 27.97C28 28.934 26.786 29.5 25.471 29.5C23.97 29.5 22.566 28.738 21.636 27.5H25C25.3978 27.5 25.7794 27.342 26.0607 27.0607C26.342 26.7794 26.5 26.3978 26.5 26C26.5 25.6022 26.342 25.2206 26.0607 24.9393C25.7794 24.658 25.3978 24.5 25 24.5H20.52C20.4937 24.1672 20.4937 23.8328 20.52 23.5H25C25.3978 23.5 25.7794 23.342 26.0607 23.0607C26.342 22.7794 26.5 22.3978 26.5 22C26.5 21.6022 26.342 21.2206 26.0607 20.9393C25.7794 20.658 25.3978 20.5 25 20.5H21.636Z" fill="white"/>
</g>
<defs>
<clipPath id="clip0_1130_4846">
<rect width="24" height="24" fill="white" transform="translate(12 12)"/>
</clipPath>
</defs>
</svg>
