<svg width="92" height="36" viewBox="0 0 92 36" fill="none" xmlns="http://www.w3.org/2000/svg">
<rect width="36" height="36" rx="18" fill="#27B082"/>
<g clip-path="url(#clip0_1752_4854)">
<path d="M19.125 12C19.125 11.7016 19.0065 11.4155 18.7955 11.2045C18.5845 10.9935 18.2984 10.875 18 10.875C17.7016 10.875 17.4155 10.9935 17.2045 11.2045C16.9935 11.4155 16.875 11.7016 16.875 12V12.375H16.125C15.2299 12.375 14.3714 12.7306 13.7385 13.3635C13.1056 13.9964 12.75 14.8549 12.75 15.75C12.75 16.6451 13.1056 17.5036 13.7385 18.1365C14.3714 18.7694 15.2299 19.125 16.125 19.125H19.875C20.1734 19.125 20.4595 19.2435 20.6705 19.4545C20.8815 19.6655 21 19.9516 21 20.25C21 20.5484 20.8815 20.8345 20.6705 21.0455C20.4595 21.2565 20.1734 21.375 19.875 21.375H14.25C13.9516 21.375 13.6655 21.4935 13.4545 21.7045C13.2435 21.9155 13.125 22.2016 13.125 22.5C13.125 22.7984 13.2435 23.0845 13.4545 23.2955C13.6655 23.5065 13.9516 23.625 14.25 23.625H16.875V24C16.875 24.2984 16.9935 24.5845 17.2045 24.7955C17.4155 25.0065 17.7016 25.125 18 25.125C18.2984 25.125 18.5845 25.0065 18.7955 24.7955C19.0065 24.5845 19.125 24.2984 19.125 24V23.625H19.875C20.7701 23.625 21.6285 23.2694 22.2615 22.6365C22.8944 22.0035 23.25 21.1451 23.25 20.25C23.25 19.3549 22.8944 18.4964 22.2615 17.8635C21.6285 17.2306 20.7701 16.875 19.875 16.875H16.125C15.8266 16.875 15.5405 16.7565 15.3295 16.5455C15.1185 16.3345 15 16.0484 15 15.75C15 15.4516 15.1185 15.1655 15.3295 14.9545C15.5405 14.7435 15.8266 14.625 16.125 14.625H21.75C22.0484 14.625 22.3345 14.5065 22.5455 14.2955C22.7565 14.0845 22.875 13.7984 22.875 13.5C22.875 13.2016 22.7565 12.9155 22.5455 12.7045C22.3345 12.4935 22.0484 12.375 21.75 12.375H19.125V12Z" fill="white"/>
</g>
<rect x="28" width="36" height="36" rx="18" fill="black"/>
<g clip-path="url(#clip1_1752_4854)">
<path d="M52.6667 15.5002C52.8877 15.5002 53.0996 15.588 53.2559 15.7443C53.4122 15.9005 53.5 16.1125 53.5 16.3335V17.1668C53.5 18.935 52.7976 20.6306 51.5474 21.8809C50.2971 23.1311 48.6014 23.8335 46.8333 23.8335H43.845L44.5058 24.4943C44.6576 24.6515 44.7416 24.862 44.7397 25.0805C44.7378 25.299 44.6502 25.508 44.4957 25.6625C44.3412 25.817 44.1322 25.9047 43.9137 25.9066C43.6952 25.9085 43.4847 25.8245 43.3275 25.6727L41.2475 23.5927C41.1184 23.4655 41.0344 23.2995 41.0083 23.1202L41 22.9927C41.0014 22.7978 41.0713 22.6095 41.1975 22.461L41.2442 22.411L43.3275 20.3277C43.4847 20.1759 43.6952 20.0919 43.9137 20.0938C44.1322 20.0957 44.3412 20.1833 44.4957 20.3378C44.6502 20.4923 44.7378 20.7013 44.7397 20.9198C44.7416 21.1383 44.6576 21.3488 44.5058 21.506L43.845 22.1668H46.8333C48.1594 22.1668 49.4312 21.6401 50.3689 20.7024C51.3065 19.7647 51.8333 18.4929 51.8333 17.1668V16.3335C51.8333 16.1125 51.9211 15.9005 52.0774 15.7443C52.2337 15.588 52.4457 15.5002 52.6667 15.5002ZM48.6725 10.3277L50.7558 12.411C50.9121 12.5673 50.9998 12.7792 50.9998 13.0002C50.9998 13.2211 50.9121 13.4331 50.7558 13.5893L48.6725 15.6727C48.5956 15.7523 48.5037 15.8158 48.402 15.8594C48.3003 15.9031 48.191 15.9261 48.0803 15.9271C47.9697 15.928 47.86 15.9069 47.7575 15.865C47.6551 15.8231 47.5621 15.7612 47.4838 15.683C47.4056 15.6048 47.3437 15.5117 47.3018 15.4093C47.2599 15.3069 47.2388 15.1972 47.2398 15.0865C47.2408 14.9759 47.2637 14.8665 47.3074 14.7648C47.3511 14.6632 47.4146 14.5712 47.4942 14.4943L48.155 13.8335H45.1667C43.8406 13.8335 42.5688 14.3603 41.6311 15.298C40.6935 16.2357 40.1667 17.5074 40.1667 18.8335V19.6668C40.1667 19.8879 40.0789 20.0998 39.9226 20.2561C39.7663 20.4124 39.5543 20.5002 39.3333 20.5002C39.1123 20.5002 38.9004 20.4124 38.7441 20.2561C38.5878 20.0998 38.5 19.8879 38.5 19.6668V18.8335C38.5 17.0654 39.2024 15.3697 40.4526 14.1195C41.7029 12.8692 43.3986 12.1668 45.1667 12.1668H48.155L47.4942 11.506C47.3424 11.3488 47.2584 11.1383 47.2603 10.9198C47.2622 10.7013 47.3498 10.4923 47.5043 10.3378C47.6588 10.1833 47.8678 10.0957 48.0863 10.0938C48.3048 10.0919 48.5153 10.1759 48.6725 10.3277Z" fill="white"/>
</g>
<rect x="56" width="36" height="36" rx="18" fill="#009393"/>
<g clip-path="url(#clip2_1752_4854)">
<path d="M78.0651 11.25C78.3295 11.2501 78.5892 11.3201 78.8178 11.4528C79.0465 11.5856 79.236 11.7764 79.3671 12.006L81.8676 16.38C82.0308 16.6656 82.0956 16.997 82.0519 17.3231C82.0083 17.6491 81.8587 17.9518 81.6261 18.1845L74.6639 25.1467C74.5768 25.2338 74.4734 25.3029 74.3597 25.35C74.2459 25.3972 74.124 25.4214 74.0009 25.4214C73.8777 25.4214 73.7558 25.3972 73.642 25.35C73.5283 25.3029 73.4249 25.2338 73.3379 25.1467L66.3756 18.1845C66.143 17.9518 65.9934 17.6491 65.9498 17.3231C65.9061 16.997 65.9709 16.6656 66.1341 16.38L68.6339 12.0052C68.765 11.7759 68.9544 11.5853 69.1829 11.4527C69.4114 11.3201 69.6709 11.2501 69.9351 11.25H78.0651ZM76.2501 13.5H71.7501C71.5589 13.5002 71.3751 13.5734 71.2361 13.7046C71.0971 13.8359 71.0134 14.0152 71.0022 14.206C70.991 14.3969 71.0531 14.5848 71.1758 14.7314C71.2985 14.878 71.4725 14.9722 71.6624 14.9947L71.7501 15H73.2501V16.1587C72.6816 16.2112 72.1649 16.3215 71.7471 16.4782C71.4509 16.5892 71.1854 16.7302 70.9874 16.9065C70.7894 17.082 70.6251 17.3242 70.6251 17.625C70.6251 17.9257 70.7894 18.168 70.9874 18.3435C71.1854 18.5197 71.4509 18.6607 71.7471 18.771C72.1926 18.9382 72.7506 19.0537 73.3649 19.101C73.3055 19.1955 73.268 19.3021 73.2554 19.413L73.2501 19.5V21C73.2503 21.1912 73.3235 21.375 73.4547 21.514C73.586 21.653 73.7653 21.7367 73.9561 21.7479C74.147 21.7591 74.3349 21.697 74.4815 21.5743C74.6281 21.4516 74.7223 21.2776 74.7449 21.0877L74.7501 21V19.5C74.7504 19.3588 74.7106 19.2205 74.6354 19.101C75.2496 19.0537 75.8076 18.939 76.2531 18.771C76.5494 18.6607 76.8149 18.5197 77.0129 18.3435C77.2109 18.168 77.3751 17.9257 77.3751 17.625C77.3751 17.3242 77.2109 17.082 77.0129 16.9065C76.8149 16.7302 76.5494 16.5892 76.2531 16.479C75.8451 16.3327 75.4215 16.234 74.9909 16.185L74.7501 16.1587V15H76.2501C76.4413 14.9998 76.6251 14.9266 76.7641 14.7954C76.9031 14.6641 76.9868 14.4848 76.998 14.294C77.0092 14.1031 76.9471 13.9152 76.8244 13.7686C76.7017 13.622 76.5277 13.5278 76.3379 13.5052L76.2501 13.5ZM74.7494 16.9125C75.1724 16.9497 75.5891 17.0396 75.9899 17.1802C76.2366 17.2732 76.4099 17.3745 76.5149 17.4675C76.5604 17.5026 76.5965 17.5484 76.6199 17.601L76.6251 17.625L76.6199 17.649C76.5965 17.7016 76.5604 17.7474 76.5149 17.7825C76.4099 17.8755 76.2366 17.9775 75.9899 18.069C75.4986 18.2535 74.7951 18.375 74.0001 18.375C73.2051 18.375 72.5016 18.2535 72.0104 18.069C71.7636 17.9767 71.5904 17.8755 71.4846 17.7825C71.439 17.7474 71.4029 17.7016 71.3796 17.649L71.3751 17.625C71.3751 17.6152 71.3789 17.5612 71.4846 17.4675C71.5896 17.3745 71.7636 17.2725 72.0104 17.181C72.3404 17.0572 72.7656 16.9612 73.2509 16.9125C73.2595 17.1054 73.3422 17.2876 73.4818 17.421C73.6213 17.5545 73.807 17.629 74.0001 17.629C74.1932 17.629 74.3789 17.5545 74.5184 17.421C74.658 17.2876 74.7407 17.1054 74.7494 16.9125Z" fill="white"/>
</g>
<defs>
<clipPath id="clip0_1752_4854">
<rect width="18" height="18" fill="white" transform="translate(9 9)"/>
</clipPath>
<clipPath id="clip1_1752_4854">
<rect width="20" height="20" fill="white" transform="translate(36 8)"/>
</clipPath>
<clipPath id="clip2_1752_4854">
<rect width="18" height="18" fill="white" transform="translate(65 9)"/>
</clipPath>
</defs>
</svg>
