<svg width="18" height="20" viewBox="0 0 18 20" fill="none" xmlns="http://www.w3.org/2000/svg">
<path d="M1 7C1.24493 7.00003 1.48134 7.08995 1.66437 7.25271C1.84741 7.41547 1.96434 7.63975 1.993 7.883L2 8V9C1.99994 10.5524 2.60157 12.0444 3.67847 13.1625C4.75536 14.2806 6.22371 14.9378 7.775 14.996L8 15H11.586L10.793 14.207C10.6137 14.027 10.5095 13.7856 10.5018 13.5316C10.494 13.2777 10.5832 13.0303 10.7512 12.8397C10.9193 12.6492 11.1536 12.5297 11.4065 12.5056C11.6594 12.4815 11.912 12.5546 12.113 12.71L12.207 12.793L14.707 15.293C14.8578 15.4431 14.9563 15.6377 14.988 15.848L15 16.01C14.9982 16.2299 14.9236 16.4429 14.788 16.616L14.703 16.711L12.207 19.207C12.027 19.3863 11.7856 19.4905 11.5316 19.4982C11.2777 19.506 11.0303 19.4168 10.8397 19.2487C10.6492 19.0807 10.5297 18.8464 10.5056 18.5935C10.4815 18.3406 10.5546 18.088 10.71 17.887L10.793 17.793L11.586 17H8C5.92157 17 3.92474 16.1911 2.4323 14.7445C0.939847 13.298 0.0689508 11.3274 0.00399995 9.25L0 9V8C0 7.73478 0.105357 7.48043 0.292893 7.29289C0.48043 7.10536 0.734784 7 1 7ZM5.793 0.792999C5.97296 0.613651 6.21443 0.509526 6.46838 0.501771C6.72233 0.494016 6.96971 0.583214 7.16028 0.751248C7.35084 0.919282 7.47031 1.15355 7.4944 1.40647C7.51849 1.6594 7.44541 1.91201 7.29 2.113L7.207 2.207L6.414 3H10C12.0784 3.00002 14.0753 3.80894 15.5677 5.25547C17.0602 6.702 17.931 8.67259 17.996 10.75L18 11V12C17.9997 12.2549 17.9021 12.5 17.7272 12.6854C17.5522 12.8707 17.313 12.9822 17.0586 12.9972C16.8042 13.0121 16.5536 12.9293 16.3582 12.7657C16.1627 12.6021 16.0371 12.3701 16.007 12.117L16 12V11C16.0001 9.44762 15.3984 7.95564 14.3215 6.83753C13.2446 5.71942 11.7763 5.06221 10.225 5.004L10 5H6.414L7.207 5.793C7.38635 5.97296 7.49047 6.21443 7.49823 6.46838C7.50598 6.72233 7.41679 6.96971 7.24875 7.16028C7.08072 7.35084 6.84645 7.4703 6.59353 7.4944C6.3406 7.51849 6.08799 7.44541 5.887 7.29L5.793 7.207L3.293 4.707C3.12082 4.53481 3.01739 4.30571 3.00211 4.06268C2.98683 3.81965 3.06075 3.5794 3.21 3.387L3.293 3.293L5.793 0.792999Z" fill="#CECECF"/>
</svg>
