<svg width="48" height="48" viewBox="0 0 48 48" fill="none" xmlns="http://www.w3.org/2000/svg">
<rect width="48" height="48" rx="24" fill="black"/>
<g clip-path="url(#clip0_1870_6042)">
<path fill-rule="evenodd" clip-rule="evenodd" d="M15.0742 23.7129C15.0742 23.2621 15.2601 22.8297 15.5911 22.5109C15.922 22.1921 16.3708 22.013 16.8389 22.013H18.6L18.6035 19.6399C18.6024 18.3547 19.0209 17.1016 19.7998 16.0581C20.5787 15.0147 21.6786 14.2336 22.9438 13.8254C24.2089 13.4173 25.5753 13.4028 26.8495 13.784C28.1236 14.1652 29.2411 14.9227 30.0437 15.9494L30.6595 16.8198C30.9113 17.1806 31.01 17.6206 30.9353 18.0494C30.8606 18.4782 30.6183 18.8631 30.258 19.125C29.8978 19.3869 29.4471 19.5059 28.9986 19.4575C28.5501 19.4091 28.1379 19.197 27.8467 18.8648C27.1285 17.8567 26.3785 16.9133 24.965 16.9133C23.3698 16.9133 22.2016 18.1593 22.1328 19.6399V22.013H25.6621C26.1301 22.013 26.5789 22.1921 26.9099 22.5109C27.2408 22.8297 27.4267 23.2621 27.4267 23.7129C27.4267 24.1638 27.2408 24.5961 26.9099 24.9149C26.5789 25.2337 26.1301 25.4128 25.6621 25.4128H22.1328V28.8126C22.1328 29.2614 22.0922 29.7085 21.9951 30.1471C22.8369 30.2151 23.6486 30.3647 24.4551 30.5992C25.8227 31.0395 27.2573 30.9222 28.6337 30.5992C28.8537 30.5287 29.0858 30.5006 29.317 30.5165C29.5482 30.5324 29.7739 30.592 29.9812 30.6919C30.1885 30.7918 30.3733 30.9301 30.5251 31.0988C30.677 31.2675 30.7928 31.4634 30.866 31.6753C30.9392 31.8871 30.9684 32.1108 30.9519 32.3335C30.9354 32.5562 30.8735 32.7736 30.7698 32.9733C30.6661 33.173 30.5226 33.3511 30.3474 33.4973C30.1722 33.6435 29.9689 33.7551 29.749 33.8257C27.6385 34.3628 25.445 34.5005 23.3398 33.8257C21.9722 33.3854 20.5358 33.5027 19.1611 33.8257C17.0824 34.492 15.8807 31.745 17.8147 30.6927C18.18 30.4938 18.5417 29.7884 18.5912 29.1084L18.5964 25.4128H16.8389C16.3708 25.4128 15.922 25.2337 15.5911 24.9149C15.2601 24.5961 15.0742 24.1638 15.0742 23.7129Z" fill="white"/>
</g>
<defs>
<clipPath id="clip0_1870_6042">
<rect width="24" height="24" fill="white" transform="translate(12 12)"/>
</clipPath>
</defs>
</svg>
