<svg width="48" height="48" viewBox="0 0 48 48" fill="none" xmlns="http://www.w3.org/2000/svg">
<rect width="48" height="48" rx="24" fill="#7C7B85"/>
<g clip-path="url(#clip0_1414_13838)">
<path fill-rule="evenodd" clip-rule="evenodd" d="M15.0742 23.7129C15.0742 23.262 15.2601 22.8296 15.5911 22.5108C15.922 22.1921 16.3708 22.013 16.8389 22.013H18.6L18.6035 19.6399C18.6024 18.3546 19.0209 17.1016 19.7998 16.0581C20.5787 15.0146 21.6786 14.2335 22.9438 13.8254C24.2089 13.4173 25.5753 13.4028 26.8495 13.7839C28.1236 14.1651 29.2411 14.9227 30.0437 15.9494L30.6595 16.8197C30.9113 17.1806 31.01 17.6206 30.9353 18.0493C30.8606 18.4781 30.6183 18.863 30.258 19.1249C29.8978 19.3868 29.4471 19.5058 28.9986 19.4574C28.5501 19.409 28.1379 19.1969 27.8467 18.8647C27.1285 17.8567 26.3785 16.9132 24.965 16.9132C23.3698 16.9132 22.2016 18.1593 22.1328 19.6399V22.013H25.6621C26.1301 22.013 26.5789 22.1921 26.9099 22.5108C27.2408 22.8296 27.4267 23.262 27.4267 23.7129C27.4267 24.1637 27.2408 24.5961 26.9099 24.9149C26.5789 25.2337 26.1301 25.4128 25.6621 25.4128H22.1328V28.8126C22.1328 29.2614 22.0922 29.7084 21.9951 30.147C22.8369 30.215 23.6486 30.3646 24.4551 30.5992C25.8227 31.0395 27.2573 30.9222 28.6337 30.5992C28.8537 30.5286 29.0858 30.5005 29.317 30.5164C29.5482 30.5323 29.7739 30.5919 29.9812 30.6918C30.1885 30.7918 30.3733 30.93 30.5251 31.0988C30.677 31.2675 30.7928 31.4634 30.866 31.6752C30.9392 31.8871 30.9684 32.1107 30.9519 32.3335C30.9354 32.5562 30.8735 32.7736 30.7698 32.9733C30.6661 33.1729 30.5226 33.351 30.3474 33.4972C30.1722 33.6435 29.9689 33.7551 29.749 33.8256C27.6385 34.3628 25.445 34.5005 23.3398 33.8256C21.9722 33.3853 20.5358 33.5026 19.1611 33.8256C17.0824 34.492 15.8807 31.7449 17.8147 30.6927C18.18 30.4938 18.5417 29.7883 18.5912 29.1084L18.5964 25.4128H16.8389C16.3708 25.4128 15.922 25.2337 15.5911 24.9149C15.2601 24.5961 15.0742 24.1637 15.0742 23.7129Z" fill="white"/>
</g>
<defs>
<clipPath id="clip0_1414_13838">
<rect width="24" height="24" fill="white" transform="translate(12 12)"/>
</clipPath>
</defs>
</svg>
