<svg width="20" height="19" viewBox="0 0 20 19" fill="none" xmlns="http://www.w3.org/2000/svg">
<path fill-rule="evenodd" clip-rule="evenodd" d="M8.7721 0.688005C9.12319 0.414896 9.5553 0.266617 10.0001 0.266617C10.4449 0.266617 10.877 0.414896 11.2281 0.688005L19.6121 7.208C20.3651 7.795 19.9491 9 18.9971 9H18.0001V17C18.0001 17.5304 17.7894 18.0391 17.4143 18.4142C17.0392 18.7893 16.5305 19 16.0001 19H4.0001C3.46967 19 2.96096 18.7893 2.58589 18.4142C2.21082 18.0391 2.0001 17.5304 2.0001 17V9H1.0031C0.0501037 9 -0.363896 7.794 0.388104 7.209L8.7721 0.688005ZM3.6251 7.22501C3.8541 7.41001 4.0001 7.69301 4.0001 8.01V17H16.0001V8.01C16.0001 7.69301 16.1461 7.41001 16.3751 7.22501L10.0001 2.267L3.6251 7.22501Z" fill="#CECECF"/>
</svg>
