<svg width="32" height="32" viewBox="0 0 32 32" fill="none" xmlns="http://www.w3.org/2000/svg">
<g clip-path="url(#clip0_1752_4816)">
<path d="M16.0003 2.6665C23.3643 2.6665 29.3337 8.63584 29.3337 15.9998C29.3337 23.3638 23.3643 29.3332 16.0003 29.3332C8.63633 29.3332 2.66699 23.3638 2.66699 15.9998C2.66699 8.63584 8.63633 2.6665 16.0003 2.6665ZM21.3337 14.6665H10.667C10.3134 14.6665 9.97423 14.807 9.72418 15.057C9.47413 15.3071 9.33366 15.6462 9.33366 15.9998C9.33366 16.3535 9.47413 16.6926 9.72418 16.9426C9.97423 17.1927 10.3134 17.3332 10.667 17.3332H21.3337C21.6873 17.3332 22.0264 17.1927 22.2765 16.9426C22.5265 16.6926 22.667 16.3535 22.667 15.9998C22.667 15.6462 22.5265 15.3071 22.2765 15.057C22.0264 14.807 21.6873 14.6665 21.3337 14.6665Z" fill="#FF383C"/>
</g>
<defs>
<clipPath id="clip0_1752_4816">
<rect width="32" height="32" fill="white"/>
</clipPath>
</defs>
</svg>
