<svg width="108" height="40" viewBox="0 0 108 40" fill="none" xmlns="http://www.w3.org/2000/svg">
<rect width="108" height="40" rx="20" fill="#EFEFEF"/>
<rect width="40" height="40" rx="20" fill="#27B082"/>
<g clip-path="url(#clip0_1752_6350)">
<path d="M21.2503 13.3333C21.2503 13.0017 21.1186 12.6838 20.8842 12.4494C20.6498 12.2149 20.3318 12.0833 20.0003 12.0833C19.6688 12.0833 19.3509 12.2149 19.1164 12.4494C18.882 12.6838 18.7503 13.0017 18.7503 13.3333V13.7499H17.917C16.9224 13.7499 15.9686 14.145 15.2653 14.8483C14.5621 15.5515 14.167 16.5054 14.167 17.4999C14.167 18.4945 14.5621 19.4483 15.2653 20.1516C15.9686 20.8548 16.9224 21.2499 17.917 21.2499H22.0837C22.4152 21.2499 22.7331 21.3816 22.9675 21.616C23.202 21.8505 23.3337 22.1684 23.3337 22.4999C23.3337 22.8314 23.202 23.1494 22.9675 23.3838C22.7331 23.6182 22.4152 23.7499 22.0837 23.7499H15.8337C15.5021 23.7499 15.1842 23.8816 14.9498 24.116C14.7154 24.3505 14.5837 24.6684 14.5837 24.9999C14.5837 25.3314 14.7154 25.6494 14.9498 25.8838C15.1842 26.1182 15.5021 26.2499 15.8337 26.2499H18.7503V26.6666C18.7503 26.9981 18.882 27.316 19.1164 27.5505C19.3509 27.7849 19.6688 27.9166 20.0003 27.9166C20.3318 27.9166 20.6498 27.7849 20.8842 27.5505C21.1186 27.316 21.2503 26.9981 21.2503 26.6666V26.2499H22.0837C23.0782 26.2499 24.032 25.8548 24.7353 25.1516C25.4386 24.4483 25.8337 23.4945 25.8337 22.4999C25.8337 21.5054 25.4386 20.5515 24.7353 19.8483C24.032 19.145 23.0782 18.7499 22.0837 18.7499H17.917C17.5855 18.7499 17.2675 18.6182 17.0331 18.3838C16.7987 18.1494 16.667 17.8314 16.667 17.4999C16.667 17.1684 16.7987 16.8505 17.0331 16.616C17.2675 16.3816 17.5855 16.2499 17.917 16.2499H24.167C24.4985 16.2499 24.8165 16.1182 25.0509 15.8838C25.2853 15.6494 25.417 15.3314 25.417 14.9999C25.417 14.6684 25.2853 14.3505 25.0509 14.116C24.8165 13.8816 24.4985 13.7499 24.167 13.7499H21.2503V13.3333Z" fill="white"/>
</g>
<path d="M56.4062 25.788C51.7823 25.788 49.0463 23.804 49.0463 20.22V14.044H53.2223V19.996C53.2223 21.852 54.4543 22.764 56.4223 22.764C58.3903 22.764 59.6063 21.852 59.6063 19.996V14.044H63.7663V20.22C63.7663 23.804 61.0463 25.788 56.4062 25.788ZM71.9583 25.836C69.2063 25.836 66.2623 25.02 64.7263 23.836L66.1663 21.356C67.4943 22.412 69.9743 23.18 72.1663 23.18C73.7823 23.18 74.8063 22.796 74.8063 22.204C74.8063 21.708 74.0703 21.404 72.3263 21.212L70.2143 20.972C66.5983 20.588 65.0463 19.58 65.0463 17.548C65.0463 15.084 67.8303 13.692 71.9103 13.692C74.3263 13.692 76.5983 14.268 78.0063 15.18L76.8383 17.58C75.5903 16.748 73.7023 16.22 71.9423 16.236C70.3103 16.252 69.1102 16.636 69.0943 17.244C69.0943 17.676 69.7343 17.948 71.2063 18.092L73.3343 18.316C77.2063 18.716 78.8703 19.772 78.8703 21.852C78.8863 24.22 76.1663 25.836 71.9583 25.836ZM79.9875 25.5V14.044H88.1315C92.5795 14.044 95.0595 16.092 95.0595 19.772C95.0595 23.452 92.5795 25.5 88.1315 25.5H79.9875ZM84.0515 22.668H87.5555C89.7635 22.668 91.0115 21.628 91.0115 19.772C91.0115 17.916 89.7635 16.86 87.5555 16.86H84.0515V22.668Z" fill="black"/>
<defs>
<clipPath id="clip0_1752_6350">
<rect width="20" height="20" fill="white" transform="translate(10 10)"/>
</clipPath>
</defs>
</svg>
