<svg width="110" height="110" viewBox="0 0 110 110" fill="none" xmlns="http://www.w3.org/2000/svg">
<path d="M55 0C85.3765 0 110 24.6235 110 55C110 85.3765 85.3765 110 55 110C24.6235 110 0 85.3765 0 55C0 24.6235 24.6235 0 55 0ZM55 27.5C53.6529 27.5002 52.3526 27.9948 51.346 28.8899C50.3393 29.7851 49.6961 31.0186 49.5385 32.3565L49.5 33V49.5H33C31.5982 49.5016 30.2498 50.0383 29.2305 51.0007C28.2111 51.963 27.5977 53.2782 27.5156 54.6777C27.4334 56.0771 27.8887 57.4551 28.7885 58.5301C29.6882 59.6051 30.9645 60.2959 32.3565 60.4615L33 60.5H49.5V77C49.5016 78.4018 50.0383 79.7502 51.0007 80.7695C51.963 81.7889 53.2782 82.4023 54.6777 82.4844C56.0771 82.5666 57.4551 82.1113 58.5301 81.2115C59.6051 80.3118 60.2959 79.0355 60.4615 77.6435L60.5 77V60.5H77C78.4018 60.4984 79.7502 59.9617 80.7695 58.9993C81.7889 58.037 82.4023 56.7218 82.4844 55.3223C82.5666 53.9229 82.1113 52.5449 81.2115 51.4699C80.3118 50.3949 79.0355 49.7041 77.6435 49.5385L77 49.5H60.5V33C60.5 31.5413 59.9205 30.1424 58.8891 29.1109C57.8576 28.0795 56.4587 27.5 55 27.5Z" fill="#E3FFCA"/>
</svg>
