<svg width="32" height="32" viewBox="0 0 32 32" fill="none" xmlns="http://www.w3.org/2000/svg">
<g clip-path="url(#clip0_1751_4809)">
<path d="M16.0003 2.6665C23.3643 2.6665 29.3337 8.63584 29.3337 15.9998C29.3337 23.3638 23.3643 29.3332 16.0003 29.3332C8.63633 29.3332 2.66699 23.3638 2.66699 15.9998C2.66699 8.63584 8.63633 2.6665 16.0003 2.6665ZM16.0003 9.33317C15.6737 9.33321 15.3585 9.45311 15.1145 9.67012C14.8704 9.88714 14.7145 10.1862 14.6763 10.5105L14.667 10.6665V14.6665H10.667C10.3272 14.6669 10.0003 14.797 9.75317 15.0303C9.50605 15.2636 9.35735 15.5824 9.33743 15.9217C9.31751 16.261 9.42789 16.595 9.64601 16.8556C9.86413 17.1162 10.1735 17.2837 10.511 17.3238L10.667 17.3332H14.667V21.3332C14.6674 21.673 14.7975 21.9999 15.0308 22.247C15.2641 22.4941 15.5829 22.6428 15.9222 22.6627C16.2614 22.6826 16.5955 22.5723 16.8561 22.3542C17.1167 22.136 17.2842 21.8266 17.3243 21.4892L17.3337 21.3332V17.3332H21.3337C21.6735 17.3328 22.0004 17.2027 22.2475 16.9694C22.4946 16.7361 22.6433 16.4172 22.6632 16.078C22.6831 15.7387 22.5728 15.4047 22.3546 15.1441C22.1365 14.8835 21.8271 14.716 21.4897 14.6758L21.3337 14.6665H17.3337V10.6665C17.3337 10.3129 17.1932 9.97374 16.9431 9.72369C16.6931 9.47365 16.3539 9.33317 16.0003 9.33317Z" fill="#B3FD71"/>
</g>
<defs>
<clipPath id="clip0_1751_4809">
<rect width="32" height="32" fill="white"/>
</clipPath>
</defs>
</svg>
