<svg width="16" height="18" viewBox="0 0 16 18" fill="none" xmlns="http://www.w3.org/2000/svg">
<path d="M1 16C0.734784 16 0.48043 16.1054 0.292893 16.2929C0.105357 16.4804 0 16.7348 0 17C0 17.2652 0.105357 17.5196 0.292893 17.7071C0.48043 17.8946 0.734784 18 1 18H15C15.2652 18 15.5196 17.8946 15.7071 17.7071C15.8946 17.5196 16 17.2652 16 17C16 16.7348 15.8946 16.4804 15.7071 16.2929C15.5196 16.1054 15.2652 16 15 16H1ZM12.95 8.297C12.8571 8.20402 12.7468 8.13026 12.6254 8.07994C12.504 8.02962 12.3739 8.00371 12.2425 8.00371C12.1111 8.00371 11.981 8.02962 11.8596 8.07994C11.7382 8.13026 11.6279 8.20402 11.535 8.297L9 10.833V1C9 0.734784 8.89464 0.48043 8.70711 0.292893C8.51957 0.105357 8.26522 0 8 0C7.73478 0 7.48043 0.105357 7.29289 0.292893C7.10536 0.48043 7 0.734784 7 1V10.833L4.464 8.297C4.27636 8.10949 4.02192 8.0042 3.75665 8.0043C3.49138 8.00439 3.23701 8.10986 3.0495 8.2975C2.86199 8.48514 2.7567 8.73958 2.7568 9.00485C2.75689 9.27012 2.86236 9.52449 3.05 9.712L7.293 13.954C7.48053 14.1415 7.73484 14.2468 8 14.2468C8.26516 14.2468 8.51947 14.1415 8.707 13.954L12.95 9.712C13.043 9.61913 13.1167 9.50884 13.1671 9.38744C13.2174 9.26604 13.2433 9.13592 13.2433 9.0045C13.2433 8.87309 13.2174 8.74296 13.1671 8.62156C13.1167 8.50016 13.043 8.38987 12.95 8.297Z" fill="#CECECF"/>
</svg>
