<svg width="16" height="20" viewBox="0 0 16 20" fill="none" xmlns="http://www.w3.org/2000/svg">
<path d="M10.253 0.290994C10.4564 0.25713 10.6646 0.265571 10.8646 0.31579C11.0646 0.366008 11.2521 0.456925 11.4154 0.582862C11.5787 0.7088 11.7143 0.867052 11.8136 1.04774C11.913 1.22842 11.9741 1.42765 11.993 1.63299L12 1.77099V2.99999H14C14.5046 2.99983 14.9906 3.1904 15.3605 3.53349C15.7305 3.87658 15.9572 4.34684 15.995 4.84999L16 4.99999V15C15.9999 15.5044 15.8092 15.9901 15.4662 16.3599C15.1231 16.7297 14.653 16.9562 14.15 16.994L14 17H12V18.23C11.9999 18.4362 11.9572 18.6401 11.8748 18.8291C11.7923 19.018 11.6718 19.1879 11.5207 19.3282C11.3696 19.4685 11.1912 19.5762 10.9967 19.6444C10.8021 19.7127 10.5956 19.7401 10.39 19.725L10.253 19.709L1.671 18.279C1.23121 18.2058 0.828498 17.9877 0.526835 17.6594C0.225171 17.3311 0.0418537 16.9114 0.00600005 16.467L9.82842e-09 16.306V3.69399C-4.41622e-05 3.24827 0.148805 2.8153 0.422916 2.46383C0.697028 2.11236 1.08069 1.86253 1.513 1.75399L1.671 1.72099L10.253 0.290994ZM10 2.36099L2 3.69399V16.306L10 17.639V2.36099ZM14 4.99999H12V15H14V4.99999ZM7.5 8.49999C7.89782 8.49999 8.27936 8.65803 8.56066 8.93933C8.84196 9.22064 9 9.60217 9 9.99999C9 10.3978 8.84196 10.7794 8.56066 11.0607C8.27936 11.342 7.89782 11.5 7.5 11.5C7.10218 11.5 6.72064 11.342 6.43934 11.0607C6.15804 10.7794 6 10.3978 6 9.99999C6 9.60217 6.15804 9.22064 6.43934 8.93933C6.72064 8.65803 7.10218 8.49999 7.5 8.49999Z" fill="#CECECF"/>
</svg>
