<svg width="20" height="20" viewBox="0 0 20 20" fill="none" xmlns="http://www.w3.org/2000/svg">
<path fill-rule="evenodd" clip-rule="evenodd" d="M10 0C15.523 0 20 4.477 20 10C20 15.523 15.523 20 10 20C4.477 20 0 15.523 0 10C0 4.477 4.477 0 10 0ZM12.313 14.434C11.5991 14.807 10.8054 15.0012 10 15C9.28261 15.0011 8.57344 14.8473 7.921 14.549L7.687 14.434L5.504 16.618C6.82932 17.5209 8.39636 18.0026 10 18C11.4983 18.0023 12.9669 17.5819 14.237 16.787L14.497 16.617L12.313 14.434ZM3.383 5.504C2.47977 6.82921 1.99774 8.39626 2 10C2 11.667 2.51 13.215 3.382 14.496L5.566 12.313C5.19299 11.5991 4.99877 10.8054 5 10C5 9.165 5.204 8.379 5.566 7.687L3.383 5.504ZM16.618 5.504L14.434 7.687C14.796 8.379 15 9.166 15 10C15 10.835 14.796 11.621 14.434 12.313L16.618 14.496C17.5209 13.1707 18.0026 11.6036 18 10C18 8.333 17.49 6.785 16.618 5.504ZM10 7C9.20435 7 8.44129 7.31607 7.87868 7.87868C7.31607 8.44129 7 9.20435 7 10C7 10.7956 7.31607 11.5587 7.87868 12.1213C8.44129 12.6839 9.20435 13 10 13C10.7956 13 11.5587 12.6839 12.1213 12.1213C12.6839 11.5587 13 10.7956 13 10C13 9.20435 12.6839 8.44129 12.1213 7.87868C11.5587 7.31607 10.7956 7 10 7ZM10 2C8.50167 1.99761 7.03306 2.41805 5.763 3.213L5.503 3.383L7.687 5.566C8.40086 5.19299 9.19456 4.99877 10 5C10.742 5 11.446 5.162 12.079 5.451L12.313 5.566L14.496 3.382C13.1707 2.47913 11.6036 1.99744 10 2Z" fill="#CECECF"/>
</svg>
