<svg width="72" height="72" viewBox="0 0 72 72" fill="none" xmlns="http://www.w3.org/2000/svg">
<rect width="72" height="72" rx="16" fill="white"/>
<g clip-path="url(#clip0_1354_3280)">
<path fill-rule="evenodd" clip-rule="evenodd" d="M42.0693 49.5107C40.1493 49.44 34.7079 48.688 29.0093 42.9907C23.3119 37.292 22.5613 31.852 22.4893 29.9307C22.3826 27.0027 24.6253 24.1587 27.2159 23.048C27.5279 22.9133 27.8695 22.862 28.2073 22.8992C28.5451 22.9364 28.8674 23.0607 29.1426 23.26C31.2759 24.8147 32.7479 27.1667 34.0119 29.016C34.29 29.4223 34.4089 29.9168 34.346 30.4051C34.283 30.8934 34.0426 31.3415 33.6706 31.664L31.0693 33.596C30.9436 33.6868 30.8551 33.8201 30.8203 33.9711C30.7855 34.1222 30.8067 34.2808 30.8799 34.4174C31.4693 35.488 32.5173 37.0827 33.7173 38.2827C34.9186 39.4827 36.5879 40.6 37.7333 41.256C37.8769 41.3367 38.0459 41.3592 38.2056 41.319C38.3653 41.2788 38.5035 41.179 38.5919 41.04L40.2853 38.4627C40.5966 38.0492 41.0558 37.7721 41.5668 37.6896C42.0778 37.6071 42.6009 37.7255 43.0266 38.02C44.9026 39.3187 47.0919 40.7654 48.6946 42.8174C48.9101 43.0946 49.0472 43.4246 49.0915 43.7729C49.1358 44.1212 49.0858 44.475 48.9466 44.7974C47.8306 47.4014 45.0066 49.6187 42.0693 49.5107Z" fill="black"/>
</g>
<defs>
<clipPath id="clip0_1354_3280">
<rect width="32" height="32" fill="white" transform="translate(20 20)"/>
</clipPath>
</defs>
</svg>
