<svg width="72" height="72" viewBox="0 0 72 72" fill="none" xmlns="http://www.w3.org/2000/svg">
<rect width="72" height="72" rx="16" fill="white"/>
<g clip-path="url(#clip0_1354_3278)">
<path d="M22.4237 27.3093L34.257 39.1439C34.6071 39.4942 35.0747 39.7022 35.5693 39.7276C36.0639 39.7529 36.5503 39.5939 36.9343 39.2813L37.0863 39.1439L48.9117 27.3173C48.9503 27.4639 48.9757 27.6133 48.989 27.7666L48.9997 27.9999V43.9999C48.9999 44.6727 48.7458 45.3207 48.2883 45.814C47.8309 46.3073 47.2039 46.6095 46.533 46.6599L46.333 46.6666H24.9997C24.3269 46.6668 23.6789 46.4127 23.1856 45.9553C22.6923 45.4978 22.3901 44.8708 22.3397 44.1999L22.333 43.9999V27.9999C22.333 27.8399 22.3463 27.6853 22.373 27.5333L22.4237 27.3093ZM46.333 25.3333C46.4943 25.3333 46.653 25.3466 46.8063 25.3746L47.033 25.4266L35.673 36.7866L24.309 25.4239C24.4557 25.3839 24.6077 25.3573 24.7623 25.3439L24.9997 25.3333H46.333Z" fill="black"/>
</g>
<defs>
<clipPath id="clip0_1354_3278">
<rect width="32" height="32" fill="white" transform="translate(19.6665 20)"/>
</clipPath>
</defs>
</svg>
