<svg width="72" height="72" viewBox="0 0 72 72" fill="none" xmlns="http://www.w3.org/2000/svg">
<rect width="72" height="72" rx="16" fill="white"/>
<g clip-path="url(#clip0_1354_3289)">
<path d="M36.3333 22.6667C43.6973 22.6667 49.6667 28.6361 49.6667 36.0001C49.6667 43.3641 43.6973 49.3334 36.3333 49.3334C28.9693 49.3334 23 43.3641 23 36.0001C23 28.6361 28.9693 22.6667 36.3333 22.6667ZM36.3333 41.3334C35.9797 41.3334 35.6406 41.4739 35.3905 41.7239C35.1405 41.974 35 42.3131 35 42.6667C35 43.0204 35.1405 43.3595 35.3905 43.6096C35.6406 43.8596 35.9797 44.0001 36.3333 44.0001C36.687 44.0001 37.0261 43.8596 37.2761 43.6096C37.5262 43.3595 37.6667 43.0204 37.6667 42.6667C37.6667 42.3131 37.5262 41.974 37.2761 41.7239C37.0261 41.4739 36.687 41.3334 36.3333 41.3334ZM36.3333 28.6667C35.0515 28.6667 33.8221 29.176 32.9157 30.0824C32.0092 30.9888 31.5 32.2182 31.5 33.5001C31.5 33.8537 31.6405 34.1928 31.8905 34.4429C32.1406 34.6929 32.4797 34.8334 32.8333 34.8334C33.187 34.8334 33.5261 34.6929 33.7761 34.4429C34.0262 34.1928 34.1667 33.8537 34.1667 33.5001C34.1671 33.1068 34.2746 32.721 34.4776 32.3842C34.6806 32.0473 34.9714 31.7721 35.3189 31.588C35.6665 31.4038 36.0575 31.3178 36.4503 31.339C36.843 31.3602 37.2225 31.4879 37.5481 31.7084C37.8738 31.929 38.1333 32.2339 38.2988 32.5907C38.4643 32.9475 38.5296 33.3426 38.4876 33.7336C38.4457 34.1246 38.2981 34.4969 38.0607 34.8104C37.8233 35.124 37.505 35.367 37.14 35.5134C36.2387 35.8734 35 36.7961 35 38.3334V38.6667C35 39.0204 35.1405 39.3595 35.3905 39.6096C35.6406 39.8596 35.9797 40.0001 36.3333 40.0001C36.687 40.0001 37.0261 39.8596 37.2761 39.6096C37.5262 39.3595 37.6667 39.0204 37.6667 38.6667C37.6667 38.3414 37.7333 38.1787 38.0147 38.0401L38.1307 37.9867C39.1717 37.5679 40.0347 36.8 40.5716 35.8146C41.1086 34.8293 41.286 33.6878 41.0735 32.5859C40.861 31.4841 40.2718 30.4904 39.407 29.7754C38.5421 29.0603 37.4555 28.6684 36.3333 28.6667Z" fill="black"/>
</g>
<defs>
<clipPath id="clip0_1354_3289">
<rect width="32" height="32" fill="white" transform="translate(20.3333 20)"/>
</clipPath>
</defs>
</svg>
