<svg width="20" height="20" viewBox="0 0 20 20" fill="none" xmlns="http://www.w3.org/2000/svg">
<path fill-rule="evenodd" clip-rule="evenodd" d="M8.97492 1.002C9.03346 1.26058 8.98692 1.53182 8.84553 1.7561C8.70414 1.98037 8.47947 2.13932 8.22092 2.198C8.02468 2.24258 7.83021 2.29462 7.63792 2.354C7.51244 2.39274 7.38056 2.40638 7.24981 2.39416C7.11906 2.38193 6.992 2.34407 6.87588 2.28274C6.75976 2.2214 6.65686 2.1378 6.57305 2.0367C6.48924 1.9356 6.42616 1.81898 6.38742 1.6935C6.34868 1.56802 6.33504 1.43614 6.34726 1.30539C6.35949 1.17464 6.39735 1.04757 6.45869 0.931455C6.52002 0.815335 6.60362 0.712433 6.70472 0.628624C6.80583 0.544814 6.92244 0.481739 7.04792 0.442999C7.28792 0.368999 7.53192 0.302999 7.77792 0.247999C7.90603 0.218866 8.03862 0.215262 8.16812 0.237392C8.29762 0.259523 8.42149 0.306954 8.53265 0.376976C8.64382 0.446998 8.74009 0.538238 8.81598 0.645482C8.89186 0.752726 8.94588 0.873873 8.97492 1.002ZM11.0249 1.002C11.0836 0.74345 11.2425 0.518784 11.4668 0.377393C11.6911 0.236002 11.9623 0.18946 12.2209 0.247999C16.6749 1.258 20.0009 5.24 20.0009 10C20.0009 15.523 15.5229 20 10.0009 20C5.23992 20 1.25792 16.675 0.247923 12.221C0.196081 11.965 0.246474 11.6988 0.388324 11.4795C0.530174 11.2602 0.75222 11.105 1.00697 11.0473C1.26172 10.9895 1.52896 11.0338 1.75152 11.1705C1.97408 11.3072 2.13431 11.5256 2.19792 11.779C2.51614 13.1728 3.20202 14.4558 4.18422 15.4946C5.16642 16.5334 6.40904 17.29 7.7828 17.6857C9.15656 18.0814 10.6113 18.1018 11.9956 17.7447C13.3799 17.3876 14.6432 16.666 15.6541 15.6552C16.665 14.6443 17.3865 13.3809 17.7436 11.9966C18.1007 10.6123 18.0804 9.15764 17.6846 7.78388C17.2889 6.41012 16.5323 5.1675 15.4935 4.1853C14.4547 3.2031 13.1717 2.51721 11.7779 2.199C11.5193 2.14011 11.2947 1.98092 11.1535 1.75644C11.0123 1.53196 10.9661 1.26058 11.0249 1.002ZM4.61392 2.72C4.70335 2.81629 4.77293 2.92926 4.81867 3.05246C4.86441 3.17566 4.88542 3.30666 4.8805 3.43798C4.87558 3.56931 4.84482 3.69837 4.78998 3.8178C4.73515 3.93723 4.65731 4.04467 4.56092 4.134C4.41292 4.27 4.27092 4.413 4.13392 4.56C3.95226 4.74902 3.70364 4.85914 3.44159 4.86666C3.17953 4.87418 2.92501 4.77848 2.73281 4.60018C2.54062 4.42189 2.42612 4.17524 2.41399 3.91336C2.40185 3.65148 2.49304 3.39531 2.66792 3.2C2.83792 3.016 3.01592 2.838 3.19992 2.667C3.29621 2.57757 3.40919 2.50799 3.53238 2.46225C3.65558 2.41651 3.78659 2.3955 3.91791 2.40042C4.04923 2.40534 4.1783 2.4361 4.29772 2.49094C4.41715 2.54577 4.5246 2.62361 4.61392 2.72ZM9.99992 4C10.2651 4 10.5195 4.10536 10.707 4.29289C10.8946 4.48043 10.9999 4.73478 10.9999 5V9.586L13.7069 12.293C13.8891 12.4816 13.9899 12.7342 13.9876 12.9964C13.9853 13.2586 13.8801 13.5094 13.6947 13.6948C13.5093 13.8802 13.2585 13.9854 12.9963 13.9877C12.7341 13.99 12.4815 13.8892 12.2929 13.707L9.29292 10.707C9.10537 10.5195 8.99998 10.2652 8.99992 10V5C8.99992 4.73478 9.10528 4.48043 9.29282 4.29289C9.48035 4.10536 9.73471 4 9.99992 4ZM1.69292 6.388C1.94631 6.46614 2.1583 6.64172 2.28225 6.87613C2.40621 7.11054 2.43199 7.38458 2.35392 7.638C2.29456 7.83029 2.24252 8.02476 2.19792 8.221C2.13431 8.47435 1.97408 8.69275 1.75152 8.82949C1.52896 8.96624 1.26172 9.01047 1.00697 8.95272C0.75222 8.89498 0.530174 8.73985 0.388324 8.5205C0.246474 8.30116 0.196081 8.03502 0.247923 7.779C0.303923 7.532 0.368923 7.289 0.442923 7.049C0.521062 6.79561 0.696643 6.58362 0.931053 6.45967C1.16546 6.33571 1.43951 6.30993 1.69292 6.388Z" fill="#CECECF"/>
</svg>
