<svg width="48" height="48" viewBox="0 0 48 48" fill="none" xmlns="http://www.w3.org/2000/svg">
<g clip-path="url(#clip0_1870_5793)">
<path d="M24 48C37.2548 48 48 37.2548 48 24C48 10.7452 37.2548 0 24 0C10.7452 0 0 10.7452 0 24C0 37.2548 10.7452 48 24 48Z" fill="black"/>
<path d="M29.1195 26.7035C29.1195 24 27.4903 23.0734 24.2319 22.6865C21.9052 22.3772 21.4406 21.7599 21.4406 20.678C21.4406 19.5961 22.217 18.9012 23.7673 18.9012C25.1636 18.9012 25.94 19.3645 26.3269 20.524C26.3672 20.6361 26.4409 20.7332 26.5381 20.8021C26.6353 20.8711 26.7513 20.9086 26.8704 20.9096H28.1114C28.1831 20.9116 28.2544 20.8989 28.321 20.8724C28.3877 20.8459 28.4482 20.8062 28.499 20.7556C28.5499 20.705 28.5899 20.6447 28.6167 20.5782C28.6435 20.5116 28.6565 20.4404 28.6549 20.3687V20.2923C28.5032 19.4534 28.0787 18.6881 27.4474 18.1152C26.8161 17.5423 26.0132 17.194 25.1636 17.1243V15.2711C25.1636 14.9618 24.9306 14.7302 24.5437 14.6525H23.3791C23.0698 14.6525 22.8369 14.8842 22.7592 15.2711V17.0479C20.4313 17.356 18.9586 18.9012 18.9586 20.8333C18.9586 23.3814 20.5089 24.3857 23.7673 24.7726C25.94 25.1583 26.6375 25.6228 26.6375 26.8587C26.6375 28.0934 25.5518 28.9436 24.0779 28.9436C22.0605 28.9436 21.363 28.0946 21.13 26.9351C21.0537 26.6271 20.8195 26.4718 20.5866 26.4718H19.2679C19.1964 26.4701 19.1252 26.4829 19.0587 26.5094C18.9922 26.536 18.9318 26.5757 18.8811 26.6263C18.8304 26.6769 18.7905 26.7372 18.7638 26.8036C18.7371 26.87 18.7241 26.9412 18.7257 27.0128V27.0891C19.035 29.0212 20.2773 30.4111 22.8369 30.7981V32.6526C22.8369 32.9606 23.0698 33.1935 23.4567 33.2699H24.6214C24.9306 33.2699 25.1636 33.0382 25.2412 32.6526V30.7968C27.5692 30.4111 29.1195 28.7883 29.1195 26.7022V26.7035Z" fill="white"/>
<path d="M20.0441 34.815C13.9932 32.6512 10.8901 25.9308 13.1404 19.983C14.3038 16.7373 16.8634 14.2668 20.0441 13.1073C20.3547 12.9533 20.5087 12.7216 20.5087 12.3347V11.2528C20.5087 10.9448 20.3547 10.7131 20.0441 10.6355C19.9665 10.6355 19.8112 10.6355 19.7335 10.7119C17.9878 11.257 16.3671 12.1422 14.9649 13.3162C13.5626 14.4903 12.4064 15.9302 11.5629 17.553C10.7195 19.1757 10.2053 20.9493 10.05 22.7716C9.89481 24.5939 10.1016 26.4289 10.6584 28.171C12.0534 32.4985 15.3895 35.8205 19.7335 37.2104C20.0441 37.3644 20.3547 37.2104 20.431 36.9011C20.5087 36.8248 20.5087 36.7459 20.5087 36.5919V35.51C20.5087 35.2783 20.277 34.9703 20.0441 34.815ZM28.2664 10.7131C27.9559 10.5579 27.6453 10.7131 27.569 11.0212C27.4913 11.0988 27.4913 11.1764 27.4913 11.3305V12.4123C27.4913 12.7216 27.723 13.0296 27.9559 13.1849C34.0068 15.3487 37.1099 22.0691 34.8596 28.017C33.6962 31.2626 31.1366 33.7331 27.9559 34.8927C27.6453 35.0467 27.4913 35.2783 27.4913 35.6652V36.7471C27.4913 37.0552 27.6453 37.2868 27.9559 37.3644C28.0335 37.3644 28.1888 37.3644 28.2664 37.2881C30.0122 36.7429 31.6329 35.8578 33.0351 34.6837C34.4374 33.5096 35.5935 32.0697 36.437 30.447C37.2805 28.8242 37.7947 27.0506 37.95 25.2283C38.1052 23.406 37.8984 21.571 37.3416 19.829C35.9466 15.4251 32.5329 12.103 28.2664 10.7131Z" fill="white"/>
</g>
<defs>
<clipPath id="clip0_1870_5793">
<rect width="48" height="48" fill="white"/>
</clipPath>
</defs>
</svg>
