<svg width="48" height="48" viewBox="0 0 48 48" fill="none" xmlns="http://www.w3.org/2000/svg">
<rect width="48" height="48" rx="24" fill="black"/>
<g clip-path="url(#clip0_1848_6033)">
<path d="M29.4205 15C29.773 15.0001 30.1192 15.0934 30.4241 15.2704C30.7289 15.4474 30.9816 15.7019 31.1565 16.008L34.4905 21.84C34.7081 22.2209 34.7944 22.6627 34.7362 23.0974C34.678 23.5322 34.4785 23.9358 34.1685 24.246L24.8855 33.529C24.7694 33.6451 24.6316 33.7372 24.4799 33.8001C24.3282 33.8629 24.1656 33.8952 24.0015 33.8952C23.8373 33.8952 23.6747 33.8629 23.523 33.8001C23.3714 33.7372 23.2335 33.6451 23.1175 33.529L13.8345 24.246C13.5244 23.9358 13.3249 23.5322 13.2667 23.0974C13.2085 22.6627 13.2949 22.2209 13.5125 21.84L16.8455 16.007C17.0204 15.7012 17.2729 15.4471 17.5776 15.2702C17.8822 15.0934 18.2282 15.0002 18.5805 15H29.4205ZM27.0005 18H21.0005C20.7456 18.0003 20.5004 18.0979 20.3151 18.2728C20.1298 18.4478 20.0182 18.687 20.0033 18.9414C19.9884 19.1958 20.0711 19.4464 20.2347 19.6418C20.3983 19.8373 20.6304 19.9629 20.8835 19.993L21.0005 20H23.0005V21.545C22.2425 21.615 21.5535 21.762 20.9965 21.971C20.6015 22.119 20.2475 22.307 19.9835 22.542C19.7195 22.776 19.5005 23.099 19.5005 23.5C19.5005 23.901 19.7195 24.224 19.9835 24.458C20.2475 24.693 20.6015 24.881 20.9965 25.028C21.5905 25.251 22.3345 25.405 23.1535 25.468C23.0743 25.594 23.0244 25.7362 23.0075 25.884L23.0005 26V28C23.0007 28.2549 23.0983 28.5 23.2733 28.6854C23.4483 28.8707 23.6874 28.9822 23.9419 28.9972C24.1963 29.0121 24.4468 28.9293 24.6423 28.7657C24.8377 28.6021 24.9634 28.3701 24.9935 28.117L25.0005 28V26C25.0008 25.8118 24.9478 25.6273 24.8475 25.468C25.6665 25.405 26.4105 25.252 27.0045 25.028C27.3995 24.881 27.7535 24.693 28.0175 24.458C28.2815 24.224 28.5005 23.901 28.5005 23.5C28.5005 23.099 28.2815 22.776 28.0175 22.542C27.7535 22.307 27.3995 22.119 27.0045 21.972C26.4605 21.7769 25.8957 21.6453 25.3215 21.58L25.0005 21.545V20H27.0005C27.2553 19.9997 27.5005 19.9021 27.6858 19.7272C27.8712 19.5522 27.9827 19.313 27.9976 19.0586C28.0126 18.8042 27.9298 18.5536 27.7662 18.3582C27.6026 18.1627 27.3706 18.0371 27.1175 18.007L27.0005 18ZM24.9995 22.55C25.5635 22.5996 26.1192 22.7195 26.6535 22.907C26.9825 23.031 27.2135 23.166 27.3535 23.29C27.4142 23.3367 27.4624 23.3979 27.4935 23.468L27.5005 23.5L27.4935 23.532C27.4624 23.6021 27.4142 23.6633 27.3535 23.71C27.2135 23.834 26.9825 23.97 26.6535 24.092C25.9985 24.338 25.0605 24.5 24.0005 24.5C22.9405 24.5 22.0025 24.338 21.3475 24.092C21.0185 23.969 20.7875 23.834 20.6465 23.71C20.5857 23.6633 20.5376 23.6021 20.5065 23.532L20.5005 23.5C20.5005 23.487 20.5055 23.415 20.6465 23.29C20.7865 23.166 21.0185 23.03 21.3475 22.908C21.7875 22.743 22.3545 22.615 23.0015 22.55C23.013 22.8072 23.1233 23.0501 23.3093 23.228C23.4954 23.406 23.743 23.5053 24.0005 23.5053C24.2579 23.5053 24.5055 23.406 24.6916 23.228C24.8777 23.0501 24.9879 22.8072 24.9995 22.55Z" fill="white"/>
</g>
<defs>
<clipPath id="clip0_1848_6033">
<rect width="24" height="24" fill="white" transform="translate(12 12)"/>
</clipPath>
</defs>
</svg>
