<svg width="48" height="48" viewBox="0 0 48 48" fill="none" xmlns="http://www.w3.org/2000/svg">
<rect width="48" height="48" rx="24" fill="#009393"/>
<g clip-path="url(#clip0_359_1198)">
<path d="M29.42 15C29.7725 15.0001 30.1187 15.0934 30.4236 15.2704C30.7285 15.4474 30.9811 15.7019 31.156 16.008L34.49 21.84C34.7076 22.2209 34.7939 22.6627 34.7357 23.0974C34.6775 23.5322 34.4781 23.9358 34.168 24.246L24.885 33.529C24.7689 33.6451 24.6311 33.7372 24.4794 33.8001C24.3277 33.8629 24.1652 33.8952 24.001 33.8952C23.8368 33.8952 23.6742 33.8629 23.5225 33.8001C23.3709 33.7372 23.233 33.6451 23.117 33.529L13.834 24.246C13.5239 23.9358 13.3244 23.5322 13.2662 23.0974C13.208 22.6627 13.2944 22.2209 13.512 21.84L16.845 16.007C17.0199 15.7012 17.2724 15.4471 17.5771 15.2702C17.8818 15.0934 18.2277 15.0002 18.58 15H29.42ZM27 18H21C20.7451 18.0003 20.4999 18.0979 20.3146 18.2728C20.1293 18.4478 20.0177 18.687 20.0028 18.9414C19.9879 19.1958 20.0706 19.4464 20.2342 19.6418C20.3978 19.8373 20.6299 19.9629 20.883 19.993L21 20H23V21.545C22.242 21.615 21.553 21.762 20.996 21.971C20.601 22.119 20.247 22.307 19.983 22.542C19.719 22.776 19.5 23.099 19.5 23.5C19.5 23.901 19.719 24.224 19.983 24.458C20.247 24.693 20.601 24.881 20.996 25.028C21.59 25.251 22.334 25.405 23.153 25.468C23.0738 25.594 23.0239 25.7362 23.007 25.884L23 26V28C23.0003 28.2549 23.0979 28.5 23.2728 28.6854C23.4478 28.8707 23.6869 28.9822 23.9414 28.9972C24.1958 29.0121 24.4464 28.9293 24.6418 28.7657C24.8373 28.6021 24.9629 28.3701 24.993 28.117L25 28V26C25.0003 25.8118 24.9473 25.6273 24.847 25.468C25.666 25.405 26.41 25.252 27.004 25.028C27.399 24.881 27.753 24.693 28.017 24.458C28.281 24.224 28.5 23.901 28.5 23.5C28.5 23.099 28.281 22.776 28.017 22.542C27.753 22.307 27.399 22.119 27.004 21.972C26.46 21.7769 25.8952 21.6453 25.321 21.58L25 21.545V20H27C27.2549 19.9997 27.5 19.9021 27.6853 19.7272C27.8707 19.5522 27.9822 19.313 27.9971 19.0586C28.0121 18.8042 27.9293 18.5536 27.7657 18.3582C27.6021 18.1627 27.3701 18.0371 27.117 18.007L27 18ZM24.999 22.55C25.563 22.5996 26.1187 22.7195 26.653 22.907C26.982 23.031 27.213 23.166 27.353 23.29C27.4137 23.3367 27.4619 23.3979 27.493 23.468L27.5 23.5L27.493 23.532C27.4619 23.6021 27.4137 23.6633 27.353 23.71C27.213 23.834 26.982 23.97 26.653 24.092C25.998 24.338 25.06 24.5 24 24.5C22.94 24.5 22.002 24.338 21.347 24.092C21.018 23.969 20.787 23.834 20.646 23.71C20.5852 23.6633 20.5371 23.6021 20.506 23.532L20.5 23.5C20.5 23.487 20.505 23.415 20.646 23.29C20.786 23.166 21.018 23.03 21.347 22.908C21.787 22.743 22.354 22.615 23.001 22.55C23.0125 22.8072 23.1228 23.0501 23.3089 23.228C23.4949 23.406 23.7425 23.5053 24 23.5053C24.2574 23.5053 24.505 23.406 24.6911 23.228C24.8772 23.0501 24.9875 22.8072 24.999 22.55Z" fill="white"/>
</g>
<defs>
<clipPath id="clip0_359_1198">
<rect width="24" height="24" fill="white" transform="translate(12 12)"/>
</clipPath>
</defs>
</svg>
