<svg width="20" height="20" viewBox="0 0 20 20" fill="none" xmlns="http://www.w3.org/2000/svg">
<path fill-rule="evenodd" clip-rule="evenodd" d="M15.8333 4.15751V5.00001C16.2754 5.00001 16.6993 5.17561 17.0118 5.48817C17.3244 5.80073 17.5 6.22465 17.5 6.66668V15C17.5 15.442 17.3244 15.866 17.0118 16.1785C16.6993 16.4911 16.2754 16.6667 15.8333 16.6667H4.16667C3.72464 16.6667 3.30072 16.4911 2.98816 16.1785C2.67559 15.866 2.5 15.442 2.5 15V6.66668C2.5 5.79585 3.19583 5.00585 4.01083 4.77335L13.1775 2.15418C13.4876 2.06556 13.814 2.05013 14.131 2.10912C14.4481 2.1681 14.7471 2.29989 15.0046 2.49409C15.262 2.6883 15.4709 2.93962 15.6147 3.22827C15.7585 3.51692 15.8334 3.83502 15.8333 4.15751ZM12.9167 9.58335C12.5851 9.58335 12.2672 9.71504 12.0328 9.94946C11.7984 10.1839 11.6667 10.5018 11.6667 10.8333C11.6667 11.1649 11.7984 11.4828 12.0328 11.7172C12.2672 11.9517 12.5851 12.0833 12.9167 12.0833C13.2482 12.0833 13.5661 11.9517 13.8005 11.7172C14.035 11.4828 14.1667 11.1649 14.1667 10.8333C14.1667 10.5018 14.035 10.1839 13.8005 9.94946C13.5661 9.71504 13.2482 9.58335 12.9167 9.58335ZM14.1667 4.15751C14.1667 4.09869 14.1543 4.04052 14.1302 3.98684C14.1062 3.93316 14.0711 3.88518 14.0271 3.84606C13.9832 3.80693 13.9315 3.77755 13.8754 3.75985C13.8193 3.74215 13.7601 3.73652 13.7017 3.74335L13.635 3.75668L9.28333 5.00001H14.1667V4.15751Z" fill="#7C7B85"/>
</svg>
