<svg width="28" height="28" viewBox="0 0 28 28" fill="none" xmlns="http://www.w3.org/2000/svg">
<path d="M14 0.666672C21.364 0.666672 27.3333 6.636 27.3333 14C27.3333 21.364 21.364 27.3333 14 27.3333C6.63596 27.3333 0.666626 21.364 0.666626 14C0.666626 6.636 6.63596 0.666672 14 0.666672ZM14 18C13.6463 18 13.3072 18.1405 13.0571 18.3905C12.8071 18.6406 12.6666 18.9797 12.6666 19.3333C12.6666 19.687 12.8071 20.0261 13.0571 20.2761C13.3072 20.5262 13.6463 20.6667 14 20.6667C14.3536 20.6667 14.6927 20.5262 14.9428 20.2761C15.1928 20.0261 15.3333 19.687 15.3333 19.3333C15.3333 18.9797 15.1928 18.6406 14.9428 18.3905C14.6927 18.1405 14.3536 18 14 18ZM14 6C13.6734 6.00005 13.3582 6.11995 13.1141 6.33696C12.8701 6.55397 12.7142 6.853 12.676 7.17734L12.6666 7.33334V15.3333C12.667 15.6732 12.7971 16 13.0304 16.2472C13.2637 16.4943 13.5826 16.643 13.9218 16.6629C14.2611 16.6828 14.5951 16.5724 14.8557 16.3543C15.1163 16.1362 15.2838 15.8268 15.324 15.4893L15.3333 15.3333V7.33334C15.3333 6.97972 15.1928 6.64058 14.9428 6.39053C14.6927 6.14048 14.3536 6 14 6Z" fill="#3F90F2"/>
</svg>
