<svg width="24" height="24" viewBox="0 0 24 24" fill="none" xmlns="http://www.w3.org/2000/svg">
<g clip-path="url(#clip0_1808_9329)">
<path fill-rule="evenodd" clip-rule="evenodd" d="M12.1073 2.50211L11.732 2.50001L7.18505 2.5C6.32297 2.50012 5.62415 3.19895 5.62402 4.06102V19.3883C5.62402 20.2508 6.32317 20.9499 7.18505 20.9501L11.809 20.9501L12.1809 20.9452C13.9508 20.9011 15.4632 20.5281 16.7379 19.8492L16.7463 19.845C18.0957 19.1178 18.9119 18.1447 19.6523 16.7944L19.6572 16.7853L19.6621 16.7769L19.6705 16.7622L19.6733 16.7566C20.4049 15.3987 20.7868 13.75 20.7868 11.7843C20.7868 9.93268 20.4448 8.36481 19.7903 7.06197L19.6523 6.80005L19.5025 6.53462L19.3631 6.30632C18.6479 5.18327 17.9172 4.24862 16.7162 3.61353C16.7092 3.60986 16.7023 3.60573 16.6977 3.60298L16.6966 3.60232L16.4598 3.48047L16.2273 3.37052C15.0514 2.83672 13.6818 2.54111 12.1073 2.50211ZM14.2328 17.3014C14.2363 17.3013 14.2408 17.3008 14.2461 17.3005L14.2328 17.3014ZM14.2433 17.3007C14.2362 17.301 14.2299 17.3014 14.2251 17.3014H14.2328M8.85362 15.026V8.26859V6.64867C8.85362 6.09639 9.30134 5.64867 9.85362 5.64867H11.4735C12.5702 5.64867 13.5436 5.81442 14.3687 6.17812L14.375 6.18092L14.3953 6.19002L14.4023 6.19282L14.4135 6.19843L14.5052 6.24115L14.5087 6.24325L14.5199 6.24885L14.5368 6.25655L14.5424 6.25865L14.5473 6.26076C15.3407 6.65475 15.9375 7.28749 16.3436 8.11241L16.3471 8.11872L16.3485 8.12152L16.3559 8.13491C16.3561 8.13531 16.3562 8.13577 16.3562 8.13623C16.3562 8.13669 16.3563 8.13714 16.3565 8.13754L16.3646 8.15233L16.3723 8.16634L16.3793 8.18105L16.3863 8.19715L16.3877 8.20066L16.3933 8.21326L16.3947 8.21676L16.4718 8.39044C16.8435 9.27498 17.0068 10.4013 17.0068 11.7247C17.0068 13.1577 16.8198 14.3617 16.3856 15.276L16.3821 15.2823L16.373 15.3005L16.3674 15.3111L16.3646 15.3167L16.3611 15.323C15.9489 16.1806 15.3371 16.8257 14.525 17.2185C14.5198 17.221 14.5147 17.2239 14.51 17.2271C14.5045 17.2309 14.4987 17.2341 14.4927 17.2369L14.4786 17.2432L14.4408 17.2622C13.6316 17.6323 12.6858 17.8014 11.629 17.8014H9.85362C9.30134 17.8014 8.85362 17.3537 8.85362 16.8014V15.026ZM14.3295 6.16551L14.3274 6.16481L14.3246 6.16411L14.3295 6.16551Z" fill="#9A57E0"/>
<line x1="4.24579" y1="10.0018" x2="21.9311" y2="10.0018" stroke="#9A57E0" stroke-width="2.86853" stroke-linecap="round"/>
<line x1="4.24579" y1="13.5877" x2="21.9303" y2="13.5877" stroke="#9A57E0" stroke-width="2.86853" stroke-linecap="round"/>
</g>
<defs>
<clipPath id="clip0_1808_9329">
<rect width="24" height="24" fill="white"/>
</clipPath>
</defs>
</svg>
