<svg width="24" height="24" viewBox="0 0 24 24" fill="none" xmlns="http://www.w3.org/2000/svg">
<g clip-path="url(#clip0_1802_10191)">
<path d="M12.0003 2C12.1649 1.99998 12.3269 2.04058 12.472 2.11821C12.6172 2.19583 12.7409 2.30808 12.8323 2.445L18.6363 11.152L13.4093 13.33L12.1993 4.453C12.1673 4.223 11.8333 4.223 11.8023 4.453L10.5923 13.33L5.36426 11.152L11.1683 2.445C11.2596 2.30808 11.3833 2.19583 11.5285 2.11821C11.6736 2.04058 11.8357 1.99998 12.0003 2ZM12.3853 15.923L18.2033 13.499L12.8333 21.555C12.742 21.6922 12.6182 21.8047 12.473 21.8825C12.3277 21.9603 12.1655 22.001 12.0008 22.001C11.836 22.001 11.6738 21.9603 11.5285 21.8825C11.3833 21.8047 11.2595 21.6922 11.1683 21.555L5.79826 13.499L11.6153 15.923C11.7372 15.9739 11.8681 16.0001 12.0003 16.0001C12.1324 16.0001 12.2633 15.9739 12.3853 15.923Z" fill="#9A57E0"/>
</g>
<defs>
<clipPath id="clip0_1802_10191">
<rect width="24" height="24" fill="white"/>
</clipPath>
</defs>
</svg>
