<svg width="24" height="24" viewBox="0 0 24 24" fill="none" xmlns="http://www.w3.org/2000/svg">
<g clip-path="url(#clip0_1808_9337)">
<path fill-rule="evenodd" clip-rule="evenodd" d="M3.07422 11.7129C3.07422 11.262 3.26014 10.8296 3.59107 10.5108C3.92201 10.1921 4.37085 10.013 4.83886 10.013H6.59998L6.60351 7.63988C6.60239 6.35463 7.02091 5.10158 7.79983 4.05809C8.57875 3.01459 9.67862 2.23351 10.9438 1.82538C12.2089 1.41726 13.5753 1.40276 14.8495 1.78394C16.1236 2.16512 17.2411 2.92268 18.0437 3.94939L18.6595 4.81974C18.9113 5.18056 19.01 5.62059 18.9353 6.04935C18.8606 6.47811 18.6183 6.86301 18.258 7.12491C17.8978 7.38681 17.4471 7.50579 16.9986 7.4574C16.5501 7.409 16.1379 7.19691 15.8467 6.86473C15.1285 5.85668 14.3785 4.91323 12.965 4.91323C11.3698 4.91323 10.2016 6.15927 10.1328 7.63988V10.013H13.6621C14.1301 10.013 14.5789 10.1921 14.9099 10.5108C15.2408 10.8296 15.4267 11.262 15.4267 11.7129C15.4267 12.1637 15.2408 12.5961 14.9099 12.9149C14.5789 13.2337 14.1301 13.4128 13.6621 13.4128H10.1328V16.8126C10.1328 17.2614 10.0922 17.7084 9.99515 18.147C10.8369 18.215 11.6486 18.3646 12.4551 18.5992C13.8227 19.0395 15.2573 18.9222 16.6337 18.5992C16.8537 18.5286 17.0858 18.5005 17.317 18.5164C17.5482 18.5323 17.7739 18.5919 17.9812 18.6918C18.1885 18.7918 18.3733 18.93 18.5251 19.0988C18.677 19.2675 18.7928 19.4634 18.866 19.6752C18.9392 19.8871 18.9684 20.1107 18.9519 20.3335C18.9354 20.5562 18.8735 20.7736 18.7698 20.9733C18.6661 21.1729 18.5226 21.351 18.3474 21.4972C18.1722 21.6435 17.9689 21.7551 17.749 21.8256C15.6385 22.3628 13.445 22.5005 11.3398 21.8256C9.97221 21.3853 8.53579 21.5026 7.16113 21.8256C5.08238 22.492 3.88066 19.7449 5.81471 18.6927C6.17999 18.4938 6.54174 17.7883 6.59115 17.1084L6.59645 13.4128H4.83886C4.37085 13.4128 3.92201 13.2337 3.59107 12.9149C3.26014 12.5961 3.07422 12.1637 3.07422 11.7129Z" fill="#EFBA29"/>
</g>
<defs>
<clipPath id="clip0_1808_9337">
<rect width="24" height="24" fill="white"/>
</clipPath>
</defs>
</svg>
