<svg width="24" height="24" viewBox="0 0 24 24" fill="none" xmlns="http://www.w3.org/2000/svg">
<path d="M16.3885 14.3172C16.3885 11.9999 14.9921 11.2057 12.1992 10.874C10.2049 10.6089 9.80666 10.0798 9.80666 9.15248C9.80666 8.22515 10.4722 7.62948 11.801 7.62948C12.9978 7.62948 13.6633 8.02659 13.9949 9.02047C14.0295 9.11658 14.0927 9.19978 14.1759 9.25889C14.2592 9.31799 14.3586 9.35015 14.4608 9.35104H15.5245C15.5859 9.35268 15.647 9.34182 15.7042 9.31913C15.7613 9.29644 15.8132 9.26238 15.8567 9.21902C15.9003 9.17567 15.9346 9.12391 15.9576 9.06691C15.9805 9.0099 15.9917 8.94882 15.9903 8.88737V8.82191C15.8603 8.10285 15.4965 7.44685 14.9553 6.95581C14.4142 6.46478 13.726 6.1662 12.9978 6.10647V4.51801C12.9978 4.2529 12.7981 4.05434 12.4665 3.98779H11.4682C11.2031 3.98779 11.0035 4.18635 10.9369 4.51801V6.04101C8.94151 6.30503 7.67925 7.62948 7.67925 9.28558C7.67925 11.4697 9.00806 12.3305 11.801 12.6622C13.6633 12.9927 14.2611 13.3909 14.2611 14.4503C14.2611 15.5085 13.3305 16.2373 12.0672 16.2373C10.338 16.2373 9.74011 15.5096 9.54046 14.5157C9.475 14.2517 9.27426 14.1186 9.07461 14.1186H7.94436C7.88301 14.1171 7.822 14.1281 7.76501 14.1508C7.70802 14.1736 7.65624 14.2077 7.6128 14.251C7.56936 14.2944 7.53515 14.3461 7.51226 14.403C7.48937 14.4599 7.47826 14.5209 7.4796 14.5823V14.6477C7.74471 16.3038 8.8095 17.4952 11.0035 17.8268V19.4164C11.0035 19.6804 11.2031 19.8801 11.5348 19.9455H12.533C12.7981 19.9455 12.9978 19.747 13.0643 19.4164V17.8257C15.0597 17.4952 16.3885 16.1042 16.3885 14.3161V14.3172Z" fill="#3E73C4"/>
<path d="M8.60924 21.2702C3.42273 19.4156 0.762931 13.6552 2.69178 8.55706C3.68893 5.77507 5.88289 3.65748 8.60924 2.6636C8.87544 2.53159 9.00745 2.33303 9.00745 2.00138V1.07405C9.00745 0.81003 8.87544 0.611471 8.60924 0.544922C8.54269 0.544922 8.40959 0.544922 8.34304 0.61038C6.84669 1.07767 5.45755 1.83634 4.25561 2.84271C3.05367 3.84908 2.06267 5.08326 1.33967 6.47419C0.616672 7.86513 0.175954 9.38535 0.0428955 10.9473C-0.0901635 12.5093 0.0870642 14.0821 0.564373 15.5753C1.76008 19.2846 4.61954 22.1321 8.34304 23.3234C8.60924 23.4554 8.87544 23.3234 8.9409 23.0583C9.00745 22.9929 9.00745 22.9252 9.00745 22.7932V21.8659C9.00745 21.6673 8.80889 21.4033 8.60924 21.2702ZM15.657 0.611471C15.3908 0.478372 15.1246 0.611471 15.0591 0.875488C14.9926 0.942038 14.9925 1.00859 14.9925 1.1406V2.06793C14.9925 2.33303 15.1911 2.59705 15.3908 2.73015C20.5773 4.58481 23.2371 10.3452 21.3082 15.4433C20.3111 18.2253 18.1171 20.3429 15.3908 21.3368C15.1246 21.4688 14.9925 21.6673 14.9925 21.999V22.9263C14.9925 23.1903 15.1246 23.3889 15.3908 23.4554C15.4573 23.4554 15.5904 23.4554 15.657 23.39C17.1533 22.9227 18.5424 22.164 19.7444 21.1577C20.9463 20.1513 21.9373 18.9171 22.6603 17.5262C23.3833 16.1352 23.824 14.615 23.9571 13.0531C24.0902 11.4911 23.9129 9.91824 23.4356 8.42505C22.2399 4.65027 19.3139 1.80282 15.657 0.611471Z" fill="#3E73C4"/>
</svg>
