<svg width="24" height="24" viewBox="0 0 24 24" fill="none" xmlns="http://www.w3.org/2000/svg">
<g clip-path="url(#clip0_1802_10243)">
<path d="M17.4205 3C17.773 3.00011 18.1192 3.09341 18.4241 3.27042C18.7289 3.44744 18.9816 3.70189 19.1565 4.008L22.4905 9.84C22.7081 10.2209 22.7944 10.6627 22.7362 11.0974C22.678 11.5322 22.4785 11.9358 22.1685 12.246L12.8855 21.529C12.7694 21.6451 12.6316 21.7372 12.4799 21.8001C12.3282 21.8629 12.1656 21.8952 12.0015 21.8952C11.8373 21.8952 11.6747 21.8629 11.523 21.8001C11.3714 21.7372 11.2335 21.6451 11.1175 21.529L1.83446 12.246C1.52438 11.9358 1.32488 11.5322 1.2667 11.0974C1.20852 10.6627 1.29487 10.2209 1.51246 9.84L4.84546 4.007C5.02036 3.70123 5.27291 3.44707 5.57758 3.27024C5.88224 3.09341 6.2282 3.00019 6.58046 3H17.4205ZM15.0005 6H9.00046C8.74558 6.00028 8.50043 6.09788 8.31509 6.27285C8.12976 6.44782 8.01823 6.68695 8.00329 6.94139C7.98835 7.19584 8.07113 7.44638 8.23472 7.64183C8.39832 7.83729 8.63037 7.9629 8.88346 7.993L9.00046 8H11.0005V9.545C10.2425 9.615 9.55346 9.762 8.99646 9.971C8.60146 10.119 8.24746 10.307 7.98346 10.542C7.71946 10.776 7.50046 11.099 7.50046 11.5C7.50046 11.901 7.71946 12.224 7.98346 12.458C8.24746 12.693 8.60146 12.881 8.99646 13.028C9.59046 13.251 10.3345 13.405 11.1535 13.468C11.0743 13.594 11.0244 13.7362 11.0075 13.884L11.0005 14V16C11.0007 16.2549 11.0983 16.5 11.2733 16.6854C11.4483 16.8707 11.6874 16.9822 11.9419 16.9972C12.1963 17.0121 12.4468 16.9293 12.6423 16.7657C12.8377 16.6021 12.9634 16.3701 12.9935 16.117L13.0005 16V14C13.0008 13.8118 12.9478 13.6273 12.8475 13.468C13.6665 13.405 14.4105 13.252 15.0045 13.028C15.3995 12.881 15.7535 12.693 16.0175 12.458C16.2815 12.224 16.5005 11.901 16.5005 11.5C16.5005 11.099 16.2815 10.776 16.0175 10.542C15.7535 10.307 15.3995 10.119 15.0045 9.972C14.4605 9.77687 13.8957 9.64533 13.3215 9.58L13.0005 9.545V8H15.0005C15.2553 7.99972 15.5005 7.90212 15.6858 7.72715C15.8712 7.55218 15.9827 7.31305 15.9976 7.05861C16.0126 6.80416 15.9298 6.55362 15.7662 6.35817C15.6026 6.16271 15.3706 6.0371 15.1175 6.007L15.0005 6ZM12.9995 10.55C13.5635 10.5996 14.1192 10.7195 14.6535 10.907C14.9825 11.031 15.2135 11.166 15.3535 11.29C15.4142 11.3367 15.4624 11.3979 15.4935 11.468L15.5005 11.5L15.4935 11.532C15.4624 11.6021 15.4142 11.6633 15.3535 11.71C15.2135 11.834 14.9825 11.97 14.6535 12.092C13.9985 12.338 13.0605 12.5 12.0005 12.5C10.9405 12.5 10.0025 12.338 9.34746 12.092C9.01846 11.969 8.78746 11.834 8.64646 11.71C8.58569 11.6633 8.53756 11.6021 8.50646 11.532L8.50046 11.5C8.50046 11.487 8.50546 11.415 8.64646 11.29C8.78646 11.166 9.01846 11.03 9.34746 10.908C9.78746 10.743 10.3545 10.615 11.0015 10.55C11.013 10.8072 11.1233 11.0501 11.3093 11.228C11.4954 11.406 11.743 11.5053 12.0005 11.5053C12.2579 11.5053 12.5055 11.406 12.6916 11.228C12.8777 11.0501 12.9879 10.8072 12.9995 10.55Z" fill="#009393"/>
</g>
<defs>
<clipPath id="clip0_1802_10243">
<rect width="24" height="24" fill="white"/>
</clipPath>
</defs>
</svg>
