<svg width="151" height="23" viewBox="0 0 151 23" fill="none" xmlns="http://www.w3.org/2000/svg">
<path d="M15.4569 14.0115C15.4569 15.3586 15.2209 16.5385 14.749 17.5513C14.2868 18.5542 13.6477 19.39 12.8316 20.0586C12.0253 20.7272 11.0765 21.2287 9.98506 21.563C8.90346 21.8973 7.7383 22.0645 6.48955 22.0645C6.00775 22.0645 5.47679 22.0006 4.89666 21.8727C4.32637 21.7449 3.74624 21.5876 3.15628 21.4008C2.56632 21.2041 1.99603 20.9976 1.4454 20.7813C0.904604 20.5552 0.422804 20.3438 0 20.1471L0.648955 14.0705C1.48473 14.572 2.409 14.9555 3.42176 15.2209C4.44436 15.4766 5.44729 15.6044 6.43055 15.6044C6.61737 15.6044 6.84352 15.5995 7.10901 15.5897C7.37449 15.57 7.62522 15.5258 7.8612 15.4569C8.10702 15.3783 8.31351 15.2652 8.48066 15.1177C8.64782 14.9702 8.73139 14.7588 8.73139 14.4835C8.73139 14.2967 8.6724 14.1393 8.55441 14.0115C8.43641 13.8739 8.28401 13.7657 8.09719 13.687C7.91037 13.5986 7.69896 13.5346 7.46298 13.4953C7.227 13.4461 6.99593 13.4117 6.76978 13.3921C6.54363 13.3724 6.33223 13.3626 6.13557 13.3626C5.93892 13.3626 5.7816 13.3626 5.66361 13.3626C4.818 13.3626 4.04614 13.2151 3.34802 12.9201C2.65973 12.6251 2.06486 12.2171 1.56339 11.6959C1.07176 11.165 0.688285 10.5406 0.412971 9.82282C0.137657 9.0952 0 8.30859 0 7.46298C0 6.30273 0.231067 5.26538 0.693202 4.35095C1.16517 3.42668 1.78954 2.64498 2.56632 2.00586C3.35293 1.35691 4.25262 0.860357 5.26538 0.516214C6.27815 0.172071 7.32532 0 8.40692 0C8.88872 0 9.38526 0.0196653 9.89656 0.0589959C10.4079 0.0884938 10.9142 0.14749 11.4157 0.235984C11.927 0.324477 12.4236 0.437553 12.9054 0.57521C13.3872 0.712867 13.8444 0.884938 14.277 1.09142L13.7165 7.07951C13.0479 6.85336 12.3449 6.66654 11.6074 6.51905C10.8798 6.36172 10.167 6.28306 9.46884 6.28306C9.34102 6.28306 9.17386 6.28798 8.96738 6.29781C8.77072 6.29781 8.55932 6.31256 8.33317 6.34206C8.11685 6.36172 7.89562 6.39614 7.66947 6.4453C7.44332 6.49446 7.24175 6.56329 7.06476 6.65179C6.88777 6.73045 6.7452 6.83861 6.63704 6.97626C6.52888 7.11392 6.47972 7.27616 6.48955 7.46298C6.49938 7.6793 6.57804 7.85629 6.72553 7.99394C6.88285 8.12177 7.07951 8.22501 7.31549 8.30367C7.56131 8.3725 7.82679 8.42166 8.11194 8.45116C8.40691 8.48066 8.69698 8.50033 8.98213 8.51016C9.26727 8.51016 9.53275 8.51016 9.77857 8.51016C10.0244 8.50033 10.226 8.50524 10.3833 8.52491C11.1699 8.57407 11.8778 8.74123 12.5071 9.02637C13.1364 9.31152 13.6674 9.69008 14.1 10.162C14.5425 10.634 14.8768 11.1994 15.1029 11.8582C15.3389 12.5071 15.4569 13.2249 15.4569 14.0115Z" fill="white"/>
<path d="M34.0406 5.45712C34.0406 6.18474 34.0062 6.9861 33.9374 7.8612C33.8686 8.73631 33.7555 9.64091 33.5982 10.575C33.4408 11.5091 33.2344 12.458 32.9787 13.4216C32.7329 14.3753 32.4232 15.2947 32.0495 16.1796C31.6759 17.0646 31.2383 17.8954 30.7369 18.6722C30.2452 19.4391 29.6749 20.1127 29.026 20.6928C28.3869 21.2631 27.6691 21.7105 26.8726 22.035C26.0762 22.3693 25.1912 22.5364 24.2178 22.5364C23.0772 22.5364 22.0841 22.3496 21.2385 21.976C20.4027 21.6122 19.685 21.1205 19.0852 20.5011C18.4854 19.8718 17.9937 19.1442 17.6103 18.3182C17.2268 17.4825 16.9269 16.6024 16.7106 15.6782C16.4943 14.7441 16.3419 13.7952 16.2534 12.8316C16.1747 11.8582 16.1354 10.9241 16.1354 10.0293C16.1354 8.65273 16.2042 7.28108 16.3419 5.91434C16.4795 4.53777 16.6762 3.16611 16.9318 1.79937L23.8343 2.06486C23.5689 3.60858 23.3378 5.16214 23.1411 6.72553C22.9543 8.27909 22.8609 9.84248 22.8609 11.4157C22.8609 11.5829 22.8658 11.8336 22.8757 12.1679C22.8953 12.4924 22.9248 12.8611 22.9642 13.2741C23.0035 13.6772 23.0576 14.0951 23.1264 14.5277C23.2051 14.9505 23.3083 15.3389 23.4361 15.6929C23.5639 16.0469 23.7164 16.3369 23.8933 16.5631C24.0802 16.7892 24.2965 16.9023 24.5423 16.9023C24.8274 16.9023 25.0831 16.7696 25.3092 16.5041C25.5354 16.2288 25.732 15.865 25.8992 15.4127C26.0762 14.9604 26.2286 14.4392 26.3564 13.8493C26.4842 13.2593 26.5924 12.6448 26.6809 12.0057C26.7694 11.3665 26.8382 10.7274 26.8874 10.0883C26.9464 9.44918 26.9906 8.8543 27.0201 8.30367C27.0595 7.75304 27.084 7.26633 27.0939 6.84352C27.1037 6.42072 27.1086 6.10608 27.1086 5.89959C27.1086 5.13264 27.0939 4.37061 27.0644 3.6135C27.0447 2.84655 27.0103 2.08452 26.9611 1.32741H33.8636C33.9816 2.68431 34.0406 4.06088 34.0406 5.45712Z" fill="white"/>
<path d="M52.5063 7.63997C52.5063 8.40692 52.4375 9.10503 52.2999 9.73432C52.172 10.3538 51.9656 10.9241 51.6804 11.4452C51.3953 11.9663 51.0265 12.4481 50.5742 12.8906C50.1219 13.3331 49.5762 13.7559 48.9371 14.159L52.4474 20.4126L45.8103 21.7105L43.539 15.4274L41.7101 15.4864L41.4446 21.622H35.1026C35.1517 19.3802 35.196 17.1481 35.2353 14.926C35.2845 12.7038 35.3385 10.4718 35.3975 8.22993C35.4172 7.09917 35.4369 5.97825 35.4565 4.86716C35.4762 3.75607 35.5155 2.63515 35.5745 1.5044C36.2628 1.24875 36.9413 1.03734 37.6099 0.870189C38.2785 0.703034 38.9471 0.57521 39.6157 0.486716C40.2942 0.38839 40.9776 0.324477 41.6659 0.294979C42.364 0.255649 43.0768 0.235984 43.8045 0.235984C44.9254 0.235984 46.007 0.393306 47.0492 0.707951C48.1013 1.01276 49.0305 1.4749 49.8368 2.09435C50.6431 2.71381 51.2871 3.48567 51.7689 4.40994C52.2605 5.33421 52.5063 6.41089 52.5063 7.63997ZM45.8988 8.11194C45.8988 7.69896 45.8398 7.32041 45.7218 6.97626C45.6137 6.63212 45.4465 6.33714 45.2204 6.09133C45.004 5.83568 44.7287 5.63902 44.3944 5.50137C44.0699 5.35388 43.6865 5.28013 43.244 5.28013C43.0473 5.28013 42.8556 5.29488 42.6688 5.32438C42.482 5.34405 42.3001 5.37846 42.1231 5.42762L41.8871 10.9142H42.2411C42.6639 10.9142 43.0916 10.8602 43.5242 10.752C43.9667 10.6438 44.36 10.4767 44.7041 10.2505C45.0581 10.0244 45.3433 9.73432 45.5596 9.38035C45.7857 9.02637 45.8988 8.60357 45.8988 8.11194Z" fill="white"/>
<path d="M67.5061 0.589959C67.4471 1.51423 67.393 2.42866 67.3438 3.33327C67.2947 4.23787 67.2307 5.15231 67.1521 6.07658L60.8985 6.40105V8.25943H66.3261L66.0312 12.8316L60.869 12.9791L60.8985 21.7105L53.4355 21.858L53.9075 0.589959H67.5061Z" fill="white"/>
<path d="M91.3256 16.6073C91.3256 17.4235 91.1732 18.1265 90.8684 18.7164C90.5734 19.3064 90.1752 19.8079 89.6738 20.2208C89.1723 20.6338 88.5922 20.973 87.9334 21.2385C87.2844 21.4942 86.606 21.6957 85.898 21.8432C85.1901 21.9907 84.4772 22.089 83.7594 22.1382C83.0515 22.1874 82.3878 22.212 81.7683 22.212C81.1587 22.212 80.5245 22.1874 79.8657 22.1382C79.2167 22.0989 78.5678 22.0251 77.9188 21.917C77.2699 21.8088 76.6308 21.6662 76.0015 21.4893C75.3722 21.3024 74.7773 21.0714 74.2168 20.7961L74.1873 1.79937C74.738 1.57322 75.323 1.37165 75.9425 1.19467C76.5619 1.00785 77.1912 0.85544 77.8303 0.737449C78.4793 0.609624 79.1233 0.516214 79.7625 0.457218C80.4016 0.38839 81.021 0.353975 81.6208 0.353975C82.3189 0.353975 83.022 0.398222 83.7299 0.486716C84.4477 0.57521 85.136 0.7227 85.7948 0.929185C86.4536 1.13567 87.0681 1.40607 87.6384 1.74038C88.2087 2.06486 88.7052 2.46799 89.1281 2.94979C89.5607 3.43159 89.895 3.99206 90.131 4.63118C90.3768 5.2703 90.4997 6.00775 90.4997 6.84352C90.4997 7.39415 90.4211 7.91037 90.2637 8.39217C90.1064 8.87397 89.8802 9.3066 89.5853 9.69008C89.2903 10.0735 88.9314 10.4029 88.5086 10.6783C88.0858 10.9437 87.6089 11.1404 87.0779 11.2682C87.7171 11.4354 88.2972 11.6812 88.8183 12.0057C89.3493 12.3301 89.7967 12.7234 90.1605 13.1856C90.5341 13.6477 90.8193 14.1688 91.0159 14.749C91.2224 15.3291 91.3256 15.9486 91.3256 16.6073ZM83.8332 8.20043C83.8332 7.91528 83.7742 7.67438 83.6562 7.47773C83.5382 7.27124 83.3907 7.10409 83.2137 6.97626C83.0466 6.84844 82.8597 6.75503 82.6533 6.69603C82.4566 6.63704 82.2796 6.60754 82.1223 6.60754C81.9256 6.60754 81.7339 6.63704 81.5471 6.69603C81.3603 6.75503 81.1784 6.82386 81.0014 6.90252L80.9129 10.1768C81.139 10.1768 81.4193 10.1571 81.7536 10.1178C82.0879 10.0785 82.4074 9.99489 82.7122 9.86706C83.0269 9.72941 83.2924 9.53275 83.5087 9.2771C83.725 9.01162 83.8332 8.65273 83.8332 8.20043ZM81.7388 13.0086C81.4537 13.0086 81.1784 13.0381 80.9129 13.0971L80.8539 16.4599C81.0014 16.4894 81.1439 16.5189 81.2816 16.5483C81.4291 16.568 81.5717 16.5778 81.7093 16.5778C81.9158 16.5778 82.142 16.5582 82.3878 16.5189C82.6336 16.4697 82.8647 16.3812 83.081 16.2534C83.2973 16.1157 83.4743 15.9338 83.6119 15.7077C83.7594 15.4815 83.8332 15.1816 83.8332 14.808C83.8332 14.4343 83.7594 14.1295 83.6119 13.8935C83.4743 13.6575 83.3022 13.4756 83.0957 13.3478C82.8892 13.2102 82.6631 13.1217 82.4173 13.0823C82.1714 13.0332 81.9453 13.0086 81.7388 13.0086Z" fill="white"/>
<path d="M110.721 20.5896L103.405 21.5335L102.52 18.2002H99.1574L98.4199 21.5335L90.8979 20.7961L96.768 1.15042L104.968 0.737449L110.721 20.5896ZM101.989 13.687L100.868 8.55441L99.7768 13.687H101.989Z" fill="white"/>
<path d="M131.089 0.707951L130.027 20.7076L122.298 21.4155L118.169 10.7078L117.52 21.622H110.883L111.414 0.707951L118.788 0.353975L123.891 10.9732L124.127 0.943934L131.089 0.707951Z" fill="white"/>
<path d="M151 0.737449L143.891 10.5603L149.879 21.0025L143.036 22.212L138.552 15.8404L138.316 22.5069L132.18 22.7429L132.652 0.14749L139.525 0.530963L138.994 7.1975L143.567 0.14749L151 0.737449Z" fill="white"/>
</svg>
