<svg width="64" height="64" viewBox="0 0 64 64" fill="none" xmlns="http://www.w3.org/2000/svg">
<path d="M32.001 6.08331C46.3146 6.08349 57.917 17.6866 57.917 32.0003C57.9168 46.3138 46.3145 57.9161 32.001 57.9163C17.6873 57.9163 6.08416 46.3139 6.08398 32.0003C6.08398 17.6865 17.6872 6.08331 32.001 6.08331ZM37.8213 43.1595C36.0253 44.0979 34.0283 44.5864 32.002 44.5833H31.999C30.1962 44.5861 28.4143 44.1993 26.7744 43.4505L26.1631 43.1507L25.6816 42.9144L25.3018 43.2943L19.4805 49.1175L18.8408 49.7581L19.5889 50.2679C23.2471 52.7601 27.5726 54.0888 31.999 54.0823L32.002 54.0833L32.001 54.0823C36.1371 54.0885 40.1912 52.929 43.6973 50.7347L43.7031 50.7308L43.71 50.7259L44.4033 50.2728L45.1758 49.7679L44.5225 49.1146L38.6992 43.2933L38.3096 42.9046L37.8213 43.1595ZM13.7354 19.5882C11.3196 23.1325 9.99564 27.3036 9.9209 31.5862L9.91699 32.0003C9.91706 36.6007 11.3251 40.875 13.7324 44.4114L14.2422 45.1605L14.8828 44.5198L20.707 38.6985L21.0967 38.3089L20.8418 37.8206C19.9033 36.0246 19.4139 34.0277 19.417 32.0013V32.0003C19.417 29.8975 19.9305 27.9203 20.8408 26.18L21.0967 25.6917L14.2451 18.8401L13.7354 19.5882ZM49.1182 19.4798L43.2949 25.3011L42.9043 25.6907L43.1602 26.18C44.0704 27.9202 44.584 29.9 44.584 32.0003C44.5839 34.1032 44.0705 36.0803 43.1602 37.8206L42.9043 38.3089L43.2949 38.6985L49.1182 44.5198L49.7588 45.1595L50.2686 44.4114C52.6835 40.8668 54.0073 36.6958 54.0811 32.4134L54.084 31.9984C54.0837 27.3984 52.6756 23.1243 50.2686 19.5882L49.7588 18.8401L49.1182 19.4798ZM32.001 23.2503C29.6803 23.2503 27.4544 24.1719 25.8135 25.8128C24.1725 27.4537 23.251 29.6797 23.251 32.0003C23.2511 34.3208 24.1727 36.546 25.8135 38.1868C27.4544 39.8278 29.6803 40.7503 32.001 40.7503C34.3215 40.7502 36.5466 39.8277 38.1875 38.1868C39.8284 36.546 40.7509 34.3208 40.751 32.0003C40.751 29.6797 39.8284 27.4537 38.1875 25.8128C36.5466 24.172 34.3214 23.2504 32.001 23.2503ZM32.001 9.91632C27.8646 9.90988 23.8099 11.0713 20.3037 13.2659L20.292 13.2737L19.5986 13.7269L18.8252 14.2327L19.4785 14.8851L25.3027 20.7064L25.6924 21.096L26.1797 20.8411C27.9756 19.9027 29.9727 19.4133 31.999 19.4163H32.001C33.8633 19.4164 35.6292 19.8216 37.2178 20.5443L37.8379 20.8489L38.3193 21.0862L38.6992 20.7064L44.5205 14.8821L45.1602 14.2415L44.4121 13.7318C40.7536 11.2395 36.4277 9.90957 32.001 9.91632Z" fill="black" stroke="white" stroke-width="1.5"/>
</svg>
