<svg width="64" height="64" viewBox="0 0 64 64" fill="none" xmlns="http://www.w3.org/2000/svg">
<path d="M27.5576 7.27509C28.2051 5.82016 30.2016 5.74038 30.9883 7.04462L31.1162 7.29071L33.8877 13.529C36.3761 19.127 40.5145 23.8317 45.749 27.0143L45.7588 27.0202L46.6182 27.5241L46.6299 27.5309L51.5635 30.3044L51.5645 30.3054C51.8473 30.4637 52.0859 30.6903 52.2588 30.9645C52.4317 31.2388 52.5338 31.5521 52.5547 31.8757C52.5755 32.1991 52.515 32.523 52.3789 32.8171C52.246 33.104 52.0442 33.354 51.793 33.5456L51.54 33.7097L46.6299 36.4684V36.4694C41.4568 39.3793 37.2636 43.7519 34.5732 49.0329L34.3174 49.5475L34.3115 49.5593L33.8936 50.4597L33.8877 50.4714L31.1094 56.7243C30.4632 58.1773 28.4711 58.2602 27.6816 56.9626L27.5469 56.7018L24.7783 50.4714C22.29 44.8735 18.1523 40.1686 12.918 36.986L12.9072 36.9802L12.0488 36.4763L12.0371 36.4694L7.10352 33.696L7.10254 33.695L6.99805 33.6325C6.7605 33.4793 6.55848 33.2758 6.40723 33.0358C6.23439 32.7616 6.13322 32.4482 6.1123 32.1247C6.09146 31.8011 6.1518 31.4766 6.28809 31.1823C6.42184 30.8936 6.62443 30.6419 6.87793 30.4499L7.125 30.2897L12.0371 27.5309C17.3772 24.5271 21.6731 19.9642 24.3496 14.4528L24.3545 14.4411L24.7734 13.5397L24.7783 13.529L27.5576 7.27509ZM28.6484 14.2604C25.3972 21.5783 20.0634 27.4142 13.0723 31.3464L11.9102 31.9997L13.0723 32.654C20.0633 36.5861 25.3972 42.4211 28.6484 49.739L29.333 51.2809L30.0186 49.7399C33.2804 42.4035 38.614 36.5809 45.5947 32.654L46.7568 31.9997L45.5947 31.3464C38.6036 27.4142 33.2698 21.5783 30.0186 14.2604L29.333 12.7184L28.6484 14.2604ZM50.665 6.17255C52.0379 9.16916 54.3 11.6692 57.1455 13.3337C54.3001 14.999 52.0381 17.4995 50.666 20.4968C49.2934 17.5005 47.0326 15.0002 44.1875 13.3356C47.0325 11.6702 49.2932 9.16958 50.665 6.17255Z" fill="black" stroke="white" stroke-width="1.5"/>
</svg>
