<svg width="1440" height="481" viewBox="0 0 1440 481" fill="none" xmlns="http://www.w3.org/2000/svg">
<g filter="url(#filter0_d_108_593)">
<rect x="620.5" y="381" width="64" height="34" rx="16" fill="white" shape-rendering="crispEdges"/>
<rect x="621" y="381.5" width="63" height="33" rx="15.5" stroke="#E9EDF3" shape-rendering="crispEdges"/>
<path d="M639.34 403V393.13H645.234V394.166H640.474V397.4H644.674V398.394H640.474V401.964H645.374V403H639.34ZM648.424 403.224C647.038 403.224 646.212 402.342 646.212 400.83V395.93H647.276V400.746C647.276 401.712 647.836 402.3 648.732 402.3C649.936 402.3 650.734 401.488 650.734 400.228V395.93H651.798V403H650.832L650.734 402.034H650.72C650.258 402.79 649.46 403.224 648.424 403.224ZM655.986 395.692C657.106 395.692 657.82 396.49 657.89 397.932L656.952 398.24C656.91 397.204 656.476 396.644 655.79 396.644C654.852 396.644 654.264 397.624 654.264 399.234V403H653.2V395.93H654.082L654.194 397.036H654.208C654.516 396.196 655.188 395.692 655.986 395.692ZM661.803 403.238C659.773 403.238 658.457 401.754 658.457 399.458C658.457 397.176 659.773 395.692 661.803 395.692C663.833 395.692 665.149 397.176 665.149 399.458C665.149 401.754 663.833 403.238 661.803 403.238ZM661.803 402.272C663.189 402.272 664.085 401.166 664.085 399.458C664.085 397.764 663.189 396.672 661.803 396.672C660.417 396.672 659.521 397.764 659.521 399.458C659.521 401.166 660.417 402.272 661.803 402.272Z" fill="black"/>
</g>
<g filter="url(#filter1_d_108_593)">
<rect x="289" y="321" width="67" height="34" rx="16" fill="white" shape-rendering="crispEdges"/>
<rect x="289.5" y="321.5" width="66" height="33" rx="15.5" stroke="#E9EDF3" shape-rendering="crispEdges"/>
<path d="M311.144 343.294C308.932 343.294 307.392 341.894 307.28 339.864L308.428 339.64C308.484 341.208 309.632 342.258 311.172 342.258C312.53 342.258 313.37 341.474 313.37 340.466C313.37 339.64 312.838 339.108 311.592 338.73L310.066 338.268C308.484 337.778 307.77 336.98 307.77 335.678C307.77 334.04 308.918 332.836 310.808 332.836C312.614 332.836 313.832 333.998 313.972 335.72L312.852 335.986C312.796 334.712 311.97 333.872 310.822 333.872C309.66 333.872 308.932 334.6 308.932 335.552C308.932 336.378 309.408 336.868 310.514 337.204L312.04 337.666C313.734 338.17 314.532 338.996 314.546 340.354C314.546 342.02 313.272 343.294 311.144 343.294ZM315.66 343V333.13H321.554V334.166H316.794V337.4H320.994V338.394H316.794V341.964H321.694V343H315.66ZM322.879 343V333.13H326.421C328.367 333.13 329.725 334.362 329.725 336.098C329.725 337.834 328.353 339.052 326.421 339.052H324.013V343H322.879ZM324.013 338.002H326.351C327.639 338.002 328.563 337.218 328.563 336.098C328.563 334.964 327.653 334.166 326.351 334.166H324.013V338.002ZM329.165 343L332.525 333.13H333.995L337.369 343H336.151L335.367 340.634H331.167L330.383 343H329.165ZM331.475 339.598H335.059L333.295 334.222H333.267L331.475 339.598Z" fill="black"/>
</g>
<g filter="url(#filter2_d_108_593)">
<path d="M931 117C931 108.163 938.163 101 947 101H973C981.837 101 989 108.163 989 117V119C989 127.837 981.837 135 973 135H947C938.163 135 931 127.837 931 119V117Z" fill="white" shape-rendering="crispEdges"/>
<path d="M947 101.5H973C981.56 101.5 988.5 108.44 988.5 117V119C988.5 127.56 981.56 134.5 973 134.5H947C938.44 134.5 931.5 127.56 931.5 119V117C931.5 108.44 938.44 101.5 947 101.5Z" stroke="#E9EDF3" shape-rendering="crispEdges"/>
<path d="M949.84 123V113.13H955.3V114.166H951.002V117.582H954.488V118.562H951.002V123H949.84ZM956.92 114.558C956.444 114.558 956.136 114.236 956.136 113.774C956.136 113.326 956.444 113.004 956.92 113.004C957.382 113.004 957.704 113.326 957.704 113.774C957.704 114.236 957.382 114.558 956.92 114.558ZM956.374 123V115.93H957.438V123H956.374ZM960.958 123.21C959.558 123.21 958.55 122.398 958.55 121.166C958.55 120.004 959.404 119.094 961.434 118.842L962.792 118.674C963.128 118.632 963.352 118.422 963.352 118.058C963.352 117.204 962.638 116.658 961.63 116.658C960.482 116.658 959.698 117.47 959.67 118.38L958.718 117.974C958.802 116.728 959.992 115.692 961.672 115.692C963.31 115.692 964.388 116.686 964.388 118.212V123H963.436L963.324 121.922H963.31C962.848 122.734 962.022 123.21 960.958 123.21ZM961.182 122.244C962.414 122.244 963.324 121.334 963.324 120.018V119.542L961.588 119.752C960.16 119.934 959.614 120.466 959.614 121.11C959.614 121.81 960.272 122.244 961.182 122.244ZM968.315 123.238C967.111 123.238 966.327 122.44 966.327 121.222V116.812H964.955V115.93H966.327V113.886L967.391 113.634V115.93H970.037V116.812H967.391L967.405 121.082C967.405 121.81 967.755 122.314 968.399 122.314C969.001 122.314 969.477 121.866 969.533 120.956L970.443 121.334C970.345 122.51 969.463 123.238 968.315 123.238Z" fill="black"/>
</g>
<g filter="url(#filter3_d_108_593)">
<rect x="763" y="50" width="82" height="34" rx="16" fill="white" shape-rendering="crispEdges"/>
<rect x="763.5" y="50.5" width="81" height="33" rx="15.5" stroke="#E9EDF3" shape-rendering="crispEdges"/>
<path d="M781.84 72V62.13H785.732C787.538 62.13 788.616 63.11 788.616 64.748C788.616 65.84 788.042 66.638 787.09 66.89V66.904C788.224 67.17 788.91 68.038 788.91 69.284C788.91 70.978 787.72 72 785.732 72H781.84ZM783.002 66.4H785.592C786.768 66.4 787.454 65.798 787.454 64.79C787.454 63.782 786.768 63.166 785.592 63.166H783.002V66.4ZM783.002 70.964H785.578C786.936 70.964 787.748 70.306 787.748 69.186C787.748 68.094 786.936 67.436 785.578 67.436H783.002V70.964ZM792.014 72.21C790.614 72.21 789.606 71.398 789.606 70.166C789.606 69.004 790.46 68.094 792.49 67.842L793.848 67.674C794.184 67.632 794.408 67.422 794.408 67.058C794.408 66.204 793.694 65.658 792.686 65.658C791.538 65.658 790.754 66.47 790.726 67.38L789.774 66.974C789.858 65.728 791.048 64.692 792.728 64.692C794.366 64.692 795.444 65.686 795.444 67.212V72H794.492L794.38 70.922H794.366C793.904 71.734 793.078 72.21 792.014 72.21ZM792.238 71.244C793.47 71.244 794.38 70.334 794.38 69.018V68.542L792.644 68.752C791.216 68.934 790.67 69.466 790.67 70.11C790.67 70.81 791.328 71.244 792.238 71.244ZM800.154 64.706C801.54 64.706 802.366 65.588 802.366 67.1V72H801.302V67.184C801.302 66.218 800.742 65.63 799.846 65.63C798.642 65.63 797.844 66.442 797.844 67.702V72H796.78V64.93H797.746L797.844 65.896H797.858C798.32 65.14 799.118 64.706 800.154 64.706ZM803.698 72V61.71H804.762V67.94H804.776L807.436 64.93H808.794L806.386 67.604L808.976 72H807.744L805.672 68.388L804.762 69.396V72H803.698ZM810.317 63.558C809.841 63.558 809.533 63.236 809.533 62.774C809.533 62.326 809.841 62.004 810.317 62.004C810.779 62.004 811.101 62.326 811.101 62.774C811.101 63.236 810.779 63.558 810.317 63.558ZM809.771 72V64.93H810.835V72H809.771ZM815.74 64.706C817.126 64.706 817.952 65.588 817.952 67.1V72H816.888V67.184C816.888 66.218 816.328 65.63 815.432 65.63C814.228 65.63 813.43 66.442 813.43 67.702V72H812.366V64.93H813.332L813.43 65.896H813.444C813.906 65.14 814.704 64.706 815.74 64.706ZM821.972 75.178C820.446 75.178 819.074 74.464 818.5 73.358L819.34 72.686C819.816 73.61 820.838 74.212 821.93 74.212C823.47 74.212 824.464 73.218 824.464 71.622V70.712H824.45C823.988 71.552 823.05 72.14 822.126 72.14C820.278 72.14 819.032 70.642 819.032 68.43C819.032 66.218 820.278 64.706 822.126 64.706C823.078 64.706 824.016 65.238 824.45 66.036H824.464L824.576 64.93H825.528V71.622C825.528 73.806 824.156 75.178 821.972 75.178ZM822.294 71.174C823.596 71.174 824.492 70.026 824.492 68.43C824.492 66.806 823.596 65.658 822.294 65.658C820.992 65.658 820.096 66.778 820.096 68.43C820.096 70.068 820.992 71.174 822.294 71.174Z" fill="black"/>
</g>
<g filter="url(#filter4_d_108_593)">
<rect x="860" y="355" width="153" height="34" rx="16" fill="white" shape-rendering="crispEdges"/>
<rect x="860.5" y="355.5" width="152" height="33" rx="15.5" stroke="#E9EDF3" shape-rendering="crispEdges"/>
<path d="M882.144 377.294C879.932 377.294 878.392 375.894 878.28 373.864L879.428 373.64C879.484 375.208 880.632 376.258 882.172 376.258C883.53 376.258 884.37 375.474 884.37 374.466C884.37 373.64 883.838 373.108 882.592 372.73L881.066 372.268C879.484 371.778 878.77 370.98 878.77 369.678C878.77 368.04 879.918 366.836 881.808 366.836C883.614 366.836 884.832 367.998 884.972 369.72L883.852 369.986C883.796 368.712 882.97 367.872 881.822 367.872C880.66 367.872 879.932 368.6 879.932 369.552C879.932 370.378 880.408 370.868 881.514 371.204L883.04 371.666C884.734 372.17 885.532 372.996 885.546 374.354C885.546 376.02 884.272 377.294 882.144 377.294ZM889.74 377.238C887.64 377.238 886.24 375.712 886.24 373.388C886.24 371.162 887.514 369.692 889.446 369.692C891.322 369.692 892.512 371.162 892.512 373.402V373.822H887.332C887.43 375.306 888.382 376.272 889.74 376.272C890.734 376.272 891.504 375.74 891.812 374.858L892.736 375.278C892.344 376.482 891.168 377.238 889.74 377.238ZM887.332 372.898H891.392C891.294 371.484 890.58 370.672 889.446 370.672C888.228 370.672 887.486 371.54 887.332 372.898ZM896.194 377.238C894.99 377.238 894.206 376.44 894.206 375.222V370.812H892.834V369.93H894.206V367.886L895.27 367.634V369.93H897.916V370.812H895.27L895.284 375.082C895.284 375.81 895.634 376.314 896.278 376.314C896.88 376.314 897.356 375.866 897.412 374.956L898.322 375.334C898.224 376.51 897.342 377.238 896.194 377.238ZM901.745 377.238C900.541 377.238 899.757 376.44 899.757 375.222V370.812H898.385V369.93H899.757V367.886L900.821 367.634V369.93H903.467V370.812H900.821L900.835 375.082C900.835 375.81 901.185 376.314 901.829 376.314C902.431 376.314 902.907 375.866 902.963 374.956L903.873 375.334C903.775 376.51 902.893 377.238 901.745 377.238ZM904.595 377V366.71H905.659V377H904.595ZM910.275 377.238C908.175 377.238 906.775 375.712 906.775 373.388C906.775 371.162 908.049 369.692 909.981 369.692C911.857 369.692 913.047 371.162 913.047 373.402V373.822H907.867C907.965 375.306 908.917 376.272 910.275 376.272C911.269 376.272 912.039 375.74 912.347 374.858L913.271 375.278C912.879 376.482 911.703 377.238 910.275 377.238ZM907.867 372.898H911.927C911.829 371.484 911.115 370.672 909.981 370.672C908.763 370.672 908.021 371.54 907.867 372.898ZM914.302 377V369.93H915.226L915.338 370.91H915.352C915.73 370.154 916.542 369.692 917.536 369.692C918.53 369.692 919.244 370.182 919.58 370.994H919.594C920.112 370.14 920.98 369.692 921.932 369.692C923.332 369.692 924.158 370.602 924.158 372.142V377H923.08L923.094 372.17C923.094 371.218 922.548 370.672 921.624 370.672C920.462 370.672 919.762 371.54 919.762 372.884V377H918.684L918.698 372.17C918.698 371.218 918.152 370.672 917.228 370.672C916.066 370.672 915.366 371.54 915.366 372.884V377H914.302ZM928.705 377.238C926.605 377.238 925.205 375.712 925.205 373.388C925.205 371.162 926.479 369.692 928.411 369.692C930.287 369.692 931.477 371.162 931.477 373.402V373.822H926.297C926.395 375.306 927.347 376.272 928.705 376.272C929.699 376.272 930.469 375.74 930.777 374.858L931.701 375.278C931.309 376.482 930.133 377.238 928.705 377.238ZM926.297 372.898H930.357C930.259 371.484 929.545 370.672 928.411 370.672C927.193 370.672 926.451 371.54 926.297 372.898ZM936.105 369.706C937.491 369.706 938.317 370.588 938.317 372.1V377H937.253V372.184C937.253 371.218 936.693 370.63 935.797 370.63C934.593 370.63 933.795 371.442 933.795 372.702V377H932.731V369.93H933.697L933.795 370.896H933.809C934.271 370.14 935.069 369.706 936.105 369.706ZM942.036 377.238C940.832 377.238 940.048 376.44 940.048 375.222V370.812H938.676V369.93H940.048V367.886L941.112 367.634V369.93H943.758V370.812H941.112L941.126 375.082C941.126 375.81 941.476 376.314 942.12 376.314C942.722 376.314 943.198 375.866 943.254 374.956L944.164 375.334C944.066 376.51 943.184 377.238 942.036 377.238ZM949.977 377.21C948.577 377.21 947.569 376.398 947.569 375.166C947.569 374.004 948.423 373.094 950.453 372.842L951.811 372.674C952.147 372.632 952.371 372.422 952.371 372.058C952.371 371.204 951.657 370.658 950.649 370.658C949.501 370.658 948.717 371.47 948.689 372.38L947.737 371.974C947.821 370.728 949.011 369.692 950.691 369.692C952.329 369.692 953.407 370.686 953.407 372.212V377H952.455L952.343 375.922H952.329C951.867 376.734 951.041 377.21 949.977 377.21ZM950.201 376.244C951.433 376.244 952.343 375.334 952.343 374.018V373.542L950.607 373.752C949.179 373.934 948.633 374.466 948.633 375.11C948.633 375.81 949.291 376.244 950.201 376.244ZM957.767 377.238C955.765 377.238 954.463 375.74 954.463 373.472C954.463 371.19 955.695 369.692 957.543 369.692C958.957 369.692 960.063 370.644 960.371 372.1L959.349 372.366C959.111 371.316 958.397 370.644 957.543 370.644C956.353 370.644 955.527 371.75 955.527 373.472C955.527 375.18 956.437 376.286 957.767 376.286C958.859 376.286 959.713 375.474 959.895 374.228L960.917 374.466C960.665 376.132 959.405 377.238 957.767 377.238ZM964.917 377.238C962.915 377.238 961.613 375.74 961.613 373.472C961.613 371.19 962.845 369.692 964.693 369.692C966.107 369.692 967.213 370.644 967.521 372.1L966.499 372.366C966.261 371.316 965.547 370.644 964.693 370.644C963.503 370.644 962.677 371.75 962.677 373.472C962.677 375.18 963.587 376.286 964.917 376.286C966.009 376.286 966.863 375.474 967.045 374.228L968.067 374.466C967.815 376.132 966.555 377.238 964.917 377.238ZM972.11 377.238C970.08 377.238 968.764 375.754 968.764 373.458C968.764 371.176 970.08 369.692 972.11 369.692C974.14 369.692 975.456 371.176 975.456 373.458C975.456 375.754 974.14 377.238 972.11 377.238ZM972.11 376.272C973.496 376.272 974.392 375.166 974.392 373.458C974.392 371.764 973.496 370.672 972.11 370.672C970.724 370.672 969.828 371.764 969.828 373.458C969.828 375.166 970.724 376.272 972.11 376.272ZM978.719 377.224C977.333 377.224 976.507 376.342 976.507 374.83V369.93H977.571V374.746C977.571 375.712 978.131 376.3 979.027 376.3C980.231 376.3 981.029 375.488 981.029 374.228V369.93H982.093V377H981.127L981.029 376.034H981.015C980.553 376.79 979.755 377.224 978.719 377.224ZM986.869 369.706C988.255 369.706 989.081 370.588 989.081 372.1V377H988.017V372.184C988.017 371.218 987.457 370.63 986.561 370.63C985.357 370.63 984.559 371.442 984.559 372.702V377H983.495V369.93H984.461L984.559 370.896H984.573C985.035 370.14 985.833 369.706 986.869 369.706ZM992.799 377.238C991.595 377.238 990.811 376.44 990.811 375.222V370.812H989.439V369.93H990.811V367.886L991.875 367.634V369.93H994.521V370.812H991.875L991.889 375.082C991.889 375.81 992.239 376.314 992.883 376.314C993.485 376.314 993.961 375.866 994.017 374.956L994.927 375.334C994.829 376.51 993.947 377.238 992.799 377.238Z" fill="black"/>
</g>
<g filter="url(#filter5_d_108_593)">
<rect x="1110" y="333" width="78" height="34" rx="16" fill="white" shape-rendering="crispEdges"/>
<rect x="1110.5" y="333.5" width="77" height="33" rx="15.5" stroke="#E9EDF3" shape-rendering="crispEdges"/>
<path d="M1131.02 355V346.166H1128.14V345.13H1135.07V346.166H1132.19V355H1131.02ZM1142.39 355.266C1141.65 355.266 1141.24 354.79 1141.06 354.132L1140.48 352.032C1140.29 351.29 1139.74 350.786 1139.1 350.786H1137.21V355H1136.05V345.13H1139.85C1141.77 345.13 1143.13 346.292 1143.13 347.986C1143.13 349.26 1142.21 350.338 1140.71 350.604V350.618C1141.21 350.884 1141.51 351.346 1141.66 351.92L1142.12 353.712C1142.21 354.048 1142.35 354.286 1142.63 354.286C1142.86 354.286 1143.12 354.09 1143.33 353.726L1143.91 354.398C1143.54 354.944 1143 355.266 1142.39 355.266ZM1137.21 349.75H1139.81C1141.09 349.75 1141.97 349.036 1141.97 347.986C1141.97 346.88 1141.09 346.166 1139.81 346.166H1137.21V349.75ZM1148.72 355.294C1145.88 355.294 1144.13 353.306 1144.13 350.072C1144.13 346.838 1145.77 344.836 1148.43 344.836C1150.36 344.836 1151.79 346.124 1152.19 348.294L1151.09 348.56C1150.81 346.866 1149.79 345.872 1148.41 345.872C1146.48 345.872 1145.29 347.468 1145.29 350.072C1145.31 352.662 1146.61 354.258 1148.72 354.258C1150.39 354.258 1151.61 353.04 1151.89 351.066L1152.99 351.346C1152.64 353.782 1150.99 355.294 1148.72 355.294ZM1153.98 355V354.314C1153.98 352.48 1154.55 351.528 1156.15 350.506L1157.35 349.722C1158.31 349.092 1158.66 348.532 1158.66 347.65C1158.66 346.6 1158.04 345.872 1157.12 345.872C1156.07 345.872 1155.34 346.782 1155.32 348.336L1154.16 348.098C1154.19 346.152 1155.38 344.836 1157.12 344.836C1158.74 344.836 1159.82 345.998 1159.82 347.692C1159.82 348.924 1159.33 349.708 1158 350.59L1156.78 351.388C1155.58 352.186 1155.21 352.844 1155.21 353.964H1159.99V355H1153.98ZM1164.92 355.294C1162.67 355.294 1161.24 353.236 1161.24 350.072C1161.24 346.894 1162.67 344.836 1164.92 344.836C1167.18 344.836 1168.6 346.894 1168.6 350.072C1168.6 353.236 1167.18 355.294 1164.92 355.294ZM1164.92 354.258C1166.48 354.258 1167.44 352.606 1167.44 350.072C1167.44 347.524 1166.48 345.872 1164.92 345.872C1163.38 345.872 1162.4 347.524 1162.4 350.072C1162.4 352.606 1163.38 354.258 1164.92 354.258Z" fill="black"/>
</g>
<g filter="url(#filter6_d_108_593)">
<rect x="404.5" y="374" width="91" height="34" rx="16" fill="white" shape-rendering="crispEdges"/>
<rect x="405" y="374.5" width="90" height="33" rx="15.5" stroke="#E9EDF3" shape-rendering="crispEdges"/>
<path d="M427.694 396.294C424.852 396.294 422.99 394.236 422.99 391.072C422.99 387.894 424.838 385.836 427.694 385.836C430.536 385.836 432.398 387.894 432.398 391.058C432.398 394.236 430.536 396.294 427.694 396.294ZM427.694 395.258C429.836 395.258 431.222 393.606 431.222 391.072C431.222 388.524 429.836 386.872 427.694 386.872C425.552 386.872 424.152 388.524 424.152 391.072C424.152 393.606 425.552 395.258 427.694 395.258ZM436.965 388.706C438.351 388.706 439.177 389.588 439.177 391.1V396H438.113V391.184C438.113 390.218 437.553 389.63 436.657 389.63C435.453 389.63 434.655 390.442 434.655 391.702V396H433.591V388.93H434.557L434.655 389.896H434.669C435.131 389.14 435.929 388.706 436.965 388.706ZM440.509 392.822V391.856H444.961V392.822H440.509ZM449.146 388.692C450.266 388.692 450.98 389.49 451.05 390.932L450.112 391.24C450.07 390.204 449.636 389.644 448.95 389.644C448.012 389.644 447.424 390.624 447.424 392.234V396H446.36V388.93H447.242L447.354 390.036H447.368C447.676 389.196 448.348 388.692 449.146 388.692ZM453.981 396.21C452.581 396.21 451.573 395.398 451.573 394.166C451.573 393.004 452.427 392.094 454.457 391.842L455.815 391.674C456.151 391.632 456.375 391.422 456.375 391.058C456.375 390.204 455.661 389.658 454.653 389.658C453.505 389.658 452.721 390.47 452.693 391.38L451.741 390.974C451.825 389.728 453.015 388.692 454.695 388.692C456.333 388.692 457.411 389.686 457.411 391.212V396H456.459L456.347 394.922H456.333C455.871 395.734 455.045 396.21 453.981 396.21ZM454.205 395.244C455.437 395.244 456.347 394.334 456.347 393.018V392.542L454.611 392.752C453.183 392.934 452.637 393.466 452.637 394.11C452.637 394.81 453.295 395.244 454.205 395.244ZM458.747 396V388.93H459.671L459.783 389.91H459.797C460.175 389.154 460.987 388.692 461.981 388.692C462.975 388.692 463.689 389.182 464.025 389.994H464.039C464.557 389.14 465.425 388.692 466.377 388.692C467.777 388.692 468.603 389.602 468.603 391.142V396H467.525L467.539 391.17C467.539 390.218 466.993 389.672 466.069 389.672C464.907 389.672 464.207 390.54 464.207 391.884V396H463.129L463.143 391.17C463.143 390.218 462.597 389.672 461.673 389.672C460.511 389.672 459.811 390.54 459.811 391.884V396H458.747ZM469.93 398.94V388.93H470.854L470.966 390.106H470.98C471.456 389.21 472.31 388.692 473.374 388.692C475.222 388.692 476.482 390.204 476.482 392.472C476.482 394.726 475.222 396.238 473.374 396.238C472.324 396.238 471.498 395.734 471.008 394.88H470.994V398.94H469.93ZM473.192 395.23C474.522 395.23 475.418 394.11 475.418 392.472C475.418 390.82 474.508 389.7 473.192 389.7C471.862 389.7 470.966 390.834 470.966 392.472C470.966 394.11 471.862 395.23 473.192 395.23Z" fill="black"/>
</g>
<g filter="url(#filter7_d_108_593)">
<rect x="73" y="282" width="94" height="34" rx="16" fill="white" shape-rendering="crispEdges"/>
<rect x="73.5" y="282.5" width="93" height="33" rx="15.5" stroke="#E9EDF3" shape-rendering="crispEdges"/>
<path d="M96.194 304.294C93.352 304.294 91.49 302.236 91.49 299.072C91.49 295.894 93.338 293.836 96.194 293.836C99.036 293.836 100.898 295.894 100.898 299.058C100.898 302.236 99.036 304.294 96.194 304.294ZM96.194 303.258C98.336 303.258 99.722 301.606 99.722 299.072C99.722 296.524 98.336 294.872 96.194 294.872C94.052 294.872 92.652 296.524 92.652 299.072C92.652 301.606 94.052 303.258 96.194 303.258ZM102.819 304L102.805 297.812H101.391V296.93H102.805V295.53C102.805 294.298 103.617 293.5 104.891 293.5C106.081 293.5 106.921 294.242 107.033 295.32L106.109 295.712C106.025 294.942 105.549 294.438 104.933 294.438C104.303 294.438 103.883 294.942 103.883 295.712V296.93H106.571V297.812H103.883V304H102.819ZM108.506 304L108.492 297.812H107.078V296.93H108.492V295.53C108.492 294.298 109.304 293.5 110.578 293.5C111.768 293.5 112.608 294.242 112.72 295.32L111.796 295.712C111.712 294.942 111.236 294.438 110.62 294.438C109.99 294.438 109.57 294.942 109.57 295.712V296.93H112.258V297.812H109.57V304H108.506ZM112.304 300.822V299.856H116.756V300.822H112.304ZM120.941 296.692C122.061 296.692 122.775 297.49 122.845 298.932L121.907 299.24C121.865 298.204 121.431 297.644 120.745 297.644C119.807 297.644 119.219 298.624 119.219 300.234V304H118.155V296.93H119.037L119.149 298.036H119.163C119.471 297.196 120.143 296.692 120.941 296.692ZM125.776 304.21C124.376 304.21 123.368 303.398 123.368 302.166C123.368 301.004 124.222 300.094 126.252 299.842L127.61 299.674C127.946 299.632 128.17 299.422 128.17 299.058C128.17 298.204 127.456 297.658 126.448 297.658C125.3 297.658 124.516 298.47 124.488 299.38L123.536 298.974C123.62 297.728 124.81 296.692 126.49 296.692C128.128 296.692 129.206 297.686 129.206 299.212V304H128.254L128.142 302.922H128.128C127.666 303.734 126.84 304.21 125.776 304.21ZM126 303.244C127.232 303.244 128.142 302.334 128.142 301.018V300.542L126.406 300.752C124.978 300.934 124.432 301.466 124.432 302.11C124.432 302.81 125.09 303.244 126 303.244ZM130.542 304V296.93H131.466L131.578 297.91H131.592C131.97 297.154 132.782 296.692 133.776 296.692C134.77 296.692 135.484 297.182 135.82 297.994H135.834C136.352 297.14 137.22 296.692 138.172 296.692C139.572 296.692 140.398 297.602 140.398 299.142V304H139.32L139.334 299.17C139.334 298.218 138.788 297.672 137.864 297.672C136.702 297.672 136.002 298.54 136.002 299.884V304H134.924L134.938 299.17C134.938 298.218 134.392 297.672 133.468 297.672C132.306 297.672 131.606 298.54 131.606 299.884V304H130.542ZM141.725 306.94V296.93H142.649L142.761 298.106H142.775C143.251 297.21 144.105 296.692 145.169 296.692C147.017 296.692 148.277 298.204 148.277 300.472C148.277 302.726 147.017 304.238 145.169 304.238C144.119 304.238 143.293 303.734 142.803 302.88H142.789V306.94H141.725ZM144.987 303.23C146.317 303.23 147.213 302.11 147.213 300.472C147.213 298.82 146.303 297.7 144.987 297.7C143.657 297.7 142.761 298.834 142.761 300.472C142.761 302.11 143.657 303.23 144.987 303.23Z" fill="black"/>
</g>
<g filter="url(#filter8_d_108_593)">
<rect x="1170" y="201" width="90" height="34" rx="16" fill="white" shape-rendering="crispEdges"/>
<rect x="1170.5" y="201.5" width="89" height="33" rx="15.5" stroke="#E9EDF3" shape-rendering="crispEdges"/>
<path d="M1188.84 223V213.13H1194.3V214.166H1190V217.582H1193.49V218.562H1190V223H1188.84ZM1195.42 223V213.13H1201.31V214.166H1196.55V217.4H1200.75V218.394H1196.55V221.964H1201.45V223H1195.42ZM1202.63 223V213.13H1205.77C1208.89 213.13 1210.54 214.922 1210.54 218.072C1210.54 221.208 1208.89 223 1205.77 223H1202.63ZM1203.8 221.964H1205.77C1208.15 221.964 1209.38 220.55 1209.38 218.072C1209.38 215.594 1208.15 214.166 1205.77 214.166H1203.8V221.964ZM1213.26 223L1210.78 213.13H1211.98L1214.1 221.81H1214.13L1216.06 213.13H1217.72L1219.67 221.81H1219.7L1221.78 213.13H1222.99L1220.51 223H1218.83L1216.91 214.432H1216.88L1214.92 223H1213.26ZM1223.96 223V213.13H1225.13V223H1223.96ZM1233.15 223.266C1232.41 223.266 1232 222.79 1231.82 222.132L1231.24 220.032C1231.05 219.29 1230.5 218.786 1229.86 218.786H1227.97V223H1226.81V213.13H1230.61C1232.53 213.13 1233.89 214.292 1233.89 215.986C1233.89 217.26 1232.97 218.338 1231.47 218.604V218.618C1231.97 218.884 1232.27 219.346 1232.42 219.92L1232.88 221.712C1232.97 222.048 1233.11 222.286 1233.39 222.286C1233.62 222.286 1233.88 222.09 1234.09 221.726L1234.67 222.398C1234.3 222.944 1233.76 223.266 1233.15 223.266ZM1227.97 217.75H1230.57C1231.85 217.75 1232.73 217.036 1232.73 215.986C1232.73 214.88 1231.85 214.166 1230.57 214.166H1227.97V217.75ZM1235.52 223V213.13H1241.41V214.166H1236.65V217.4H1240.85V218.394H1236.65V221.964H1241.55V223H1235.52Z" fill="black"/>
</g>
<g filter="url(#filter9_d_108_593)">
<rect x="115" y="126" width="79" height="34" rx="16" fill="white" shape-rendering="crispEdges"/>
<rect x="115.5" y="126.5" width="78" height="33" rx="15.5" stroke="#E9EDF3" shape-rendering="crispEdges"/>
<path d="M138.082 148.294C135.24 148.294 133.49 146.306 133.49 143.072C133.49 139.838 135.128 137.836 137.788 137.836C139.72 137.836 141.148 139.124 141.554 141.294L140.448 141.56C140.168 139.866 139.146 138.872 137.774 138.872C135.842 138.872 134.652 140.468 134.652 143.072C134.666 145.662 135.968 147.258 138.082 147.258C139.748 147.258 140.966 146.04 141.246 144.066L142.352 144.346C142.002 146.782 140.35 148.294 138.082 148.294ZM146.125 140.692C147.245 140.692 147.959 141.49 148.029 142.932L147.091 143.24C147.049 142.204 146.615 141.644 145.929 141.644C144.991 141.644 144.403 142.624 144.403 144.234V148H143.339V140.93H144.221L144.333 142.036H144.347C144.655 141.196 145.327 140.692 146.125 140.692ZM151.267 151.178C149.769 151.178 148.607 150.492 148.088 149.372L148.971 148.728C149.377 149.638 150.203 150.212 151.267 150.212C152.597 150.212 153.423 149.358 153.423 147.944V147.342H153.409C153.003 148.07 152.219 148.518 151.379 148.518C149.853 148.518 148.901 147.426 148.901 145.788V140.93H149.965V145.788C149.965 146.852 150.567 147.552 151.547 147.552C152.611 147.552 153.409 146.782 153.409 145.62V140.93H154.487V147.944C154.487 149.974 153.269 151.178 151.267 151.178ZM155.889 150.94V140.93H156.813L156.925 142.106H156.939C157.415 141.21 158.269 140.692 159.333 140.692C161.181 140.692 162.441 142.204 162.441 144.472C162.441 146.726 161.181 148.238 159.333 148.238C158.283 148.238 157.457 147.734 156.967 146.88H156.953V150.94H155.889ZM159.151 147.23C160.481 147.23 161.377 146.11 161.377 144.472C161.377 142.82 160.467 141.7 159.151 141.7C157.821 141.7 156.925 142.834 156.925 144.472C156.925 146.11 157.821 147.23 159.151 147.23ZM166.001 148.238C164.797 148.238 164.013 147.44 164.013 146.222V141.812H162.641V140.93H164.013V138.886L165.077 138.634V140.93H167.723V141.812H165.077L165.091 146.082C165.091 146.81 165.441 147.314 166.085 147.314C166.687 147.314 167.163 146.866 167.219 145.956L168.129 146.334C168.031 147.51 167.149 148.238 166.001 148.238ZM171.916 148.238C169.886 148.238 168.57 146.754 168.57 144.458C168.57 142.176 169.886 140.692 171.916 140.692C173.946 140.692 175.262 142.176 175.262 144.458C175.262 146.754 173.946 148.238 171.916 148.238ZM171.916 147.272C173.302 147.272 174.198 146.166 174.198 144.458C174.198 142.764 173.302 141.672 171.916 141.672C170.53 141.672 169.634 142.764 169.634 144.458C169.634 146.166 170.53 147.272 171.916 147.272Z" fill="black"/>
</g>
<g filter="url(#filter10_d_108_593)">
<rect x="1062" y="109" width="68" height="34" rx="16" fill="white" shape-rendering="crispEdges"/>
<rect x="1062.5" y="109.5" width="67" height="33" rx="15.5" stroke="#E9EDF3" shape-rendering="crispEdges"/>
<path d="M1084.14 131.294C1081.93 131.294 1080.39 129.894 1080.28 127.864L1081.43 127.64C1081.48 129.208 1082.63 130.258 1084.17 130.258C1085.53 130.258 1086.37 129.474 1086.37 128.466C1086.37 127.64 1085.84 127.108 1084.59 126.73L1083.07 126.268C1081.48 125.778 1080.77 124.98 1080.77 123.678C1080.77 122.04 1081.92 120.836 1083.81 120.836C1085.61 120.836 1086.83 121.998 1086.97 123.72L1085.85 123.986C1085.8 122.712 1084.97 121.872 1083.82 121.872C1082.66 121.872 1081.93 122.6 1081.93 123.552C1081.93 124.378 1082.41 124.868 1083.51 125.204L1085.04 125.666C1086.73 126.17 1087.53 126.996 1087.55 128.354C1087.55 130.02 1086.27 131.294 1084.14 131.294ZM1089.8 131L1087.76 123.93H1088.86L1090.49 129.894H1090.5L1092.1 123.93H1093.51L1095.15 129.908H1095.16L1096.76 123.93H1097.85L1095.85 131H1094.43L1092.81 124.994H1092.8L1091.23 131H1089.8ZM1099.34 122.558C1098.86 122.558 1098.55 122.236 1098.55 121.774C1098.55 121.326 1098.86 121.004 1099.34 121.004C1099.8 121.004 1100.12 121.326 1100.12 121.774C1100.12 122.236 1099.8 122.558 1099.34 122.558ZM1098.79 131V123.93H1099.85V131H1098.79ZM1102.11 131L1102.1 124.812H1100.69V123.93H1102.1V122.53C1102.1 121.298 1102.91 120.5 1104.19 120.5C1105.38 120.5 1106.22 121.242 1106.33 122.32L1105.4 122.712C1105.32 121.942 1104.84 121.438 1104.23 121.438C1103.6 121.438 1103.18 121.942 1103.18 122.712V123.93H1105.87V124.812H1103.18V131H1102.11ZM1109.62 131.238C1108.42 131.238 1107.64 130.44 1107.64 129.222V124.812H1106.26V123.93H1107.64V121.886L1108.7 121.634V123.93H1111.35V124.812H1108.7L1108.71 129.082C1108.71 129.81 1109.06 130.314 1109.71 130.314C1110.31 130.314 1110.79 129.866 1110.84 128.956L1111.75 129.334C1111.65 130.51 1110.77 131.238 1109.62 131.238Z" fill="black"/>
</g>
<g filter="url(#filter11_d_108_593)">
<rect x="271" y="72" width="65" height="34" rx="16" fill="white" shape-rendering="crispEdges"/>
<rect x="271.5" y="72.5" width="64" height="33" rx="15.5" stroke="#E9EDF3" shape-rendering="crispEdges"/>
<path d="M289.84 94V84.13H291.002V94H289.84ZM292.684 94V84.13H296.576C298.382 84.13 299.46 85.11 299.46 86.748C299.46 87.84 298.886 88.638 297.934 88.89V88.904C299.068 89.17 299.754 90.038 299.754 91.284C299.754 92.978 298.564 94 296.576 94H292.684ZM293.846 88.4H296.436C297.612 88.4 298.298 87.798 298.298 86.79C298.298 85.782 297.612 85.166 296.436 85.166H293.846V88.4ZM293.846 92.964H296.422C297.78 92.964 298.592 92.306 298.592 91.186C298.592 90.094 297.78 89.436 296.422 89.436H293.846V92.964ZM300.105 94L303.465 84.13H304.935L308.309 94H307.091L306.307 91.634H302.107L301.323 94H300.105ZM302.415 90.598H305.999L304.235 85.222H304.207L302.415 90.598ZM309.295 94V84.13H310.933L315.063 92.488H315.091V84.13H316.253V94H314.629L310.485 85.642H310.457V94H309.295Z" fill="black"/>
</g>
<g filter="url(#filter12_d_108_593)">
<rect x="515" y="33" width="69" height="34" rx="16" fill="white" shape-rendering="crispEdges"/>
<rect x="515.5" y="33.5" width="68" height="33" rx="15.5" stroke="#E9EDF3" shape-rendering="crispEdges"/>
<path d="M537.284 55.294C535.1 55.294 533.7 53.88 533.7 51.682V45.13H534.862V51.682C534.862 53.18 535.8 54.258 537.284 54.258C538.768 54.258 539.692 53.25 539.692 51.668V45.13H540.854V51.682C540.854 53.88 539.454 55.294 537.284 55.294ZM545.703 55.294C543.491 55.294 541.951 53.894 541.839 51.864L542.987 51.64C543.043 53.208 544.191 54.258 545.731 54.258C547.089 54.258 547.929 53.474 547.929 52.466C547.929 51.64 547.397 51.108 546.151 50.73L544.625 50.268C543.043 49.778 542.329 48.98 542.329 47.678C542.329 46.04 543.477 44.836 545.367 44.836C547.173 44.836 548.391 45.998 548.531 47.72L547.411 47.986C547.355 46.712 546.529 45.872 545.381 45.872C544.219 45.872 543.491 46.6 543.491 47.552C543.491 48.378 543.967 48.868 545.073 49.204L546.599 49.666C548.293 50.17 549.091 50.996 549.105 52.354C549.105 54.02 547.831 55.294 545.703 55.294ZM550.219 55V45.13H553.355C556.477 45.13 558.129 46.922 558.129 50.072C558.129 53.208 556.477 55 553.355 55H550.219ZM551.381 53.964H553.355C555.735 53.964 556.967 52.55 556.967 50.072C556.967 47.594 555.735 46.166 553.355 46.166H551.381V53.964ZM561.085 55V46.166H558.201V45.13H565.131V46.166H562.247V55H561.085Z" fill="black"/>
</g>
<defs>
<filter id="filter0_d_108_593" x="602.5" y="367" width="100" height="70" filterUnits="userSpaceOnUse" color-interpolation-filters="sRGB">
<feFlood flood-opacity="0" result="BackgroundImageFix"/>
<feColorMatrix in="SourceAlpha" type="matrix" values="0 0 0 0 0 0 0 0 0 0 0 0 0 0 0 0 0 0 127 0" result="hardAlpha"/>
<feOffset dy="4"/>
<feGaussianBlur stdDeviation="9"/>
<feComposite in2="hardAlpha" operator="out"/>
<feColorMatrix type="matrix" values="0 0 0 0 0 0 0 0 0 0 0 0 0 0 0 0 0 0 0.05 0"/>
<feBlend mode="normal" in2="BackgroundImageFix" result="effect1_dropShadow_108_593"/>
<feBlend mode="normal" in="SourceGraphic" in2="effect1_dropShadow_108_593" result="shape"/>
</filter>
<filter id="filter1_d_108_593" x="271" y="307" width="103" height="70" filterUnits="userSpaceOnUse" color-interpolation-filters="sRGB">
<feFlood flood-opacity="0" result="BackgroundImageFix"/>
<feColorMatrix in="SourceAlpha" type="matrix" values="0 0 0 0 0 0 0 0 0 0 0 0 0 0 0 0 0 0 127 0" result="hardAlpha"/>
<feOffset dy="4"/>
<feGaussianBlur stdDeviation="9"/>
<feComposite in2="hardAlpha" operator="out"/>
<feColorMatrix type="matrix" values="0 0 0 0 0 0 0 0 0 0 0 0 0 0 0 0 0 0 0.05 0"/>
<feBlend mode="normal" in2="BackgroundImageFix" result="effect1_dropShadow_108_593"/>
<feBlend mode="normal" in="SourceGraphic" in2="effect1_dropShadow_108_593" result="shape"/>
</filter>
<filter id="filter2_d_108_593" x="913" y="87" width="94" height="70" filterUnits="userSpaceOnUse" color-interpolation-filters="sRGB">
<feFlood flood-opacity="0" result="BackgroundImageFix"/>
<feColorMatrix in="SourceAlpha" type="matrix" values="0 0 0 0 0 0 0 0 0 0 0 0 0 0 0 0 0 0 127 0" result="hardAlpha"/>
<feOffset dy="4"/>
<feGaussianBlur stdDeviation="9"/>
<feComposite in2="hardAlpha" operator="out"/>
<feColorMatrix type="matrix" values="0 0 0 0 0 0 0 0 0 0 0 0 0 0 0 0 0 0 0.05 0"/>
<feBlend mode="normal" in2="BackgroundImageFix" result="effect1_dropShadow_108_593"/>
<feBlend mode="normal" in="SourceGraphic" in2="effect1_dropShadow_108_593" result="shape"/>
</filter>
<filter id="filter3_d_108_593" x="745" y="36" width="118" height="70" filterUnits="userSpaceOnUse" color-interpolation-filters="sRGB">
<feFlood flood-opacity="0" result="BackgroundImageFix"/>
<feColorMatrix in="SourceAlpha" type="matrix" values="0 0 0 0 0 0 0 0 0 0 0 0 0 0 0 0 0 0 127 0" result="hardAlpha"/>
<feOffset dy="4"/>
<feGaussianBlur stdDeviation="9"/>
<feComposite in2="hardAlpha" operator="out"/>
<feColorMatrix type="matrix" values="0 0 0 0 0 0 0 0 0 0 0 0 0 0 0 0 0 0 0.05 0"/>
<feBlend mode="normal" in2="BackgroundImageFix" result="effect1_dropShadow_108_593"/>
<feBlend mode="normal" in="SourceGraphic" in2="effect1_dropShadow_108_593" result="shape"/>
</filter>
<filter id="filter4_d_108_593" x="842" y="341" width="189" height="70" filterUnits="userSpaceOnUse" color-interpolation-filters="sRGB">
<feFlood flood-opacity="0" result="BackgroundImageFix"/>
<feColorMatrix in="SourceAlpha" type="matrix" values="0 0 0 0 0 0 0 0 0 0 0 0 0 0 0 0 0 0 127 0" result="hardAlpha"/>
<feOffset dy="4"/>
<feGaussianBlur stdDeviation="9"/>
<feComposite in2="hardAlpha" operator="out"/>
<feColorMatrix type="matrix" values="0 0 0 0 0 0 0 0 0 0 0 0 0 0 0 0 0 0 0.05 0"/>
<feBlend mode="normal" in2="BackgroundImageFix" result="effect1_dropShadow_108_593"/>
<feBlend mode="normal" in="SourceGraphic" in2="effect1_dropShadow_108_593" result="shape"/>
</filter>
<filter id="filter5_d_108_593" x="1092" y="319" width="114" height="70" filterUnits="userSpaceOnUse" color-interpolation-filters="sRGB">
<feFlood flood-opacity="0" result="BackgroundImageFix"/>
<feColorMatrix in="SourceAlpha" type="matrix" values="0 0 0 0 0 0 0 0 0 0 0 0 0 0 0 0 0 0 127 0" result="hardAlpha"/>
<feOffset dy="4"/>
<feGaussianBlur stdDeviation="9"/>
<feComposite in2="hardAlpha" operator="out"/>
<feColorMatrix type="matrix" values="0 0 0 0 0 0 0 0 0 0 0 0 0 0 0 0 0 0 0.05 0"/>
<feBlend mode="normal" in2="BackgroundImageFix" result="effect1_dropShadow_108_593"/>
<feBlend mode="normal" in="SourceGraphic" in2="effect1_dropShadow_108_593" result="shape"/>
</filter>
<filter id="filter6_d_108_593" x="386.5" y="360" width="127" height="70" filterUnits="userSpaceOnUse" color-interpolation-filters="sRGB">
<feFlood flood-opacity="0" result="BackgroundImageFix"/>
<feColorMatrix in="SourceAlpha" type="matrix" values="0 0 0 0 0 0 0 0 0 0 0 0 0 0 0 0 0 0 127 0" result="hardAlpha"/>
<feOffset dy="4"/>
<feGaussianBlur stdDeviation="9"/>
<feComposite in2="hardAlpha" operator="out"/>
<feColorMatrix type="matrix" values="0 0 0 0 0 0 0 0 0 0 0 0 0 0 0 0 0 0 0.05 0"/>
<feBlend mode="normal" in2="BackgroundImageFix" result="effect1_dropShadow_108_593"/>
<feBlend mode="normal" in="SourceGraphic" in2="effect1_dropShadow_108_593" result="shape"/>
</filter>
<filter id="filter7_d_108_593" x="55" y="268" width="130" height="70" filterUnits="userSpaceOnUse" color-interpolation-filters="sRGB">
<feFlood flood-opacity="0" result="BackgroundImageFix"/>
<feColorMatrix in="SourceAlpha" type="matrix" values="0 0 0 0 0 0 0 0 0 0 0 0 0 0 0 0 0 0 127 0" result="hardAlpha"/>
<feOffset dy="4"/>
<feGaussianBlur stdDeviation="9"/>
<feComposite in2="hardAlpha" operator="out"/>
<feColorMatrix type="matrix" values="0 0 0 0 0 0 0 0 0 0 0 0 0 0 0 0 0 0 0.05 0"/>
<feBlend mode="normal" in2="BackgroundImageFix" result="effect1_dropShadow_108_593"/>
<feBlend mode="normal" in="SourceGraphic" in2="effect1_dropShadow_108_593" result="shape"/>
</filter>
<filter id="filter8_d_108_593" x="1152" y="187" width="126" height="70" filterUnits="userSpaceOnUse" color-interpolation-filters="sRGB">
<feFlood flood-opacity="0" result="BackgroundImageFix"/>
<feColorMatrix in="SourceAlpha" type="matrix" values="0 0 0 0 0 0 0 0 0 0 0 0 0 0 0 0 0 0 127 0" result="hardAlpha"/>
<feOffset dy="4"/>
<feGaussianBlur stdDeviation="9"/>
<feComposite in2="hardAlpha" operator="out"/>
<feColorMatrix type="matrix" values="0 0 0 0 0 0 0 0 0 0 0 0 0 0 0 0 0 0 0.05 0"/>
<feBlend mode="normal" in2="BackgroundImageFix" result="effect1_dropShadow_108_593"/>
<feBlend mode="normal" in="SourceGraphic" in2="effect1_dropShadow_108_593" result="shape"/>
</filter>
<filter id="filter9_d_108_593" x="97" y="112" width="115" height="70" filterUnits="userSpaceOnUse" color-interpolation-filters="sRGB">
<feFlood flood-opacity="0" result="BackgroundImageFix"/>
<feColorMatrix in="SourceAlpha" type="matrix" values="0 0 0 0 0 0 0 0 0 0 0 0 0 0 0 0 0 0 127 0" result="hardAlpha"/>
<feOffset dy="4"/>
<feGaussianBlur stdDeviation="9"/>
<feComposite in2="hardAlpha" operator="out"/>
<feColorMatrix type="matrix" values="0 0 0 0 0 0 0 0 0 0 0 0 0 0 0 0 0 0 0.05 0"/>
<feBlend mode="normal" in2="BackgroundImageFix" result="effect1_dropShadow_108_593"/>
<feBlend mode="normal" in="SourceGraphic" in2="effect1_dropShadow_108_593" result="shape"/>
</filter>
<filter id="filter10_d_108_593" x="1044" y="95" width="104" height="70" filterUnits="userSpaceOnUse" color-interpolation-filters="sRGB">
<feFlood flood-opacity="0" result="BackgroundImageFix"/>
<feColorMatrix in="SourceAlpha" type="matrix" values="0 0 0 0 0 0 0 0 0 0 0 0 0 0 0 0 0 0 127 0" result="hardAlpha"/>
<feOffset dy="4"/>
<feGaussianBlur stdDeviation="9"/>
<feComposite in2="hardAlpha" operator="out"/>
<feColorMatrix type="matrix" values="0 0 0 0 0 0 0 0 0 0 0 0 0 0 0 0 0 0 0.05 0"/>
<feBlend mode="normal" in2="BackgroundImageFix" result="effect1_dropShadow_108_593"/>
<feBlend mode="normal" in="SourceGraphic" in2="effect1_dropShadow_108_593" result="shape"/>
</filter>
<filter id="filter11_d_108_593" x="253" y="58" width="101" height="70" filterUnits="userSpaceOnUse" color-interpolation-filters="sRGB">
<feFlood flood-opacity="0" result="BackgroundImageFix"/>
<feColorMatrix in="SourceAlpha" type="matrix" values="0 0 0 0 0 0 0 0 0 0 0 0 0 0 0 0 0 0 127 0" result="hardAlpha"/>
<feOffset dy="4"/>
<feGaussianBlur stdDeviation="9"/>
<feComposite in2="hardAlpha" operator="out"/>
<feColorMatrix type="matrix" values="0 0 0 0 0 0 0 0 0 0 0 0 0 0 0 0 0 0 0.05 0"/>
<feBlend mode="normal" in2="BackgroundImageFix" result="effect1_dropShadow_108_593"/>
<feBlend mode="normal" in="SourceGraphic" in2="effect1_dropShadow_108_593" result="shape"/>
</filter>
<filter id="filter12_d_108_593" x="497" y="19" width="105" height="70" filterUnits="userSpaceOnUse" color-interpolation-filters="sRGB">
<feFlood flood-opacity="0" result="BackgroundImageFix"/>
<feColorMatrix in="SourceAlpha" type="matrix" values="0 0 0 0 0 0 0 0 0 0 0 0 0 0 0 0 0 0 127 0" result="hardAlpha"/>
<feOffset dy="4"/>
<feGaussianBlur stdDeviation="9"/>
<feComposite in2="hardAlpha" operator="out"/>
<feColorMatrix type="matrix" values="0 0 0 0 0 0 0 0 0 0 0 0 0 0 0 0 0 0 0.05 0"/>
<feBlend mode="normal" in2="BackgroundImageFix" result="effect1_dropShadow_108_593"/>
<feBlend mode="normal" in="SourceGraphic" in2="effect1_dropShadow_108_593" result="shape"/>
</filter>
</defs>
</svg>
