<svg width="1296" height="434" viewBox="0 0 1296 434" fill="none" xmlns="http://www.w3.org/2000/svg">
<g filter="url(#filter0_d_1649_8831)">
<rect x="565.5" y="378" width="64" height="34" rx="16" fill="white" shape-rendering="crispEdges"/>
<rect x="566" y="378.5" width="63" height="33" rx="15.5" stroke="#E9EDF3" shape-rendering="crispEdges"/>
<path d="M584.34 400V390.13H590.234V391.166H585.474V394.4H589.674V395.394H585.474V398.964H590.374V400H584.34ZM593.424 400.224C592.038 400.224 591.212 399.342 591.212 397.83V392.93H592.276V397.746C592.276 398.712 592.836 399.3 593.732 399.3C594.936 399.3 595.734 398.488 595.734 397.228V392.93H596.798V400H595.832L595.734 399.034H595.72C595.258 399.79 594.46 400.224 593.424 400.224ZM600.986 392.692C602.106 392.692 602.82 393.49 602.89 394.932L601.952 395.24C601.91 394.204 601.476 393.644 600.79 393.644C599.852 393.644 599.264 394.624 599.264 396.234V400H598.2V392.93H599.082L599.194 394.036H599.208C599.516 393.196 600.188 392.692 600.986 392.692ZM606.803 400.238C604.773 400.238 603.457 398.754 603.457 396.458C603.457 394.176 604.773 392.692 606.803 392.692C608.833 392.692 610.149 394.176 610.149 396.458C610.149 398.754 608.833 400.238 606.803 400.238ZM606.803 399.272C608.189 399.272 609.085 398.166 609.085 396.458C609.085 394.764 608.189 393.672 606.803 393.672C605.417 393.672 604.521 394.764 604.521 396.458C604.521 398.166 605.417 399.272 606.803 399.272Z" fill="black"/>
</g>
<g filter="url(#filter1_d_1649_8831)">
<rect x="343" y="296" width="67" height="34" rx="16" fill="white" shape-rendering="crispEdges"/>
<rect x="343.5" y="296.5" width="66" height="33" rx="15.5" stroke="#E9EDF3" shape-rendering="crispEdges"/>
<path d="M365.144 318.294C362.932 318.294 361.392 316.894 361.28 314.864L362.428 314.64C362.484 316.208 363.632 317.258 365.172 317.258C366.53 317.258 367.37 316.474 367.37 315.466C367.37 314.64 366.838 314.108 365.592 313.73L364.066 313.268C362.484 312.778 361.77 311.98 361.77 310.678C361.77 309.04 362.918 307.836 364.808 307.836C366.614 307.836 367.832 308.998 367.972 310.72L366.852 310.986C366.796 309.712 365.97 308.872 364.822 308.872C363.66 308.872 362.932 309.6 362.932 310.552C362.932 311.378 363.408 311.868 364.514 312.204L366.04 312.666C367.734 313.17 368.532 313.996 368.546 315.354C368.546 317.02 367.272 318.294 365.144 318.294ZM369.66 318V308.13H375.554V309.166H370.794V312.4H374.994V313.394H370.794V316.964H375.694V318H369.66ZM376.879 318V308.13H380.421C382.367 308.13 383.725 309.362 383.725 311.098C383.725 312.834 382.353 314.052 380.421 314.052H378.013V318H376.879ZM378.013 313.002H380.351C381.639 313.002 382.563 312.218 382.563 311.098C382.563 309.964 381.653 309.166 380.351 309.166H378.013V313.002ZM383.165 318L386.525 308.13H387.995L391.369 318H390.151L389.367 315.634H385.167L384.383 318H383.165ZM385.475 314.598H389.059L387.295 309.222H387.267L385.475 314.598Z" fill="black"/>
</g>
<g filter="url(#filter2_d_1649_8831)">
<path d="M876 114C876 105.163 883.163 98 892 98H918C926.837 98 934 105.163 934 114V116C934 124.837 926.837 132 918 132H892C883.163 132 876 124.837 876 116V114Z" fill="white" shape-rendering="crispEdges"/>
<path d="M892 98.5H918C926.56 98.5 933.5 105.44 933.5 114V116C933.5 124.56 926.56 131.5 918 131.5H892C883.44 131.5 876.5 124.56 876.5 116V114C876.5 105.44 883.44 98.5 892 98.5Z" stroke="#E9EDF3" shape-rendering="crispEdges"/>
<path d="M894.84 120V110.13H900.3V111.166H896.002V114.582H899.488V115.562H896.002V120H894.84ZM901.92 111.558C901.444 111.558 901.136 111.236 901.136 110.774C901.136 110.326 901.444 110.004 901.92 110.004C902.382 110.004 902.704 110.326 902.704 110.774C902.704 111.236 902.382 111.558 901.92 111.558ZM901.374 120V112.93H902.438V120H901.374ZM905.958 120.21C904.558 120.21 903.55 119.398 903.55 118.166C903.55 117.004 904.404 116.094 906.434 115.842L907.792 115.674C908.128 115.632 908.352 115.422 908.352 115.058C908.352 114.204 907.638 113.658 906.63 113.658C905.482 113.658 904.698 114.47 904.67 115.38L903.718 114.974C903.802 113.728 904.992 112.692 906.672 112.692C908.31 112.692 909.388 113.686 909.388 115.212V120H908.436L908.324 118.922H908.31C907.848 119.734 907.022 120.21 905.958 120.21ZM906.182 119.244C907.414 119.244 908.324 118.334 908.324 117.018V116.542L906.588 116.752C905.16 116.934 904.614 117.466 904.614 118.11C904.614 118.81 905.272 119.244 906.182 119.244ZM913.315 120.238C912.111 120.238 911.327 119.44 911.327 118.222V113.812H909.955V112.93H911.327V110.886L912.391 110.634V112.93H915.037V113.812H912.391L912.405 118.082C912.405 118.81 912.755 119.314 913.399 119.314C914.001 119.314 914.477 118.866 914.533 117.956L915.443 118.334C915.345 119.51 914.463 120.238 913.315 120.238Z" fill="black"/>
</g>
<g filter="url(#filter3_d_1649_8831)">
<rect x="787" y="14" width="82" height="34" rx="16" fill="white" shape-rendering="crispEdges"/>
<rect x="787.5" y="14.5" width="81" height="33" rx="15.5" stroke="#E9EDF3" shape-rendering="crispEdges"/>
<path d="M805.84 36V26.13H809.732C811.538 26.13 812.616 27.11 812.616 28.748C812.616 29.84 812.042 30.638 811.09 30.89V30.904C812.224 31.17 812.91 32.038 812.91 33.284C812.91 34.978 811.72 36 809.732 36H805.84ZM807.002 30.4H809.592C810.768 30.4 811.454 29.798 811.454 28.79C811.454 27.782 810.768 27.166 809.592 27.166H807.002V30.4ZM807.002 34.964H809.578C810.936 34.964 811.748 34.306 811.748 33.186C811.748 32.094 810.936 31.436 809.578 31.436H807.002V34.964ZM816.014 36.21C814.614 36.21 813.606 35.398 813.606 34.166C813.606 33.004 814.46 32.094 816.49 31.842L817.848 31.674C818.184 31.632 818.408 31.422 818.408 31.058C818.408 30.204 817.694 29.658 816.686 29.658C815.538 29.658 814.754 30.47 814.726 31.38L813.774 30.974C813.858 29.728 815.048 28.692 816.728 28.692C818.366 28.692 819.444 29.686 819.444 31.212V36H818.492L818.38 34.922H818.366C817.904 35.734 817.078 36.21 816.014 36.21ZM816.238 35.244C817.47 35.244 818.38 34.334 818.38 33.018V32.542L816.644 32.752C815.216 32.934 814.67 33.466 814.67 34.11C814.67 34.81 815.328 35.244 816.238 35.244ZM824.154 28.706C825.54 28.706 826.366 29.588 826.366 31.1V36H825.302V31.184C825.302 30.218 824.742 29.63 823.846 29.63C822.642 29.63 821.844 30.442 821.844 31.702V36H820.78V28.93H821.746L821.844 29.896H821.858C822.32 29.14 823.118 28.706 824.154 28.706ZM827.698 36V25.71H828.762V31.94H828.776L831.436 28.93H832.794L830.386 31.604L832.976 36H831.744L829.672 32.388L828.762 33.396V36H827.698ZM834.317 27.558C833.841 27.558 833.533 27.236 833.533 26.774C833.533 26.326 833.841 26.004 834.317 26.004C834.779 26.004 835.101 26.326 835.101 26.774C835.101 27.236 834.779 27.558 834.317 27.558ZM833.771 36V28.93H834.835V36H833.771ZM839.74 28.706C841.126 28.706 841.952 29.588 841.952 31.1V36H840.888V31.184C840.888 30.218 840.328 29.63 839.432 29.63C838.228 29.63 837.43 30.442 837.43 31.702V36H836.366V28.93H837.332L837.43 29.896H837.444C837.906 29.14 838.704 28.706 839.74 28.706ZM845.972 39.178C844.446 39.178 843.074 38.464 842.5 37.358L843.34 36.686C843.816 37.61 844.838 38.212 845.93 38.212C847.47 38.212 848.464 37.218 848.464 35.622V34.712H848.45C847.988 35.552 847.05 36.14 846.126 36.14C844.278 36.14 843.032 34.642 843.032 32.43C843.032 30.218 844.278 28.706 846.126 28.706C847.078 28.706 848.016 29.238 848.45 30.036H848.464L848.576 28.93H849.528V35.622C849.528 37.806 848.156 39.178 845.972 39.178ZM846.294 35.174C847.596 35.174 848.492 34.026 848.492 32.43C848.492 30.806 847.596 29.658 846.294 29.658C844.992 29.658 844.096 30.778 844.096 32.43C844.096 34.068 844.992 35.174 846.294 35.174Z" fill="black"/>
</g>
<rect x="388.5" y="232.5" width="90" height="41" rx="15.5" fill="white"/>
<rect x="388.5" y="232.5" width="90" height="41" rx="15.5" stroke="#E9EDF3"/>
<path d="M411.194 258.294C408.352 258.294 406.49 256.236 406.49 253.072C406.49 249.894 408.338 247.836 411.194 247.836C414.036 247.836 415.898 249.894 415.898 253.058C415.898 256.236 414.036 258.294 411.194 258.294ZM411.194 257.258C413.336 257.258 414.722 255.606 414.722 253.072C414.722 250.524 413.336 248.872 411.194 248.872C409.052 248.872 407.652 250.524 407.652 253.072C407.652 255.606 409.052 257.258 411.194 257.258ZM420.465 250.706C421.851 250.706 422.677 251.588 422.677 253.1V258H421.613V253.184C421.613 252.218 421.053 251.63 420.157 251.63C418.953 251.63 418.155 252.442 418.155 253.702V258H417.091V250.93H418.057L418.155 251.896H418.169C418.631 251.14 419.429 250.706 420.465 250.706ZM424.009 254.822V253.856H428.461V254.822H424.009ZM432.646 250.692C433.766 250.692 434.48 251.49 434.55 252.932L433.612 253.24C433.57 252.204 433.136 251.644 432.45 251.644C431.512 251.644 430.924 252.624 430.924 254.234V258H429.86V250.93H430.742L430.854 252.036H430.868C431.176 251.196 431.848 250.692 432.646 250.692ZM437.481 258.21C436.081 258.21 435.073 257.398 435.073 256.166C435.073 255.004 435.927 254.094 437.957 253.842L439.315 253.674C439.651 253.632 439.875 253.422 439.875 253.058C439.875 252.204 439.161 251.658 438.153 251.658C437.005 251.658 436.221 252.47 436.193 253.38L435.241 252.974C435.325 251.728 436.515 250.692 438.195 250.692C439.833 250.692 440.911 251.686 440.911 253.212V258H439.959L439.847 256.922H439.833C439.371 257.734 438.545 258.21 437.481 258.21ZM437.705 257.244C438.937 257.244 439.847 256.334 439.847 255.018V254.542L438.111 254.752C436.683 254.934 436.137 255.466 436.137 256.11C436.137 256.81 436.795 257.244 437.705 257.244ZM442.247 258V250.93H443.171L443.283 251.91H443.297C443.675 251.154 444.487 250.692 445.481 250.692C446.475 250.692 447.189 251.182 447.525 251.994H447.539C448.057 251.14 448.925 250.692 449.877 250.692C451.277 250.692 452.103 251.602 452.103 253.142V258H451.025L451.039 253.17C451.039 252.218 450.493 251.672 449.569 251.672C448.407 251.672 447.707 252.54 447.707 253.884V258H446.629L446.643 253.17C446.643 252.218 446.097 251.672 445.173 251.672C444.011 251.672 443.311 252.54 443.311 253.884V258H442.247ZM453.43 260.94V250.93H454.354L454.466 252.106H454.48C454.956 251.21 455.81 250.692 456.874 250.692C458.722 250.692 459.982 252.204 459.982 254.472C459.982 256.726 458.722 258.238 456.874 258.238C455.824 258.238 454.998 257.734 454.508 256.88H454.494V260.94H453.43ZM456.692 257.23C458.022 257.23 458.918 256.11 458.918 254.472C458.918 252.82 458.008 251.7 456.692 251.7C455.362 251.7 454.466 252.834 454.466 254.472C454.466 256.11 455.362 257.23 456.692 257.23Z" fill="black"/>
<g filter="url(#filter4_d_1649_8831)">
<rect x="805" y="352" width="153" height="34" rx="16" fill="white" shape-rendering="crispEdges"/>
<rect x="805.5" y="352.5" width="152" height="33" rx="15.5" stroke="#E9EDF3" shape-rendering="crispEdges"/>
<path d="M827.144 374.294C824.932 374.294 823.392 372.894 823.28 370.864L824.428 370.64C824.484 372.208 825.632 373.258 827.172 373.258C828.53 373.258 829.37 372.474 829.37 371.466C829.37 370.64 828.838 370.108 827.592 369.73L826.066 369.268C824.484 368.778 823.77 367.98 823.77 366.678C823.77 365.04 824.918 363.836 826.808 363.836C828.614 363.836 829.832 364.998 829.972 366.72L828.852 366.986C828.796 365.712 827.97 364.872 826.822 364.872C825.66 364.872 824.932 365.6 824.932 366.552C824.932 367.378 825.408 367.868 826.514 368.204L828.04 368.666C829.734 369.17 830.532 369.996 830.546 371.354C830.546 373.02 829.272 374.294 827.144 374.294ZM834.74 374.238C832.64 374.238 831.24 372.712 831.24 370.388C831.24 368.162 832.514 366.692 834.446 366.692C836.322 366.692 837.512 368.162 837.512 370.402V370.822H832.332C832.43 372.306 833.382 373.272 834.74 373.272C835.734 373.272 836.504 372.74 836.812 371.858L837.736 372.278C837.344 373.482 836.168 374.238 834.74 374.238ZM832.332 369.898H836.392C836.294 368.484 835.58 367.672 834.446 367.672C833.228 367.672 832.486 368.54 832.332 369.898ZM841.194 374.238C839.99 374.238 839.206 373.44 839.206 372.222V367.812H837.834V366.93H839.206V364.886L840.27 364.634V366.93H842.916V367.812H840.27L840.284 372.082C840.284 372.81 840.634 373.314 841.278 373.314C841.88 373.314 842.356 372.866 842.412 371.956L843.322 372.334C843.224 373.51 842.342 374.238 841.194 374.238ZM846.745 374.238C845.541 374.238 844.757 373.44 844.757 372.222V367.812H843.385V366.93H844.757V364.886L845.821 364.634V366.93H848.467V367.812H845.821L845.835 372.082C845.835 372.81 846.185 373.314 846.829 373.314C847.431 373.314 847.907 372.866 847.963 371.956L848.873 372.334C848.775 373.51 847.893 374.238 846.745 374.238ZM849.595 374V363.71H850.659V374H849.595ZM855.275 374.238C853.175 374.238 851.775 372.712 851.775 370.388C851.775 368.162 853.049 366.692 854.981 366.692C856.857 366.692 858.047 368.162 858.047 370.402V370.822H852.867C852.965 372.306 853.917 373.272 855.275 373.272C856.269 373.272 857.039 372.74 857.347 371.858L858.271 372.278C857.879 373.482 856.703 374.238 855.275 374.238ZM852.867 369.898H856.927C856.829 368.484 856.115 367.672 854.981 367.672C853.763 367.672 853.021 368.54 852.867 369.898ZM859.302 374V366.93H860.226L860.338 367.91H860.352C860.73 367.154 861.542 366.692 862.536 366.692C863.53 366.692 864.244 367.182 864.58 367.994H864.594C865.112 367.14 865.98 366.692 866.932 366.692C868.332 366.692 869.158 367.602 869.158 369.142V374H868.08L868.094 369.17C868.094 368.218 867.548 367.672 866.624 367.672C865.462 367.672 864.762 368.54 864.762 369.884V374H863.684L863.698 369.17C863.698 368.218 863.152 367.672 862.228 367.672C861.066 367.672 860.366 368.54 860.366 369.884V374H859.302ZM873.705 374.238C871.605 374.238 870.205 372.712 870.205 370.388C870.205 368.162 871.479 366.692 873.411 366.692C875.287 366.692 876.477 368.162 876.477 370.402V370.822H871.297C871.395 372.306 872.347 373.272 873.705 373.272C874.699 373.272 875.469 372.74 875.777 371.858L876.701 372.278C876.309 373.482 875.133 374.238 873.705 374.238ZM871.297 369.898H875.357C875.259 368.484 874.545 367.672 873.411 367.672C872.193 367.672 871.451 368.54 871.297 369.898ZM881.105 366.706C882.491 366.706 883.317 367.588 883.317 369.1V374H882.253V369.184C882.253 368.218 881.693 367.63 880.797 367.63C879.593 367.63 878.795 368.442 878.795 369.702V374H877.731V366.93H878.697L878.795 367.896H878.809C879.271 367.14 880.069 366.706 881.105 366.706ZM887.036 374.238C885.832 374.238 885.048 373.44 885.048 372.222V367.812H883.676V366.93H885.048V364.886L886.112 364.634V366.93H888.758V367.812H886.112L886.126 372.082C886.126 372.81 886.476 373.314 887.12 373.314C887.722 373.314 888.198 372.866 888.254 371.956L889.164 372.334C889.066 373.51 888.184 374.238 887.036 374.238ZM894.977 374.21C893.577 374.21 892.569 373.398 892.569 372.166C892.569 371.004 893.423 370.094 895.453 369.842L896.811 369.674C897.147 369.632 897.371 369.422 897.371 369.058C897.371 368.204 896.657 367.658 895.649 367.658C894.501 367.658 893.717 368.47 893.689 369.38L892.737 368.974C892.821 367.728 894.011 366.692 895.691 366.692C897.329 366.692 898.407 367.686 898.407 369.212V374H897.455L897.343 372.922H897.329C896.867 373.734 896.041 374.21 894.977 374.21ZM895.201 373.244C896.433 373.244 897.343 372.334 897.343 371.018V370.542L895.607 370.752C894.179 370.934 893.633 371.466 893.633 372.11C893.633 372.81 894.291 373.244 895.201 373.244ZM902.767 374.238C900.765 374.238 899.463 372.74 899.463 370.472C899.463 368.19 900.695 366.692 902.543 366.692C903.957 366.692 905.063 367.644 905.371 369.1L904.349 369.366C904.111 368.316 903.397 367.644 902.543 367.644C901.353 367.644 900.527 368.75 900.527 370.472C900.527 372.18 901.437 373.286 902.767 373.286C903.859 373.286 904.713 372.474 904.895 371.228L905.917 371.466C905.665 373.132 904.405 374.238 902.767 374.238ZM909.917 374.238C907.915 374.238 906.613 372.74 906.613 370.472C906.613 368.19 907.845 366.692 909.693 366.692C911.107 366.692 912.213 367.644 912.521 369.1L911.499 369.366C911.261 368.316 910.547 367.644 909.693 367.644C908.503 367.644 907.677 368.75 907.677 370.472C907.677 372.18 908.587 373.286 909.917 373.286C911.009 373.286 911.863 372.474 912.045 371.228L913.067 371.466C912.815 373.132 911.555 374.238 909.917 374.238ZM917.11 374.238C915.08 374.238 913.764 372.754 913.764 370.458C913.764 368.176 915.08 366.692 917.11 366.692C919.14 366.692 920.456 368.176 920.456 370.458C920.456 372.754 919.14 374.238 917.11 374.238ZM917.11 373.272C918.496 373.272 919.392 372.166 919.392 370.458C919.392 368.764 918.496 367.672 917.11 367.672C915.724 367.672 914.828 368.764 914.828 370.458C914.828 372.166 915.724 373.272 917.11 373.272ZM923.719 374.224C922.333 374.224 921.507 373.342 921.507 371.83V366.93H922.571V371.746C922.571 372.712 923.131 373.3 924.027 373.3C925.231 373.3 926.029 372.488 926.029 371.228V366.93H927.093V374H926.127L926.029 373.034H926.015C925.553 373.79 924.755 374.224 923.719 374.224ZM931.869 366.706C933.255 366.706 934.081 367.588 934.081 369.1V374H933.017V369.184C933.017 368.218 932.457 367.63 931.561 367.63C930.357 367.63 929.559 368.442 929.559 369.702V374H928.495V366.93H929.461L929.559 367.896H929.573C930.035 367.14 930.833 366.706 931.869 366.706ZM937.799 374.238C936.595 374.238 935.811 373.44 935.811 372.222V367.812H934.439V366.93H935.811V364.886L936.875 364.634V366.93H939.521V367.812H936.875L936.889 372.082C936.889 372.81 937.239 373.314 937.883 373.314C938.485 373.314 938.961 372.866 939.017 371.956L939.927 372.334C939.829 373.51 938.947 374.238 937.799 374.238Z" fill="black"/>
</g>
<g filter="url(#filter5_d_1649_8831)">
<rect x="1200" y="331" width="78" height="34" rx="16" fill="white" shape-rendering="crispEdges"/>
<rect x="1200.5" y="331.5" width="77" height="33" rx="15.5" stroke="#E9EDF3" shape-rendering="crispEdges"/>
<path d="M1221.02 353V344.166H1218.14V343.13H1225.07V344.166H1222.19V353H1221.02ZM1232.39 353.266C1231.65 353.266 1231.24 352.79 1231.06 352.132L1230.48 350.032C1230.29 349.29 1229.74 348.786 1229.1 348.786H1227.21V353H1226.05V343.13H1229.85C1231.77 343.13 1233.13 344.292 1233.13 345.986C1233.13 347.26 1232.21 348.338 1230.71 348.604V348.618C1231.21 348.884 1231.51 349.346 1231.66 349.92L1232.12 351.712C1232.21 352.048 1232.35 352.286 1232.63 352.286C1232.86 352.286 1233.12 352.09 1233.33 351.726L1233.91 352.398C1233.54 352.944 1233 353.266 1232.39 353.266ZM1227.21 347.75H1229.81C1231.09 347.75 1231.97 347.036 1231.97 345.986C1231.97 344.88 1231.09 344.166 1229.81 344.166H1227.21V347.75ZM1238.72 353.294C1235.88 353.294 1234.13 351.306 1234.13 348.072C1234.13 344.838 1235.77 342.836 1238.43 342.836C1240.36 342.836 1241.79 344.124 1242.19 346.294L1241.09 346.56C1240.81 344.866 1239.79 343.872 1238.41 343.872C1236.48 343.872 1235.29 345.468 1235.29 348.072C1235.31 350.662 1236.61 352.258 1238.72 352.258C1240.39 352.258 1241.61 351.04 1241.89 349.066L1242.99 349.346C1242.64 351.782 1240.99 353.294 1238.72 353.294ZM1243.98 353V352.314C1243.98 350.48 1244.55 349.528 1246.15 348.506L1247.35 347.722C1248.31 347.092 1248.66 346.532 1248.66 345.65C1248.66 344.6 1248.04 343.872 1247.12 343.872C1246.07 343.872 1245.34 344.782 1245.32 346.336L1244.16 346.098C1244.19 344.152 1245.38 342.836 1247.12 342.836C1248.74 342.836 1249.82 343.998 1249.82 345.692C1249.82 346.924 1249.33 347.708 1248 348.59L1246.78 349.388C1245.58 350.186 1245.21 350.844 1245.21 351.964H1249.99V353H1243.98ZM1254.92 353.294C1252.67 353.294 1251.24 351.236 1251.24 348.072C1251.24 344.894 1252.67 342.836 1254.92 342.836C1257.18 342.836 1258.6 344.894 1258.6 348.072C1258.6 351.236 1257.18 353.294 1254.92 353.294ZM1254.92 352.258C1256.48 352.258 1257.44 350.606 1257.44 348.072C1257.44 345.524 1256.48 343.872 1254.92 343.872C1253.38 343.872 1252.4 345.524 1252.4 348.072C1252.4 350.606 1253.38 352.258 1254.92 352.258Z" fill="black"/>
</g>
<rect x="325.5" y="163.5" width="68" height="41" rx="15.5" fill="white"/>
<rect x="325.5" y="163.5" width="68" height="41" rx="15.5" stroke="#E9EDF3"/>
<path d="M347.284 189.294C345.1 189.294 343.7 187.88 343.7 185.682V179.13H344.862V185.682C344.862 187.18 345.8 188.258 347.284 188.258C348.768 188.258 349.692 187.25 349.692 185.668V179.13H350.854V185.682C350.854 187.88 349.454 189.294 347.284 189.294ZM355.703 189.294C353.491 189.294 351.951 187.894 351.839 185.864L352.987 185.64C353.043 187.208 354.191 188.258 355.731 188.258C357.089 188.258 357.929 187.474 357.929 186.466C357.929 185.64 357.397 185.108 356.151 184.73L354.625 184.268C353.043 183.778 352.329 182.98 352.329 181.678C352.329 180.04 353.477 178.836 355.367 178.836C357.173 178.836 358.391 179.998 358.531 181.72L357.411 181.986C357.355 180.712 356.529 179.872 355.381 179.872C354.219 179.872 353.491 180.6 353.491 181.552C353.491 182.378 353.967 182.868 355.073 183.204L356.599 183.666C358.293 184.17 359.091 184.996 359.105 186.354C359.105 188.02 357.831 189.294 355.703 189.294ZM360.219 189V179.13H363.355C366.477 179.13 368.129 180.922 368.129 184.072C368.129 187.208 366.477 189 363.355 189H360.219ZM361.381 187.964H363.355C365.735 187.964 366.967 186.55 366.967 184.072C366.967 181.594 365.735 180.166 363.355 180.166H361.381V187.964ZM371.085 189V180.166H368.201V179.13H375.131V180.166H372.247V189H371.085Z" fill="black"/>
<g filter="url(#filter6_d_1649_8831)">
<rect x="349.5" y="371" width="91" height="34" rx="16" fill="white" shape-rendering="crispEdges"/>
<rect x="350" y="371.5" width="90" height="33" rx="15.5" stroke="#E9EDF3" shape-rendering="crispEdges"/>
<path d="M372.694 393.294C369.852 393.294 367.99 391.236 367.99 388.072C367.99 384.894 369.838 382.836 372.694 382.836C375.536 382.836 377.398 384.894 377.398 388.058C377.398 391.236 375.536 393.294 372.694 393.294ZM372.694 392.258C374.836 392.258 376.222 390.606 376.222 388.072C376.222 385.524 374.836 383.872 372.694 383.872C370.552 383.872 369.152 385.524 369.152 388.072C369.152 390.606 370.552 392.258 372.694 392.258ZM381.965 385.706C383.351 385.706 384.177 386.588 384.177 388.1V393H383.113V388.184C383.113 387.218 382.553 386.63 381.657 386.63C380.453 386.63 379.655 387.442 379.655 388.702V393H378.591V385.93H379.557L379.655 386.896H379.669C380.131 386.14 380.929 385.706 381.965 385.706ZM385.509 389.822V388.856H389.961V389.822H385.509ZM394.146 385.692C395.266 385.692 395.98 386.49 396.05 387.932L395.112 388.24C395.07 387.204 394.636 386.644 393.95 386.644C393.012 386.644 392.424 387.624 392.424 389.234V393H391.36V385.93H392.242L392.354 387.036H392.368C392.676 386.196 393.348 385.692 394.146 385.692ZM398.981 393.21C397.581 393.21 396.573 392.398 396.573 391.166C396.573 390.004 397.427 389.094 399.457 388.842L400.815 388.674C401.151 388.632 401.375 388.422 401.375 388.058C401.375 387.204 400.661 386.658 399.653 386.658C398.505 386.658 397.721 387.47 397.693 388.38L396.741 387.974C396.825 386.728 398.015 385.692 399.695 385.692C401.333 385.692 402.411 386.686 402.411 388.212V393H401.459L401.347 391.922H401.333C400.871 392.734 400.045 393.21 398.981 393.21ZM399.205 392.244C400.437 392.244 401.347 391.334 401.347 390.018V389.542L399.611 389.752C398.183 389.934 397.637 390.466 397.637 391.11C397.637 391.81 398.295 392.244 399.205 392.244ZM403.747 393V385.93H404.671L404.783 386.91H404.797C405.175 386.154 405.987 385.692 406.981 385.692C407.975 385.692 408.689 386.182 409.025 386.994H409.039C409.557 386.14 410.425 385.692 411.377 385.692C412.777 385.692 413.603 386.602 413.603 388.142V393H412.525L412.539 388.17C412.539 387.218 411.993 386.672 411.069 386.672C409.907 386.672 409.207 387.54 409.207 388.884V393H408.129L408.143 388.17C408.143 387.218 407.597 386.672 406.673 386.672C405.511 386.672 404.811 387.54 404.811 388.884V393H403.747ZM414.93 395.94V385.93H415.854L415.966 387.106H415.98C416.456 386.21 417.31 385.692 418.374 385.692C420.222 385.692 421.482 387.204 421.482 389.472C421.482 391.726 420.222 393.238 418.374 393.238C417.324 393.238 416.498 392.734 416.008 391.88H415.994V395.94H414.93ZM418.192 392.23C419.522 392.23 420.418 391.11 420.418 389.472C420.418 387.82 419.508 386.7 418.192 386.7C416.862 386.7 415.966 387.834 415.966 389.472C415.966 391.11 416.862 392.23 418.192 392.23Z" fill="black"/>
</g>
<g filter="url(#filter7_d_1649_8831)">
<rect x="18" y="279" width="94" height="34" rx="16" fill="white" shape-rendering="crispEdges"/>
<rect x="18.5" y="279.5" width="93" height="33" rx="15.5" stroke="#E9EDF3" shape-rendering="crispEdges"/>
<path d="M41.194 301.294C38.352 301.294 36.49 299.236 36.49 296.072C36.49 292.894 38.338 290.836 41.194 290.836C44.036 290.836 45.898 292.894 45.898 296.058C45.898 299.236 44.036 301.294 41.194 301.294ZM41.194 300.258C43.336 300.258 44.722 298.606 44.722 296.072C44.722 293.524 43.336 291.872 41.194 291.872C39.052 291.872 37.652 293.524 37.652 296.072C37.652 298.606 39.052 300.258 41.194 300.258ZM47.8186 301L47.8046 294.812H46.3906V293.93H47.8046V292.53C47.8046 291.298 48.6166 290.5 49.8906 290.5C51.0806 290.5 51.9206 291.242 52.0326 292.32L51.1086 292.712C51.0246 291.942 50.5486 291.438 49.9326 291.438C49.3026 291.438 48.8826 291.942 48.8826 292.712V293.93H51.5706V294.812H48.8826V301H47.8186ZM53.5061 301L53.4921 294.812H52.0781V293.93H53.4921V292.53C53.4921 291.298 54.3041 290.5 55.5781 290.5C56.7681 290.5 57.6081 291.242 57.7201 292.32L56.7961 292.712C56.7121 291.942 56.2361 291.438 55.6201 291.438C54.9901 291.438 54.5701 291.942 54.5701 292.712V293.93H57.2581V294.812H54.5701V301H53.5061ZM57.3035 297.822V296.856H61.7555V297.822H57.3035ZM65.9411 293.692C67.0611 293.692 67.7751 294.49 67.8451 295.932L66.9071 296.24C66.8651 295.204 66.4311 294.644 65.7451 294.644C64.8071 294.644 64.2191 295.624 64.2191 297.234V301H63.1551V293.93H64.0371L64.1491 295.036H64.1631C64.4711 294.196 65.1431 293.692 65.9411 293.692ZM70.7759 301.21C69.3759 301.21 68.3679 300.398 68.3679 299.166C68.3679 298.004 69.2219 297.094 71.2519 296.842L72.6099 296.674C72.9459 296.632 73.1699 296.422 73.1699 296.058C73.1699 295.204 72.4559 294.658 71.4479 294.658C70.2999 294.658 69.5159 295.47 69.4879 296.38L68.5359 295.974C68.6199 294.728 69.8099 293.692 71.4899 293.692C73.1279 293.692 74.2059 294.686 74.2059 296.212V301H73.2539L73.1419 299.922H73.1279C72.6659 300.734 71.8399 301.21 70.7759 301.21ZM70.9999 300.244C72.2319 300.244 73.1419 299.334 73.1419 298.018V297.542L71.4059 297.752C69.9779 297.934 69.4319 298.466 69.4319 299.11C69.4319 299.81 70.0899 300.244 70.9999 300.244ZM75.5418 301V293.93H76.4658L76.5778 294.91H76.5918C76.9698 294.154 77.7818 293.692 78.7758 293.692C79.7698 293.692 80.4838 294.182 80.8198 294.994H80.8338C81.3518 294.14 82.2198 293.692 83.1718 293.692C84.5718 293.692 85.3978 294.602 85.3978 296.142V301H84.3198L84.3338 296.17C84.3338 295.218 83.7878 294.672 82.8638 294.672C81.7018 294.672 81.0018 295.54 81.0018 296.884V301H79.9238L79.9378 296.17C79.9378 295.218 79.3918 294.672 78.4678 294.672C77.3058 294.672 76.6058 295.54 76.6058 296.884V301H75.5418ZM86.7254 303.94V293.93H87.6494L87.7614 295.106H87.7754C88.2514 294.21 89.1054 293.692 90.1694 293.692C92.0174 293.692 93.2774 295.204 93.2774 297.472C93.2774 299.726 92.0174 301.238 90.1694 301.238C89.1194 301.238 88.2934 300.734 87.8034 299.88H87.7894V303.94H86.7254ZM89.9874 300.23C91.3174 300.23 92.2134 299.11 92.2134 297.472C92.2134 295.82 91.3034 294.7 89.9874 294.7C88.6574 294.7 87.7614 295.834 87.7614 297.472C87.7614 299.11 88.6574 300.23 89.9874 300.23Z" fill="black"/>
</g>
<g filter="url(#filter8_d_1649_8831)">
<rect x="1110" y="263" width="90" height="34" rx="16" fill="white" shape-rendering="crispEdges"/>
<rect x="1110.5" y="263.5" width="89" height="33" rx="15.5" stroke="#E9EDF3" shape-rendering="crispEdges"/>
<path d="M1128.84 285V275.13H1134.3V276.166H1130V279.582H1133.49V280.562H1130V285H1128.84ZM1135.42 285V275.13H1141.31V276.166H1136.55V279.4H1140.75V280.394H1136.55V283.964H1141.45V285H1135.42ZM1142.63 285V275.13H1145.77C1148.89 275.13 1150.54 276.922 1150.54 280.072C1150.54 283.208 1148.89 285 1145.77 285H1142.63ZM1143.8 283.964H1145.77C1148.15 283.964 1149.38 282.55 1149.38 280.072C1149.38 277.594 1148.15 276.166 1145.77 276.166H1143.8V283.964ZM1153.26 285L1150.78 275.13H1151.98L1154.1 283.81H1154.13L1156.06 275.13H1157.72L1159.67 283.81H1159.7L1161.78 275.13H1162.99L1160.51 285H1158.83L1156.91 276.432H1156.88L1154.92 285H1153.26ZM1163.96 285V275.13H1165.13V285H1163.96ZM1173.15 285.266C1172.41 285.266 1172 284.79 1171.82 284.132L1171.24 282.032C1171.05 281.29 1170.5 280.786 1169.86 280.786H1167.97V285H1166.81V275.13H1170.61C1172.53 275.13 1173.89 276.292 1173.89 277.986C1173.89 279.26 1172.97 280.338 1171.47 280.604V280.618C1171.97 280.884 1172.27 281.346 1172.42 281.92L1172.88 283.712C1172.97 284.048 1173.11 284.286 1173.39 284.286C1173.62 284.286 1173.88 284.09 1174.09 283.726L1174.67 284.398C1174.3 284.944 1173.76 285.266 1173.15 285.266ZM1167.97 279.75H1170.57C1171.85 279.75 1172.73 279.036 1172.73 277.986C1172.73 276.88 1171.85 276.166 1170.57 276.166H1167.97V279.75ZM1175.52 285V275.13H1181.41V276.166H1176.65V279.4H1180.85V280.394H1176.65V283.964H1181.55V285H1175.52Z" fill="black"/>
</g>
<g filter="url(#filter9_d_1649_8831)">
<rect x="60" y="123" width="79" height="34" rx="16" fill="white" shape-rendering="crispEdges"/>
<rect x="60.5" y="123.5" width="78" height="33" rx="15.5" stroke="#E9EDF3" shape-rendering="crispEdges"/>
<path d="M83.082 145.294C80.24 145.294 78.49 143.306 78.49 140.072C78.49 136.838 80.128 134.836 82.788 134.836C84.72 134.836 86.148 136.124 86.554 138.294L85.448 138.56C85.168 136.866 84.146 135.872 82.774 135.872C80.842 135.872 79.652 137.468 79.652 140.072C79.666 142.662 80.968 144.258 83.082 144.258C84.748 144.258 85.966 143.04 86.246 141.066L87.352 141.346C87.002 143.782 85.35 145.294 83.082 145.294ZM91.1247 137.692C92.2447 137.692 92.9587 138.49 93.0287 139.932L92.0907 140.24C92.0487 139.204 91.6147 138.644 90.9287 138.644C89.9907 138.644 89.4027 139.624 89.4027 141.234V145H88.3387V137.93H89.2207L89.3327 139.036H89.3467C89.6547 138.196 90.3267 137.692 91.1247 137.692ZM96.2665 148.178C94.7685 148.178 93.6065 147.492 93.0885 146.372L93.9705 145.728C94.3765 146.638 95.2025 147.212 96.2665 147.212C97.5965 147.212 98.4225 146.358 98.4225 144.944V144.342H98.4085C98.0025 145.07 97.2185 145.518 96.3785 145.518C94.8525 145.518 93.9005 144.426 93.9005 142.788V137.93H94.9645V142.788C94.9645 143.852 95.5665 144.552 96.5465 144.552C97.6105 144.552 98.4085 143.782 98.4085 142.62V137.93H99.4865V144.944C99.4865 146.974 98.2685 148.178 96.2665 148.178ZM100.889 147.94V137.93H101.813L101.925 139.106H101.939C102.415 138.21 103.269 137.692 104.333 137.692C106.181 137.692 107.441 139.204 107.441 141.472C107.441 143.726 106.181 145.238 104.333 145.238C103.283 145.238 102.457 144.734 101.967 143.88H101.953V147.94H100.889ZM104.151 144.23C105.481 144.23 106.377 143.11 106.377 141.472C106.377 139.82 105.467 138.7 104.151 138.7C102.821 138.7 101.925 139.834 101.925 141.472C101.925 143.11 102.821 144.23 104.151 144.23ZM111.001 145.238C109.797 145.238 109.013 144.44 109.013 143.222V138.812H107.641V137.93H109.013V135.886L110.077 135.634V137.93H112.723V138.812H110.077L110.091 143.082C110.091 143.81 110.441 144.314 111.085 144.314C111.687 144.314 112.163 143.866 112.219 142.956L113.129 143.334C113.031 144.51 112.149 145.238 111.001 145.238ZM116.916 145.238C114.886 145.238 113.57 143.754 113.57 141.458C113.57 139.176 114.886 137.692 116.916 137.692C118.946 137.692 120.262 139.176 120.262 141.458C120.262 143.754 118.946 145.238 116.916 145.238ZM116.916 144.272C118.302 144.272 119.198 143.166 119.198 141.458C119.198 139.764 118.302 138.672 116.916 138.672C115.53 138.672 114.634 139.764 114.634 141.458C114.634 143.166 115.53 144.272 116.916 144.272Z" fill="black"/>
</g>
<rect x="944.5" y="225.5" width="89" height="41" rx="15.5" fill="white"/>
<rect x="944.5" y="225.5" width="89" height="41" rx="15.5" stroke="#E9EDF3"/>
<path d="M962.84 251V241.13H968.3V242.166H964.002V245.582H967.488V246.562H964.002V251H962.84ZM969.416 251V241.13H975.31V242.166H970.55V245.4H974.75V246.394H970.55V249.964H975.45V251H969.416ZM976.635 251V241.13H979.771C982.893 241.13 984.545 242.922 984.545 246.072C984.545 249.208 982.893 251 979.771 251H976.635ZM977.797 249.964H979.771C982.151 249.964 983.383 248.55 983.383 246.072C983.383 243.594 982.151 242.166 979.771 242.166H977.797V249.964ZM987.259 251L984.781 241.13H985.985L988.099 249.81H988.127L990.059 241.13H991.725L993.671 249.81H993.699L995.785 241.13H996.989L994.511 251H992.831L990.913 242.432H990.885L988.925 251H987.259ZM997.963 251V241.13H999.125V251H997.963ZM1007.15 251.266C1006.41 251.266 1006 250.79 1005.82 250.132L1005.24 248.032C1005.05 247.29 1004.5 246.786 1003.86 246.786H1001.97V251H1000.81V241.13H1004.61C1006.53 241.13 1007.89 242.292 1007.89 243.986C1007.89 245.26 1006.97 246.338 1005.47 246.604V246.618C1005.97 246.884 1006.27 247.346 1006.42 247.92L1006.88 249.712C1006.97 250.048 1007.11 250.286 1007.39 250.286C1007.62 250.286 1007.88 250.09 1008.09 249.726L1008.67 250.398C1008.3 250.944 1007.76 251.266 1007.15 251.266ZM1001.97 245.75H1004.57C1005.85 245.75 1006.73 245.036 1006.73 243.986C1006.73 242.88 1005.85 242.166 1004.57 242.166H1001.97V245.75ZM1009.52 251V241.13H1015.41V242.166H1010.65V245.4H1014.85V246.394H1010.65V249.964H1015.55V251H1009.52Z" fill="black"/>
<g filter="url(#filter10_d_1649_8831)">
<rect x="1007" y="106" width="68" height="34" rx="16" fill="white" shape-rendering="crispEdges"/>
<rect x="1007.5" y="106.5" width="67" height="33" rx="15.5" stroke="#E9EDF3" shape-rendering="crispEdges"/>
<path d="M1029.14 128.294C1026.93 128.294 1025.39 126.894 1025.28 124.864L1026.43 124.64C1026.48 126.208 1027.63 127.258 1029.17 127.258C1030.53 127.258 1031.37 126.474 1031.37 125.466C1031.37 124.64 1030.84 124.108 1029.59 123.73L1028.07 123.268C1026.48 122.778 1025.77 121.98 1025.77 120.678C1025.77 119.04 1026.92 117.836 1028.81 117.836C1030.61 117.836 1031.83 118.998 1031.97 120.72L1030.85 120.986C1030.8 119.712 1029.97 118.872 1028.82 118.872C1027.66 118.872 1026.93 119.6 1026.93 120.552C1026.93 121.378 1027.41 121.868 1028.51 122.204L1030.04 122.666C1031.73 123.17 1032.53 123.996 1032.55 125.354C1032.55 127.02 1031.27 128.294 1029.14 128.294ZM1034.8 128L1032.76 120.93H1033.86L1035.49 126.894H1035.5L1037.1 120.93H1038.51L1040.15 126.908H1040.16L1041.76 120.93H1042.85L1040.85 128H1039.43L1037.81 121.994H1037.8L1036.23 128H1034.8ZM1044.34 119.558C1043.86 119.558 1043.55 119.236 1043.55 118.774C1043.55 118.326 1043.86 118.004 1044.34 118.004C1044.8 118.004 1045.12 118.326 1045.12 118.774C1045.12 119.236 1044.8 119.558 1044.34 119.558ZM1043.79 128V120.93H1044.85V128H1043.79ZM1047.11 128L1047.1 121.812H1045.69V120.93H1047.1V119.53C1047.1 118.298 1047.91 117.5 1049.19 117.5C1050.38 117.5 1051.22 118.242 1051.33 119.32L1050.4 119.712C1050.32 118.942 1049.84 118.438 1049.23 118.438C1048.6 118.438 1048.18 118.942 1048.18 119.712V120.93H1050.87V121.812H1048.18V128H1047.11ZM1054.62 128.238C1053.42 128.238 1052.64 127.44 1052.64 126.222V121.812H1051.26V120.93H1052.64V118.886L1053.7 118.634V120.93H1056.35V121.812H1053.7L1053.71 126.082C1053.71 126.81 1054.06 127.314 1054.71 127.314C1055.31 127.314 1055.79 126.866 1055.84 125.956L1056.75 126.334C1056.65 127.51 1055.77 128.238 1054.62 128.238Z" fill="black"/>
</g>
<g filter="url(#filter11_d_1649_8831)">
<rect x="216" y="69" width="65" height="34" rx="16" fill="white" shape-rendering="crispEdges"/>
<rect x="216.5" y="69.5" width="64" height="33" rx="15.5" stroke="#E9EDF3" shape-rendering="crispEdges"/>
<path d="M234.84 91V81.13H236.002V91H234.84ZM237.684 91V81.13H241.576C243.382 81.13 244.46 82.11 244.46 83.748C244.46 84.84 243.886 85.638 242.934 85.89V85.904C244.068 86.17 244.754 87.038 244.754 88.284C244.754 89.978 243.564 91 241.576 91H237.684ZM238.846 85.4H241.436C242.612 85.4 243.298 84.798 243.298 83.79C243.298 82.782 242.612 82.166 241.436 82.166H238.846V85.4ZM238.846 89.964H241.422C242.78 89.964 243.592 89.306 243.592 88.186C243.592 87.094 242.78 86.436 241.422 86.436H238.846V89.964ZM245.105 91L248.465 81.13H249.935L253.309 91H252.091L251.307 88.634H247.107L246.323 91H245.105ZM247.415 87.598H250.999L249.235 82.222H249.207L247.415 87.598ZM254.295 91V81.13H255.933L260.063 89.488H260.091V81.13H261.253V91H259.629L255.485 82.642H255.457V91H254.295Z" fill="black"/>
</g>
<g filter="url(#filter12_d_1649_8831)">
<rect x="677" y="77" width="90" height="34" rx="16" fill="white" shape-rendering="crispEdges"/>
<rect x="677.5" y="77.5" width="89" height="33" rx="15.5" stroke="#E9EDF3" shape-rendering="crispEdges"/>
<path d="M695.84 99V89.13H701.3V90.166H697.002V93.582H700.488V94.562H697.002V99H695.84ZM702.416 99V89.13H708.31V90.166H703.55V93.4H707.75V94.394H703.55V97.964H708.45V99H702.416ZM709.635 99V89.13H712.771C715.893 89.13 717.545 90.922 717.545 94.072C717.545 97.208 715.893 99 712.771 99H709.635ZM710.797 97.964H712.771C715.151 97.964 716.383 96.55 716.383 94.072C716.383 91.594 715.151 90.166 712.771 90.166H710.797V97.964ZM720.259 99L717.781 89.13H718.985L721.099 97.81H721.127L723.059 89.13H724.725L726.671 97.81H726.699L728.785 89.13H729.989L727.511 99H725.831L723.913 90.432H723.885L721.925 99H720.259ZM730.963 99V89.13H732.125V99H730.963ZM740.149 99.266C739.407 99.266 739.001 98.79 738.819 98.132L738.245 96.032C738.049 95.29 737.503 94.786 736.859 94.786H734.969V99H733.807V89.13H737.615C739.533 89.13 740.891 90.292 740.891 91.986C740.891 93.26 739.967 94.338 738.469 94.604V94.618C738.973 94.884 739.267 95.346 739.421 95.92L739.883 97.712C739.967 98.048 740.107 98.286 740.387 98.286C740.625 98.286 740.877 98.09 741.087 97.726L741.675 98.398C741.297 98.944 740.765 99.266 740.149 99.266ZM734.969 93.75H737.573C738.847 93.75 739.729 93.036 739.729 91.986C739.729 90.88 738.847 90.166 737.573 90.166H734.969V93.75ZM742.516 99V89.13H748.41V90.166H743.65V93.4H747.85V94.394H743.65V97.964H748.55V99H742.516Z" fill="black"/>
</g>
<g filter="url(#filter13_d_1649_8831)">
<rect x="1175.5" y="156" width="58" height="34" rx="16" fill="white" shape-rendering="crispEdges"/>
<rect x="1176" y="156.5" width="57" height="33" rx="15.5" stroke="#E9EDF3" shape-rendering="crispEdges"/>
<path d="M1194.34 178V168.13H1199.8V169.166H1195.5V172.582H1198.99V173.562H1195.5V178H1194.34ZM1201.42 169.558C1200.94 169.558 1200.64 169.236 1200.64 168.774C1200.64 168.326 1200.94 168.004 1201.42 168.004C1201.88 168.004 1202.2 168.326 1202.2 168.774C1202.2 169.236 1201.88 169.558 1201.42 169.558ZM1200.87 178V170.93H1201.94V178H1200.87ZM1205.46 178.21C1204.06 178.21 1203.05 177.398 1203.05 176.166C1203.05 175.004 1203.9 174.094 1205.93 173.842L1207.29 173.674C1207.63 173.632 1207.85 173.422 1207.85 173.058C1207.85 172.204 1207.14 171.658 1206.13 171.658C1204.98 171.658 1204.2 172.47 1204.17 173.38L1203.22 172.974C1203.3 171.728 1204.49 170.692 1206.17 170.692C1207.81 170.692 1208.89 171.686 1208.89 173.212V178H1207.94L1207.82 176.922H1207.81C1207.35 177.734 1206.52 178.21 1205.46 178.21ZM1205.68 177.244C1206.91 177.244 1207.82 176.334 1207.82 175.018V174.542L1206.09 174.752C1204.66 174.934 1204.11 175.466 1204.11 176.11C1204.11 176.81 1204.77 177.244 1205.68 177.244ZM1212.82 178.238C1211.61 178.238 1210.83 177.44 1210.83 176.222V171.812H1209.46V170.93H1210.83V168.886L1211.89 168.634V170.93H1214.54V171.812H1211.89L1211.91 176.082C1211.91 176.81 1212.26 177.314 1212.9 177.314C1213.5 177.314 1213.98 176.866 1214.03 175.956L1214.94 176.334C1214.85 177.51 1213.96 178.238 1212.82 178.238Z" fill="black"/>
</g>
<g filter="url(#filter14_d_1649_8831)">
<rect x="438.5" y="42" width="69" height="34" rx="16" fill="white" shape-rendering="crispEdges"/>
<rect x="439" y="42.5" width="68" height="33" rx="15.5" stroke="#E9EDF3" shape-rendering="crispEdges"/>
<path d="M460.784 64.294C458.6 64.294 457.2 62.88 457.2 60.682V54.13H458.362V60.682C458.362 62.18 459.3 63.258 460.784 63.258C462.268 63.258 463.192 62.25 463.192 60.668V54.13H464.354V60.682C464.354 62.88 462.954 64.294 460.784 64.294ZM469.203 64.294C466.991 64.294 465.451 62.894 465.339 60.864L466.487 60.64C466.543 62.208 467.691 63.258 469.231 63.258C470.589 63.258 471.429 62.474 471.429 61.466C471.429 60.64 470.897 60.108 469.651 59.73L468.125 59.268C466.543 58.778 465.829 57.98 465.829 56.678C465.829 55.04 466.977 53.836 468.867 53.836C470.673 53.836 471.891 54.998 472.031 56.72L470.911 56.986C470.855 55.712 470.029 54.872 468.881 54.872C467.719 54.872 466.991 55.6 466.991 56.552C466.991 57.378 467.467 57.868 468.573 58.204L470.099 58.666C471.793 59.17 472.591 59.996 472.605 61.354C472.605 63.02 471.331 64.294 469.203 64.294ZM473.719 64V54.13H476.855C479.977 54.13 481.629 55.922 481.629 59.072C481.629 62.208 479.977 64 476.855 64H473.719ZM474.881 62.964H476.855C479.235 62.964 480.467 61.55 480.467 59.072C480.467 56.594 479.235 55.166 476.855 55.166H474.881V62.964ZM484.585 64V55.166H481.701V54.13H488.631V55.166H485.747V64H484.585Z" fill="black"/>
</g>
<g filter="url(#filter15_d_1649_8831)">
<rect x="152" y="179" width="69" height="34" rx="16" fill="white" shape-rendering="crispEdges"/>
<rect x="152.5" y="179.5" width="68" height="33" rx="15.5" stroke="#E9EDF3" shape-rendering="crispEdges"/>
<path d="M174.284 201.294C172.1 201.294 170.7 199.88 170.7 197.682V191.13H171.862V197.682C171.862 199.18 172.8 200.258 174.284 200.258C175.768 200.258 176.692 199.25 176.692 197.668V191.13H177.854V197.682C177.854 199.88 176.454 201.294 174.284 201.294ZM182.703 201.294C180.491 201.294 178.951 199.894 178.839 197.864L179.987 197.64C180.043 199.208 181.191 200.258 182.731 200.258C184.089 200.258 184.929 199.474 184.929 198.466C184.929 197.64 184.397 197.108 183.151 196.73L181.625 196.268C180.043 195.778 179.329 194.98 179.329 193.678C179.329 192.04 180.477 190.836 182.367 190.836C184.173 190.836 185.391 191.998 185.531 193.72L184.411 193.986C184.355 192.712 183.529 191.872 182.381 191.872C181.219 191.872 180.491 192.6 180.491 193.552C180.491 194.378 180.967 194.868 182.073 195.204L183.599 195.666C185.293 196.17 186.091 196.996 186.105 198.354C186.105 200.02 184.831 201.294 182.703 201.294ZM187.219 201V191.13H190.355C193.477 191.13 195.129 192.922 195.129 196.072C195.129 199.208 193.477 201 190.355 201H187.219ZM188.381 199.964H190.355C192.735 199.964 193.967 198.55 193.967 196.072C193.967 193.594 192.735 192.166 190.355 192.166H188.381V199.964ZM198.085 201V192.166H195.201V191.13H202.131V192.166H199.247V201H198.085Z" fill="black"/>
</g>
<defs>
<filter id="filter0_d_1649_8831" x="547.5" y="364" width="100" height="70" filterUnits="userSpaceOnUse" color-interpolation-filters="sRGB">
<feFlood flood-opacity="0" result="BackgroundImageFix"/>
<feColorMatrix in="SourceAlpha" type="matrix" values="0 0 0 0 0 0 0 0 0 0 0 0 0 0 0 0 0 0 127 0" result="hardAlpha"/>
<feOffset dy="4"/>
<feGaussianBlur stdDeviation="9"/>
<feComposite in2="hardAlpha" operator="out"/>
<feColorMatrix type="matrix" values="0 0 0 0 0 0 0 0 0 0 0 0 0 0 0 0 0 0 0.05 0"/>
<feBlend mode="normal" in2="BackgroundImageFix" result="effect1_dropShadow_1649_8831"/>
<feBlend mode="normal" in="SourceGraphic" in2="effect1_dropShadow_1649_8831" result="shape"/>
</filter>
<filter id="filter1_d_1649_8831" x="325" y="282" width="103" height="70" filterUnits="userSpaceOnUse" color-interpolation-filters="sRGB">
<feFlood flood-opacity="0" result="BackgroundImageFix"/>
<feColorMatrix in="SourceAlpha" type="matrix" values="0 0 0 0 0 0 0 0 0 0 0 0 0 0 0 0 0 0 127 0" result="hardAlpha"/>
<feOffset dy="4"/>
<feGaussianBlur stdDeviation="9"/>
<feComposite in2="hardAlpha" operator="out"/>
<feColorMatrix type="matrix" values="0 0 0 0 0 0 0 0 0 0 0 0 0 0 0 0 0 0 0.05 0"/>
<feBlend mode="normal" in2="BackgroundImageFix" result="effect1_dropShadow_1649_8831"/>
<feBlend mode="normal" in="SourceGraphic" in2="effect1_dropShadow_1649_8831" result="shape"/>
</filter>
<filter id="filter2_d_1649_8831" x="858" y="84" width="94" height="70" filterUnits="userSpaceOnUse" color-interpolation-filters="sRGB">
<feFlood flood-opacity="0" result="BackgroundImageFix"/>
<feColorMatrix in="SourceAlpha" type="matrix" values="0 0 0 0 0 0 0 0 0 0 0 0 0 0 0 0 0 0 127 0" result="hardAlpha"/>
<feOffset dy="4"/>
<feGaussianBlur stdDeviation="9"/>
<feComposite in2="hardAlpha" operator="out"/>
<feColorMatrix type="matrix" values="0 0 0 0 0 0 0 0 0 0 0 0 0 0 0 0 0 0 0.05 0"/>
<feBlend mode="normal" in2="BackgroundImageFix" result="effect1_dropShadow_1649_8831"/>
<feBlend mode="normal" in="SourceGraphic" in2="effect1_dropShadow_1649_8831" result="shape"/>
</filter>
<filter id="filter3_d_1649_8831" x="769" y="0" width="118" height="70" filterUnits="userSpaceOnUse" color-interpolation-filters="sRGB">
<feFlood flood-opacity="0" result="BackgroundImageFix"/>
<feColorMatrix in="SourceAlpha" type="matrix" values="0 0 0 0 0 0 0 0 0 0 0 0 0 0 0 0 0 0 127 0" result="hardAlpha"/>
<feOffset dy="4"/>
<feGaussianBlur stdDeviation="9"/>
<feComposite in2="hardAlpha" operator="out"/>
<feColorMatrix type="matrix" values="0 0 0 0 0 0 0 0 0 0 0 0 0 0 0 0 0 0 0.05 0"/>
<feBlend mode="normal" in2="BackgroundImageFix" result="effect1_dropShadow_1649_8831"/>
<feBlend mode="normal" in="SourceGraphic" in2="effect1_dropShadow_1649_8831" result="shape"/>
</filter>
<filter id="filter4_d_1649_8831" x="787" y="338" width="189" height="70" filterUnits="userSpaceOnUse" color-interpolation-filters="sRGB">
<feFlood flood-opacity="0" result="BackgroundImageFix"/>
<feColorMatrix in="SourceAlpha" type="matrix" values="0 0 0 0 0 0 0 0 0 0 0 0 0 0 0 0 0 0 127 0" result="hardAlpha"/>
<feOffset dy="4"/>
<feGaussianBlur stdDeviation="9"/>
<feComposite in2="hardAlpha" operator="out"/>
<feColorMatrix type="matrix" values="0 0 0 0 0 0 0 0 0 0 0 0 0 0 0 0 0 0 0.05 0"/>
<feBlend mode="normal" in2="BackgroundImageFix" result="effect1_dropShadow_1649_8831"/>
<feBlend mode="normal" in="SourceGraphic" in2="effect1_dropShadow_1649_8831" result="shape"/>
</filter>
<filter id="filter5_d_1649_8831" x="1182" y="317" width="114" height="70" filterUnits="userSpaceOnUse" color-interpolation-filters="sRGB">
<feFlood flood-opacity="0" result="BackgroundImageFix"/>
<feColorMatrix in="SourceAlpha" type="matrix" values="0 0 0 0 0 0 0 0 0 0 0 0 0 0 0 0 0 0 127 0" result="hardAlpha"/>
<feOffset dy="4"/>
<feGaussianBlur stdDeviation="9"/>
<feComposite in2="hardAlpha" operator="out"/>
<feColorMatrix type="matrix" values="0 0 0 0 0 0 0 0 0 0 0 0 0 0 0 0 0 0 0.05 0"/>
<feBlend mode="normal" in2="BackgroundImageFix" result="effect1_dropShadow_1649_8831"/>
<feBlend mode="normal" in="SourceGraphic" in2="effect1_dropShadow_1649_8831" result="shape"/>
</filter>
<filter id="filter6_d_1649_8831" x="331.5" y="357" width="127" height="70" filterUnits="userSpaceOnUse" color-interpolation-filters="sRGB">
<feFlood flood-opacity="0" result="BackgroundImageFix"/>
<feColorMatrix in="SourceAlpha" type="matrix" values="0 0 0 0 0 0 0 0 0 0 0 0 0 0 0 0 0 0 127 0" result="hardAlpha"/>
<feOffset dy="4"/>
<feGaussianBlur stdDeviation="9"/>
<feComposite in2="hardAlpha" operator="out"/>
<feColorMatrix type="matrix" values="0 0 0 0 0 0 0 0 0 0 0 0 0 0 0 0 0 0 0.05 0"/>
<feBlend mode="normal" in2="BackgroundImageFix" result="effect1_dropShadow_1649_8831"/>
<feBlend mode="normal" in="SourceGraphic" in2="effect1_dropShadow_1649_8831" result="shape"/>
</filter>
<filter id="filter7_d_1649_8831" x="0" y="265" width="130" height="70" filterUnits="userSpaceOnUse" color-interpolation-filters="sRGB">
<feFlood flood-opacity="0" result="BackgroundImageFix"/>
<feColorMatrix in="SourceAlpha" type="matrix" values="0 0 0 0 0 0 0 0 0 0 0 0 0 0 0 0 0 0 127 0" result="hardAlpha"/>
<feOffset dy="4"/>
<feGaussianBlur stdDeviation="9"/>
<feComposite in2="hardAlpha" operator="out"/>
<feColorMatrix type="matrix" values="0 0 0 0 0 0 0 0 0 0 0 0 0 0 0 0 0 0 0.05 0"/>
<feBlend mode="normal" in2="BackgroundImageFix" result="effect1_dropShadow_1649_8831"/>
<feBlend mode="normal" in="SourceGraphic" in2="effect1_dropShadow_1649_8831" result="shape"/>
</filter>
<filter id="filter8_d_1649_8831" x="1092" y="249" width="126" height="70" filterUnits="userSpaceOnUse" color-interpolation-filters="sRGB">
<feFlood flood-opacity="0" result="BackgroundImageFix"/>
<feColorMatrix in="SourceAlpha" type="matrix" values="0 0 0 0 0 0 0 0 0 0 0 0 0 0 0 0 0 0 127 0" result="hardAlpha"/>
<feOffset dy="4"/>
<feGaussianBlur stdDeviation="9"/>
<feComposite in2="hardAlpha" operator="out"/>
<feColorMatrix type="matrix" values="0 0 0 0 0 0 0 0 0 0 0 0 0 0 0 0 0 0 0.05 0"/>
<feBlend mode="normal" in2="BackgroundImageFix" result="effect1_dropShadow_1649_8831"/>
<feBlend mode="normal" in="SourceGraphic" in2="effect1_dropShadow_1649_8831" result="shape"/>
</filter>
<filter id="filter9_d_1649_8831" x="42" y="109" width="115" height="70" filterUnits="userSpaceOnUse" color-interpolation-filters="sRGB">
<feFlood flood-opacity="0" result="BackgroundImageFix"/>
<feColorMatrix in="SourceAlpha" type="matrix" values="0 0 0 0 0 0 0 0 0 0 0 0 0 0 0 0 0 0 127 0" result="hardAlpha"/>
<feOffset dy="4"/>
<feGaussianBlur stdDeviation="9"/>
<feComposite in2="hardAlpha" operator="out"/>
<feColorMatrix type="matrix" values="0 0 0 0 0 0 0 0 0 0 0 0 0 0 0 0 0 0 0.05 0"/>
<feBlend mode="normal" in2="BackgroundImageFix" result="effect1_dropShadow_1649_8831"/>
<feBlend mode="normal" in="SourceGraphic" in2="effect1_dropShadow_1649_8831" result="shape"/>
</filter>
<filter id="filter10_d_1649_8831" x="989" y="92" width="104" height="70" filterUnits="userSpaceOnUse" color-interpolation-filters="sRGB">
<feFlood flood-opacity="0" result="BackgroundImageFix"/>
<feColorMatrix in="SourceAlpha" type="matrix" values="0 0 0 0 0 0 0 0 0 0 0 0 0 0 0 0 0 0 127 0" result="hardAlpha"/>
<feOffset dy="4"/>
<feGaussianBlur stdDeviation="9"/>
<feComposite in2="hardAlpha" operator="out"/>
<feColorMatrix type="matrix" values="0 0 0 0 0 0 0 0 0 0 0 0 0 0 0 0 0 0 0.05 0"/>
<feBlend mode="normal" in2="BackgroundImageFix" result="effect1_dropShadow_1649_8831"/>
<feBlend mode="normal" in="SourceGraphic" in2="effect1_dropShadow_1649_8831" result="shape"/>
</filter>
<filter id="filter11_d_1649_8831" x="198" y="55" width="101" height="70" filterUnits="userSpaceOnUse" color-interpolation-filters="sRGB">
<feFlood flood-opacity="0" result="BackgroundImageFix"/>
<feColorMatrix in="SourceAlpha" type="matrix" values="0 0 0 0 0 0 0 0 0 0 0 0 0 0 0 0 0 0 127 0" result="hardAlpha"/>
<feOffset dy="4"/>
<feGaussianBlur stdDeviation="9"/>
<feComposite in2="hardAlpha" operator="out"/>
<feColorMatrix type="matrix" values="0 0 0 0 0 0 0 0 0 0 0 0 0 0 0 0 0 0 0.05 0"/>
<feBlend mode="normal" in2="BackgroundImageFix" result="effect1_dropShadow_1649_8831"/>
<feBlend mode="normal" in="SourceGraphic" in2="effect1_dropShadow_1649_8831" result="shape"/>
</filter>
<filter id="filter12_d_1649_8831" x="659" y="63" width="126" height="70" filterUnits="userSpaceOnUse" color-interpolation-filters="sRGB">
<feFlood flood-opacity="0" result="BackgroundImageFix"/>
<feColorMatrix in="SourceAlpha" type="matrix" values="0 0 0 0 0 0 0 0 0 0 0 0 0 0 0 0 0 0 127 0" result="hardAlpha"/>
<feOffset dy="4"/>
<feGaussianBlur stdDeviation="9"/>
<feComposite in2="hardAlpha" operator="out"/>
<feColorMatrix type="matrix" values="0 0 0 0 0 0 0 0 0 0 0 0 0 0 0 0 0 0 0.05 0"/>
<feBlend mode="normal" in2="BackgroundImageFix" result="effect1_dropShadow_1649_8831"/>
<feBlend mode="normal" in="SourceGraphic" in2="effect1_dropShadow_1649_8831" result="shape"/>
</filter>
<filter id="filter13_d_1649_8831" x="1157.5" y="142" width="94" height="70" filterUnits="userSpaceOnUse" color-interpolation-filters="sRGB">
<feFlood flood-opacity="0" result="BackgroundImageFix"/>
<feColorMatrix in="SourceAlpha" type="matrix" values="0 0 0 0 0 0 0 0 0 0 0 0 0 0 0 0 0 0 127 0" result="hardAlpha"/>
<feOffset dy="4"/>
<feGaussianBlur stdDeviation="9"/>
<feComposite in2="hardAlpha" operator="out"/>
<feColorMatrix type="matrix" values="0 0 0 0 0 0 0 0 0 0 0 0 0 0 0 0 0 0 0.05 0"/>
<feBlend mode="normal" in2="BackgroundImageFix" result="effect1_dropShadow_1649_8831"/>
<feBlend mode="normal" in="SourceGraphic" in2="effect1_dropShadow_1649_8831" result="shape"/>
</filter>
<filter id="filter14_d_1649_8831" x="420.5" y="28" width="105" height="70" filterUnits="userSpaceOnUse" color-interpolation-filters="sRGB">
<feFlood flood-opacity="0" result="BackgroundImageFix"/>
<feColorMatrix in="SourceAlpha" type="matrix" values="0 0 0 0 0 0 0 0 0 0 0 0 0 0 0 0 0 0 127 0" result="hardAlpha"/>
<feOffset dy="4"/>
<feGaussianBlur stdDeviation="9"/>
<feComposite in2="hardAlpha" operator="out"/>
<feColorMatrix type="matrix" values="0 0 0 0 0 0 0 0 0 0 0 0 0 0 0 0 0 0 0.05 0"/>
<feBlend mode="normal" in2="BackgroundImageFix" result="effect1_dropShadow_1649_8831"/>
<feBlend mode="normal" in="SourceGraphic" in2="effect1_dropShadow_1649_8831" result="shape"/>
</filter>
<filter id="filter15_d_1649_8831" x="134" y="165" width="105" height="70" filterUnits="userSpaceOnUse" color-interpolation-filters="sRGB">
<feFlood flood-opacity="0" result="BackgroundImageFix"/>
<feColorMatrix in="SourceAlpha" type="matrix" values="0 0 0 0 0 0 0 0 0 0 0 0 0 0 0 0 0 0 127 0" result="hardAlpha"/>
<feOffset dy="4"/>
<feGaussianBlur stdDeviation="9"/>
<feComposite in2="hardAlpha" operator="out"/>
<feColorMatrix type="matrix" values="0 0 0 0 0 0 0 0 0 0 0 0 0 0 0 0 0 0 0.05 0"/>
<feBlend mode="normal" in2="BackgroundImageFix" result="effect1_dropShadow_1649_8831"/>
<feBlend mode="normal" in="SourceGraphic" in2="effect1_dropShadow_1649_8831" result="shape"/>
</filter>
</defs>
</svg>
