<svg width="1252" height="406" viewBox="0 0 1252 406" fill="none" xmlns="http://www.w3.org/2000/svg">
<g filter="url(#filter0_d_1649_8831)">
<rect x="565.5" y="350" width="64" height="34" rx="16" fill="white" shape-rendering="crispEdges"/>
<rect x="566" y="350.5" width="63" height="33" rx="15.5" stroke="#E9EDF3" shape-rendering="crispEdges"/>
<path d="M584.34 372V362.13H590.234V363.166H585.474V366.4H589.674V367.394H585.474V370.964H590.374V372H584.34ZM593.424 372.224C592.038 372.224 591.212 371.342 591.212 369.83V364.93H592.276V369.746C592.276 370.712 592.836 371.3 593.732 371.3C594.936 371.3 595.734 370.488 595.734 369.228V364.93H596.798V372H595.832L595.734 371.034H595.72C595.258 371.79 594.46 372.224 593.424 372.224ZM600.986 364.692C602.106 364.692 602.82 365.49 602.89 366.932L601.952 367.24C601.91 366.204 601.476 365.644 600.79 365.644C599.852 365.644 599.264 366.624 599.264 368.234V372H598.2V364.93H599.082L599.194 366.036H599.208C599.516 365.196 600.188 364.692 600.986 364.692ZM606.803 372.238C604.773 372.238 603.457 370.754 603.457 368.458C603.457 366.176 604.773 364.692 606.803 364.692C608.833 364.692 610.149 366.176 610.149 368.458C610.149 370.754 608.833 372.238 606.803 372.238ZM606.803 371.272C608.189 371.272 609.085 370.166 609.085 368.458C609.085 366.764 608.189 365.672 606.803 365.672C605.417 365.672 604.521 366.764 604.521 368.458C604.521 370.166 605.417 371.272 606.803 371.272Z" fill="black"/>
</g>
<g filter="url(#filter1_d_1649_8831)">
<rect x="343" y="268" width="67" height="34" rx="16" fill="white" shape-rendering="crispEdges"/>
<rect x="343.5" y="268.5" width="66" height="33" rx="15.5" stroke="#E9EDF3" shape-rendering="crispEdges"/>
<path d="M365.144 290.294C362.932 290.294 361.392 288.894 361.28 286.864L362.428 286.64C362.484 288.208 363.632 289.258 365.172 289.258C366.53 289.258 367.37 288.474 367.37 287.466C367.37 286.64 366.838 286.108 365.592 285.73L364.066 285.268C362.484 284.778 361.77 283.98 361.77 282.678C361.77 281.04 362.918 279.836 364.808 279.836C366.614 279.836 367.832 280.998 367.972 282.72L366.852 282.986C366.796 281.712 365.97 280.872 364.822 280.872C363.66 280.872 362.932 281.6 362.932 282.552C362.932 283.378 363.408 283.868 364.514 284.204L366.04 284.666C367.734 285.17 368.532 285.996 368.546 287.354C368.546 289.02 367.272 290.294 365.144 290.294ZM369.66 290V280.13H375.554V281.166H370.794V284.4H374.994V285.394H370.794V288.964H375.694V290H369.66ZM376.879 290V280.13H380.421C382.367 280.13 383.725 281.362 383.725 283.098C383.725 284.834 382.353 286.052 380.421 286.052H378.013V290H376.879ZM378.013 285.002H380.351C381.639 285.002 382.563 284.218 382.563 283.098C382.563 281.964 381.653 281.166 380.351 281.166H378.013V285.002ZM383.165 290L386.525 280.13H387.995L391.369 290H390.151L389.367 287.634H385.167L384.383 290H383.165ZM385.475 286.598H389.059L387.295 281.222H387.267L385.475 286.598Z" fill="black"/>
</g>
<g filter="url(#filter2_d_1649_8831)">
<path d="M876 86C876 77.1634 883.163 70 892 70H918C926.837 70 934 77.1634 934 86V88C934 96.8366 926.837 104 918 104H892C883.163 104 876 96.8366 876 88V86Z" fill="white" shape-rendering="crispEdges"/>
<path d="M892 70.5H918C926.56 70.5 933.5 77.4396 933.5 86V88C933.5 96.5604 926.56 103.5 918 103.5H892C883.44 103.5 876.5 96.5604 876.5 88V86C876.5 77.4396 883.44 70.5 892 70.5Z" stroke="#E9EDF3" shape-rendering="crispEdges"/>
<path d="M894.84 92V82.13H900.3V83.166H896.002V86.582H899.488V87.562H896.002V92H894.84ZM901.92 83.558C901.444 83.558 901.136 83.236 901.136 82.774C901.136 82.326 901.444 82.004 901.92 82.004C902.382 82.004 902.704 82.326 902.704 82.774C902.704 83.236 902.382 83.558 901.92 83.558ZM901.374 92V84.93H902.438V92H901.374ZM905.958 92.21C904.558 92.21 903.55 91.398 903.55 90.166C903.55 89.004 904.404 88.094 906.434 87.842L907.792 87.674C908.128 87.632 908.352 87.422 908.352 87.058C908.352 86.204 907.638 85.658 906.63 85.658C905.482 85.658 904.698 86.47 904.67 87.38L903.718 86.974C903.802 85.728 904.992 84.692 906.672 84.692C908.31 84.692 909.388 85.686 909.388 87.212V92H908.436L908.324 90.922H908.31C907.848 91.734 907.022 92.21 905.958 92.21ZM906.182 91.244C907.414 91.244 908.324 90.334 908.324 89.018V88.542L906.588 88.752C905.16 88.934 904.614 89.466 904.614 90.11C904.614 90.81 905.272 91.244 906.182 91.244ZM913.315 92.238C912.111 92.238 911.327 91.44 911.327 90.222V85.812H909.955V84.93H911.327V82.886L912.391 82.634V84.93H915.037V85.812H912.391L912.405 90.082C912.405 90.81 912.755 91.314 913.399 91.314C914.001 91.314 914.477 90.866 914.533 89.956L915.443 90.334C915.345 91.51 914.463 92.238 913.315 92.238Z" fill="black"/>
</g>
<g filter="url(#filter3_d_1649_8831)">
<rect x="752" y="24" width="82" height="34" rx="16" fill="white" shape-rendering="crispEdges"/>
<rect x="752.5" y="24.5" width="81" height="33" rx="15.5" stroke="#E9EDF3" shape-rendering="crispEdges"/>
<path d="M770.84 46V36.13H774.732C776.538 36.13 777.616 37.11 777.616 38.748C777.616 39.84 777.042 40.638 776.09 40.89V40.904C777.224 41.17 777.91 42.038 777.91 43.284C777.91 44.978 776.72 46 774.732 46H770.84ZM772.002 40.4H774.592C775.768 40.4 776.454 39.798 776.454 38.79C776.454 37.782 775.768 37.166 774.592 37.166H772.002V40.4ZM772.002 44.964H774.578C775.936 44.964 776.748 44.306 776.748 43.186C776.748 42.094 775.936 41.436 774.578 41.436H772.002V44.964ZM781.014 46.21C779.614 46.21 778.606 45.398 778.606 44.166C778.606 43.004 779.46 42.094 781.49 41.842L782.848 41.674C783.184 41.632 783.408 41.422 783.408 41.058C783.408 40.204 782.694 39.658 781.686 39.658C780.538 39.658 779.754 40.47 779.726 41.38L778.774 40.974C778.858 39.728 780.048 38.692 781.728 38.692C783.366 38.692 784.444 39.686 784.444 41.212V46H783.492L783.38 44.922H783.366C782.904 45.734 782.078 46.21 781.014 46.21ZM781.238 45.244C782.47 45.244 783.38 44.334 783.38 43.018V42.542L781.644 42.752C780.216 42.934 779.67 43.466 779.67 44.11C779.67 44.81 780.328 45.244 781.238 45.244ZM789.154 38.706C790.54 38.706 791.366 39.588 791.366 41.1V46H790.302V41.184C790.302 40.218 789.742 39.63 788.846 39.63C787.642 39.63 786.844 40.442 786.844 41.702V46H785.78V38.93H786.746L786.844 39.896H786.858C787.32 39.14 788.118 38.706 789.154 38.706ZM792.698 46V35.71H793.762V41.94H793.776L796.436 38.93H797.794L795.386 41.604L797.976 46H796.744L794.672 42.388L793.762 43.396V46H792.698ZM799.317 37.558C798.841 37.558 798.533 37.236 798.533 36.774C798.533 36.326 798.841 36.004 799.317 36.004C799.779 36.004 800.101 36.326 800.101 36.774C800.101 37.236 799.779 37.558 799.317 37.558ZM798.771 46V38.93H799.835V46H798.771ZM804.74 38.706C806.126 38.706 806.952 39.588 806.952 41.1V46H805.888V41.184C805.888 40.218 805.328 39.63 804.432 39.63C803.228 39.63 802.43 40.442 802.43 41.702V46H801.366V38.93H802.332L802.43 39.896H802.444C802.906 39.14 803.704 38.706 804.74 38.706ZM810.972 49.178C809.446 49.178 808.074 48.464 807.5 47.358L808.34 46.686C808.816 47.61 809.838 48.212 810.93 48.212C812.47 48.212 813.464 47.218 813.464 45.622V44.712H813.45C812.988 45.552 812.05 46.14 811.126 46.14C809.278 46.14 808.032 44.642 808.032 42.43C808.032 40.218 809.278 38.706 811.126 38.706C812.078 38.706 813.016 39.238 813.45 40.036H813.464L813.576 38.93H814.528V45.622C814.528 47.806 813.156 49.178 810.972 49.178ZM811.294 45.174C812.596 45.174 813.492 44.026 813.492 42.43C813.492 40.806 812.596 39.658 811.294 39.658C809.992 39.658 809.096 40.778 809.096 42.43C809.096 44.068 809.992 45.174 811.294 45.174Z" fill="black"/>
</g>
<g filter="url(#filter4_d_1649_8831)">
<rect x="805" y="324" width="153" height="34" rx="16" fill="white" shape-rendering="crispEdges"/>
<rect x="805.5" y="324.5" width="152" height="33" rx="15.5" stroke="#E9EDF3" shape-rendering="crispEdges"/>
<path d="M827.144 346.294C824.932 346.294 823.392 344.894 823.28 342.864L824.428 342.64C824.484 344.208 825.632 345.258 827.172 345.258C828.53 345.258 829.37 344.474 829.37 343.466C829.37 342.64 828.838 342.108 827.592 341.73L826.066 341.268C824.484 340.778 823.77 339.98 823.77 338.678C823.77 337.04 824.918 335.836 826.808 335.836C828.614 335.836 829.832 336.998 829.972 338.72L828.852 338.986C828.796 337.712 827.97 336.872 826.822 336.872C825.66 336.872 824.932 337.6 824.932 338.552C824.932 339.378 825.408 339.868 826.514 340.204L828.04 340.666C829.734 341.17 830.532 341.996 830.546 343.354C830.546 345.02 829.272 346.294 827.144 346.294ZM834.74 346.238C832.64 346.238 831.24 344.712 831.24 342.388C831.24 340.162 832.514 338.692 834.446 338.692C836.322 338.692 837.512 340.162 837.512 342.402V342.822H832.332C832.43 344.306 833.382 345.272 834.74 345.272C835.734 345.272 836.504 344.74 836.812 343.858L837.736 344.278C837.344 345.482 836.168 346.238 834.74 346.238ZM832.332 341.898H836.392C836.294 340.484 835.58 339.672 834.446 339.672C833.228 339.672 832.486 340.54 832.332 341.898ZM841.194 346.238C839.99 346.238 839.206 345.44 839.206 344.222V339.812H837.834V338.93H839.206V336.886L840.27 336.634V338.93H842.916V339.812H840.27L840.284 344.082C840.284 344.81 840.634 345.314 841.278 345.314C841.88 345.314 842.356 344.866 842.412 343.956L843.322 344.334C843.224 345.51 842.342 346.238 841.194 346.238ZM846.745 346.238C845.541 346.238 844.757 345.44 844.757 344.222V339.812H843.385V338.93H844.757V336.886L845.821 336.634V338.93H848.467V339.812H845.821L845.835 344.082C845.835 344.81 846.185 345.314 846.829 345.314C847.431 345.314 847.907 344.866 847.963 343.956L848.873 344.334C848.775 345.51 847.893 346.238 846.745 346.238ZM849.595 346V335.71H850.659V346H849.595ZM855.275 346.238C853.175 346.238 851.775 344.712 851.775 342.388C851.775 340.162 853.049 338.692 854.981 338.692C856.857 338.692 858.047 340.162 858.047 342.402V342.822H852.867C852.965 344.306 853.917 345.272 855.275 345.272C856.269 345.272 857.039 344.74 857.347 343.858L858.271 344.278C857.879 345.482 856.703 346.238 855.275 346.238ZM852.867 341.898H856.927C856.829 340.484 856.115 339.672 854.981 339.672C853.763 339.672 853.021 340.54 852.867 341.898ZM859.302 346V338.93H860.226L860.338 339.91H860.352C860.73 339.154 861.542 338.692 862.536 338.692C863.53 338.692 864.244 339.182 864.58 339.994H864.594C865.112 339.14 865.98 338.692 866.932 338.692C868.332 338.692 869.158 339.602 869.158 341.142V346H868.08L868.094 341.17C868.094 340.218 867.548 339.672 866.624 339.672C865.462 339.672 864.762 340.54 864.762 341.884V346H863.684L863.698 341.17C863.698 340.218 863.152 339.672 862.228 339.672C861.066 339.672 860.366 340.54 860.366 341.884V346H859.302ZM873.705 346.238C871.605 346.238 870.205 344.712 870.205 342.388C870.205 340.162 871.479 338.692 873.411 338.692C875.287 338.692 876.477 340.162 876.477 342.402V342.822H871.297C871.395 344.306 872.347 345.272 873.705 345.272C874.699 345.272 875.469 344.74 875.777 343.858L876.701 344.278C876.309 345.482 875.133 346.238 873.705 346.238ZM871.297 341.898H875.357C875.259 340.484 874.545 339.672 873.411 339.672C872.193 339.672 871.451 340.54 871.297 341.898ZM881.105 338.706C882.491 338.706 883.317 339.588 883.317 341.1V346H882.253V341.184C882.253 340.218 881.693 339.63 880.797 339.63C879.593 339.63 878.795 340.442 878.795 341.702V346H877.731V338.93H878.697L878.795 339.896H878.809C879.271 339.14 880.069 338.706 881.105 338.706ZM887.036 346.238C885.832 346.238 885.048 345.44 885.048 344.222V339.812H883.676V338.93H885.048V336.886L886.112 336.634V338.93H888.758V339.812H886.112L886.126 344.082C886.126 344.81 886.476 345.314 887.12 345.314C887.722 345.314 888.198 344.866 888.254 343.956L889.164 344.334C889.066 345.51 888.184 346.238 887.036 346.238ZM894.977 346.21C893.577 346.21 892.569 345.398 892.569 344.166C892.569 343.004 893.423 342.094 895.453 341.842L896.811 341.674C897.147 341.632 897.371 341.422 897.371 341.058C897.371 340.204 896.657 339.658 895.649 339.658C894.501 339.658 893.717 340.47 893.689 341.38L892.737 340.974C892.821 339.728 894.011 338.692 895.691 338.692C897.329 338.692 898.407 339.686 898.407 341.212V346H897.455L897.343 344.922H897.329C896.867 345.734 896.041 346.21 894.977 346.21ZM895.201 345.244C896.433 345.244 897.343 344.334 897.343 343.018V342.542L895.607 342.752C894.179 342.934 893.633 343.466 893.633 344.11C893.633 344.81 894.291 345.244 895.201 345.244ZM902.767 346.238C900.765 346.238 899.463 344.74 899.463 342.472C899.463 340.19 900.695 338.692 902.543 338.692C903.957 338.692 905.063 339.644 905.371 341.1L904.349 341.366C904.111 340.316 903.397 339.644 902.543 339.644C901.353 339.644 900.527 340.75 900.527 342.472C900.527 344.18 901.437 345.286 902.767 345.286C903.859 345.286 904.713 344.474 904.895 343.228L905.917 343.466C905.665 345.132 904.405 346.238 902.767 346.238ZM909.917 346.238C907.915 346.238 906.613 344.74 906.613 342.472C906.613 340.19 907.845 338.692 909.693 338.692C911.107 338.692 912.213 339.644 912.521 341.1L911.499 341.366C911.261 340.316 910.547 339.644 909.693 339.644C908.503 339.644 907.677 340.75 907.677 342.472C907.677 344.18 908.587 345.286 909.917 345.286C911.009 345.286 911.863 344.474 912.045 343.228L913.067 343.466C912.815 345.132 911.555 346.238 909.917 346.238ZM917.11 346.238C915.08 346.238 913.764 344.754 913.764 342.458C913.764 340.176 915.08 338.692 917.11 338.692C919.14 338.692 920.456 340.176 920.456 342.458C920.456 344.754 919.14 346.238 917.11 346.238ZM917.11 345.272C918.496 345.272 919.392 344.166 919.392 342.458C919.392 340.764 918.496 339.672 917.11 339.672C915.724 339.672 914.828 340.764 914.828 342.458C914.828 344.166 915.724 345.272 917.11 345.272ZM923.719 346.224C922.333 346.224 921.507 345.342 921.507 343.83V338.93H922.571V343.746C922.571 344.712 923.131 345.3 924.027 345.3C925.231 345.3 926.029 344.488 926.029 343.228V338.93H927.093V346H926.127L926.029 345.034H926.015C925.553 345.79 924.755 346.224 923.719 346.224ZM931.869 338.706C933.255 338.706 934.081 339.588 934.081 341.1V346H933.017V341.184C933.017 340.218 932.457 339.63 931.561 339.63C930.357 339.63 929.559 340.442 929.559 341.702V346H928.495V338.93H929.461L929.559 339.896H929.573C930.035 339.14 930.833 338.706 931.869 338.706ZM937.799 346.238C936.595 346.238 935.811 345.44 935.811 344.222V339.812H934.439V338.93H935.811V336.886L936.875 336.634V338.93H939.521V339.812H936.875L936.889 344.082C936.889 344.81 937.239 345.314 937.883 345.314C938.485 345.314 938.961 344.866 939.017 343.956L939.927 344.334C939.829 345.51 938.947 346.238 937.799 346.238Z" fill="black"/>
</g>
<g filter="url(#filter5_d_1649_8831)">
<rect x="1041" y="316" width="78" height="34" rx="16" fill="white" shape-rendering="crispEdges"/>
<rect x="1041.5" y="316.5" width="77" height="33" rx="15.5" stroke="#E9EDF3" shape-rendering="crispEdges"/>
<path d="M1062.02 338V329.166H1059.14V328.13H1066.07V329.166H1063.19V338H1062.02ZM1073.39 338.266C1072.65 338.266 1072.24 337.79 1072.06 337.132L1071.48 335.032C1071.29 334.29 1070.74 333.786 1070.1 333.786H1068.21V338H1067.05V328.13H1070.85C1072.77 328.13 1074.13 329.292 1074.13 330.986C1074.13 332.26 1073.21 333.338 1071.71 333.604V333.618C1072.21 333.884 1072.51 334.346 1072.66 334.92L1073.12 336.712C1073.21 337.048 1073.35 337.286 1073.63 337.286C1073.86 337.286 1074.12 337.09 1074.33 336.726L1074.91 337.398C1074.54 337.944 1074 338.266 1073.39 338.266ZM1068.21 332.75H1070.81C1072.09 332.75 1072.97 332.036 1072.97 330.986C1072.97 329.88 1072.09 329.166 1070.81 329.166H1068.21V332.75ZM1079.72 338.294C1076.88 338.294 1075.13 336.306 1075.13 333.072C1075.13 329.838 1076.77 327.836 1079.43 327.836C1081.36 327.836 1082.79 329.124 1083.19 331.294L1082.09 331.56C1081.81 329.866 1080.79 328.872 1079.41 328.872C1077.48 328.872 1076.29 330.468 1076.29 333.072C1076.31 335.662 1077.61 337.258 1079.72 337.258C1081.39 337.258 1082.61 336.04 1082.89 334.066L1083.99 334.346C1083.64 336.782 1081.99 338.294 1079.72 338.294ZM1084.98 338V337.314C1084.98 335.48 1085.55 334.528 1087.15 333.506L1088.35 332.722C1089.31 332.092 1089.66 331.532 1089.66 330.65C1089.66 329.6 1089.04 328.872 1088.12 328.872C1087.07 328.872 1086.34 329.782 1086.32 331.336L1085.16 331.098C1085.19 329.152 1086.38 327.836 1088.12 327.836C1089.74 327.836 1090.82 328.998 1090.82 330.692C1090.82 331.924 1090.33 332.708 1089 333.59L1087.78 334.388C1086.58 335.186 1086.21 335.844 1086.21 336.964H1090.99V338H1084.98ZM1095.92 338.294C1093.67 338.294 1092.24 336.236 1092.24 333.072C1092.24 329.894 1093.67 327.836 1095.92 327.836C1098.18 327.836 1099.6 329.894 1099.6 333.072C1099.6 336.236 1098.18 338.294 1095.92 338.294ZM1095.92 337.258C1097.48 337.258 1098.44 335.606 1098.44 333.072C1098.44 330.524 1097.48 328.872 1095.92 328.872C1094.38 328.872 1093.4 330.524 1093.4 333.072C1093.4 335.606 1094.38 337.258 1095.92 337.258Z" fill="black"/>
</g>
<g filter="url(#filter6_d_1649_8831)">
<rect x="349.5" y="343" width="91" height="34" rx="16" fill="white" shape-rendering="crispEdges"/>
<rect x="350" y="343.5" width="90" height="33" rx="15.5" stroke="#E9EDF3" shape-rendering="crispEdges"/>
<path d="M372.694 365.294C369.852 365.294 367.99 363.236 367.99 360.072C367.99 356.894 369.838 354.836 372.694 354.836C375.536 354.836 377.398 356.894 377.398 360.058C377.398 363.236 375.536 365.294 372.694 365.294ZM372.694 364.258C374.836 364.258 376.222 362.606 376.222 360.072C376.222 357.524 374.836 355.872 372.694 355.872C370.552 355.872 369.152 357.524 369.152 360.072C369.152 362.606 370.552 364.258 372.694 364.258ZM381.965 357.706C383.351 357.706 384.177 358.588 384.177 360.1V365H383.113V360.184C383.113 359.218 382.553 358.63 381.657 358.63C380.453 358.63 379.655 359.442 379.655 360.702V365H378.591V357.93H379.557L379.655 358.896H379.669C380.131 358.14 380.929 357.706 381.965 357.706ZM385.509 361.822V360.856H389.961V361.822H385.509ZM394.146 357.692C395.266 357.692 395.98 358.49 396.05 359.932L395.112 360.24C395.07 359.204 394.636 358.644 393.95 358.644C393.012 358.644 392.424 359.624 392.424 361.234V365H391.36V357.93H392.242L392.354 359.036H392.368C392.676 358.196 393.348 357.692 394.146 357.692ZM398.981 365.21C397.581 365.21 396.573 364.398 396.573 363.166C396.573 362.004 397.427 361.094 399.457 360.842L400.815 360.674C401.151 360.632 401.375 360.422 401.375 360.058C401.375 359.204 400.661 358.658 399.653 358.658C398.505 358.658 397.721 359.47 397.693 360.38L396.741 359.974C396.825 358.728 398.015 357.692 399.695 357.692C401.333 357.692 402.411 358.686 402.411 360.212V365H401.459L401.347 363.922H401.333C400.871 364.734 400.045 365.21 398.981 365.21ZM399.205 364.244C400.437 364.244 401.347 363.334 401.347 362.018V361.542L399.611 361.752C398.183 361.934 397.637 362.466 397.637 363.11C397.637 363.81 398.295 364.244 399.205 364.244ZM403.747 365V357.93H404.671L404.783 358.91H404.797C405.175 358.154 405.987 357.692 406.981 357.692C407.975 357.692 408.689 358.182 409.025 358.994H409.039C409.557 358.14 410.425 357.692 411.377 357.692C412.777 357.692 413.603 358.602 413.603 360.142V365H412.525L412.539 360.17C412.539 359.218 411.993 358.672 411.069 358.672C409.907 358.672 409.207 359.54 409.207 360.884V365H408.129L408.143 360.17C408.143 359.218 407.597 358.672 406.673 358.672C405.511 358.672 404.811 359.54 404.811 360.884V365H403.747ZM414.93 367.94V357.93H415.854L415.966 359.106H415.98C416.456 358.21 417.31 357.692 418.374 357.692C420.222 357.692 421.482 359.204 421.482 361.472C421.482 363.726 420.222 365.238 418.374 365.238C417.324 365.238 416.498 364.734 416.008 363.88H415.994V367.94H414.93ZM418.192 364.23C419.522 364.23 420.418 363.11 420.418 361.472C420.418 359.82 419.508 358.7 418.192 358.7C416.862 358.7 415.966 359.834 415.966 361.472C415.966 363.11 416.862 364.23 418.192 364.23Z" fill="black"/>
</g>
<g filter="url(#filter7_d_1649_8831)">
<rect x="18" y="251" width="94" height="34" rx="16" fill="white" shape-rendering="crispEdges"/>
<rect x="18.5" y="251.5" width="93" height="33" rx="15.5" stroke="#E9EDF3" shape-rendering="crispEdges"/>
<path d="M41.194 273.294C38.352 273.294 36.49 271.236 36.49 268.072C36.49 264.894 38.338 262.836 41.194 262.836C44.036 262.836 45.898 264.894 45.898 268.058C45.898 271.236 44.036 273.294 41.194 273.294ZM41.194 272.258C43.336 272.258 44.722 270.606 44.722 268.072C44.722 265.524 43.336 263.872 41.194 263.872C39.052 263.872 37.652 265.524 37.652 268.072C37.652 270.606 39.052 272.258 41.194 272.258ZM47.8186 273L47.8046 266.812H46.3906V265.93H47.8046V264.53C47.8046 263.298 48.6166 262.5 49.8906 262.5C51.0806 262.5 51.9206 263.242 52.0326 264.32L51.1086 264.712C51.0246 263.942 50.5486 263.438 49.9326 263.438C49.3026 263.438 48.8826 263.942 48.8826 264.712V265.93H51.5706V266.812H48.8826V273H47.8186ZM53.5061 273L53.4921 266.812H52.0781V265.93H53.4921V264.53C53.4921 263.298 54.3041 262.5 55.5781 262.5C56.7681 262.5 57.6081 263.242 57.7201 264.32L56.7961 264.712C56.7121 263.942 56.2361 263.438 55.6201 263.438C54.9901 263.438 54.5701 263.942 54.5701 264.712V265.93H57.2581V266.812H54.5701V273H53.5061ZM57.3035 269.822V268.856H61.7555V269.822H57.3035ZM65.9411 265.692C67.0611 265.692 67.7751 266.49 67.8451 267.932L66.9071 268.24C66.8651 267.204 66.4311 266.644 65.7451 266.644C64.8071 266.644 64.2191 267.624 64.2191 269.234V273H63.1551V265.93H64.0371L64.1491 267.036H64.1631C64.4711 266.196 65.1431 265.692 65.9411 265.692ZM70.7759 273.21C69.3759 273.21 68.3679 272.398 68.3679 271.166C68.3679 270.004 69.2219 269.094 71.2519 268.842L72.6099 268.674C72.9459 268.632 73.1699 268.422 73.1699 268.058C73.1699 267.204 72.4559 266.658 71.4479 266.658C70.2999 266.658 69.5159 267.47 69.4879 268.38L68.5359 267.974C68.6199 266.728 69.8099 265.692 71.4899 265.692C73.1279 265.692 74.2059 266.686 74.2059 268.212V273H73.2539L73.1419 271.922H73.1279C72.6659 272.734 71.8399 273.21 70.7759 273.21ZM70.9999 272.244C72.2319 272.244 73.1419 271.334 73.1419 270.018V269.542L71.4059 269.752C69.9779 269.934 69.4319 270.466 69.4319 271.11C69.4319 271.81 70.0899 272.244 70.9999 272.244ZM75.5418 273V265.93H76.4658L76.5778 266.91H76.5918C76.9698 266.154 77.7818 265.692 78.7758 265.692C79.7698 265.692 80.4838 266.182 80.8198 266.994H80.8338C81.3518 266.14 82.2198 265.692 83.1718 265.692C84.5718 265.692 85.3978 266.602 85.3978 268.142V273H84.3198L84.3338 268.17C84.3338 267.218 83.7878 266.672 82.8638 266.672C81.7018 266.672 81.0018 267.54 81.0018 268.884V273H79.9238L79.9378 268.17C79.9378 267.218 79.3918 266.672 78.4678 266.672C77.3058 266.672 76.6058 267.54 76.6058 268.884V273H75.5418ZM86.7254 275.94V265.93H87.6494L87.7614 267.106H87.7754C88.2514 266.21 89.1054 265.692 90.1694 265.692C92.0174 265.692 93.2774 267.204 93.2774 269.472C93.2774 271.726 92.0174 273.238 90.1694 273.238C89.1194 273.238 88.2934 272.734 87.8034 271.88H87.7894V275.94H86.7254ZM89.9874 272.23C91.3174 272.23 92.2134 271.11 92.2134 269.472C92.2134 267.82 91.3034 266.7 89.9874 266.7C88.6574 266.7 87.7614 267.834 87.7614 269.472C87.7614 271.11 88.6574 272.23 89.9874 272.23Z" fill="black"/>
</g>
<g filter="url(#filter8_d_1649_8831)">
<rect x="1110" y="235" width="90" height="34" rx="16" fill="white" shape-rendering="crispEdges"/>
<rect x="1110.5" y="235.5" width="89" height="33" rx="15.5" stroke="#E9EDF3" shape-rendering="crispEdges"/>
<path d="M1128.84 257V247.13H1134.3V248.166H1130V251.582H1133.49V252.562H1130V257H1128.84ZM1135.42 257V247.13H1141.31V248.166H1136.55V251.4H1140.75V252.394H1136.55V255.964H1141.45V257H1135.42ZM1142.63 257V247.13H1145.77C1148.89 247.13 1150.54 248.922 1150.54 252.072C1150.54 255.208 1148.89 257 1145.77 257H1142.63ZM1143.8 255.964H1145.77C1148.15 255.964 1149.38 254.55 1149.38 252.072C1149.38 249.594 1148.15 248.166 1145.77 248.166H1143.8V255.964ZM1153.26 257L1150.78 247.13H1151.98L1154.1 255.81H1154.13L1156.06 247.13H1157.72L1159.67 255.81H1159.7L1161.78 247.13H1162.99L1160.51 257H1158.83L1156.91 248.432H1156.88L1154.92 257H1153.26ZM1163.96 257V247.13H1165.13V257H1163.96ZM1173.15 257.266C1172.41 257.266 1172 256.79 1171.82 256.132L1171.24 254.032C1171.05 253.29 1170.5 252.786 1169.86 252.786H1167.97V257H1166.81V247.13H1170.61C1172.53 247.13 1173.89 248.292 1173.89 249.986C1173.89 251.26 1172.97 252.338 1171.47 252.604V252.618C1171.97 252.884 1172.27 253.346 1172.42 253.92L1172.88 255.712C1172.97 256.048 1173.11 256.286 1173.39 256.286C1173.62 256.286 1173.88 256.09 1174.09 255.726L1174.67 256.398C1174.3 256.944 1173.76 257.266 1173.15 257.266ZM1167.97 251.75H1170.57C1171.85 251.75 1172.73 251.036 1172.73 249.986C1172.73 248.88 1171.85 248.166 1170.57 248.166H1167.97V251.75ZM1175.52 257V247.13H1181.41V248.166H1176.65V251.4H1180.85V252.394H1176.65V255.964H1181.55V257H1175.52Z" fill="black"/>
</g>
<g filter="url(#filter9_d_1649_8831)">
<rect x="60" y="95" width="79" height="34" rx="16" fill="white" shape-rendering="crispEdges"/>
<rect x="60.5" y="95.5" width="78" height="33" rx="15.5" stroke="#E9EDF3" shape-rendering="crispEdges"/>
<path d="M83.082 117.294C80.24 117.294 78.49 115.306 78.49 112.072C78.49 108.838 80.128 106.836 82.788 106.836C84.72 106.836 86.148 108.124 86.554 110.294L85.448 110.56C85.168 108.866 84.146 107.872 82.774 107.872C80.842 107.872 79.652 109.468 79.652 112.072C79.666 114.662 80.968 116.258 83.082 116.258C84.748 116.258 85.966 115.04 86.246 113.066L87.352 113.346C87.002 115.782 85.35 117.294 83.082 117.294ZM91.1247 109.692C92.2447 109.692 92.9587 110.49 93.0287 111.932L92.0907 112.24C92.0487 111.204 91.6147 110.644 90.9287 110.644C89.9907 110.644 89.4027 111.624 89.4027 113.234V117H88.3387V109.93H89.2207L89.3327 111.036H89.3467C89.6547 110.196 90.3267 109.692 91.1247 109.692ZM96.2665 120.178C94.7685 120.178 93.6065 119.492 93.0885 118.372L93.9705 117.728C94.3765 118.638 95.2025 119.212 96.2665 119.212C97.5965 119.212 98.4225 118.358 98.4225 116.944V116.342H98.4085C98.0025 117.07 97.2185 117.518 96.3785 117.518C94.8525 117.518 93.9005 116.426 93.9005 114.788V109.93H94.9645V114.788C94.9645 115.852 95.5665 116.552 96.5465 116.552C97.6105 116.552 98.4085 115.782 98.4085 114.62V109.93H99.4865V116.944C99.4865 118.974 98.2685 120.178 96.2665 120.178ZM100.889 119.94V109.93H101.813L101.925 111.106H101.939C102.415 110.21 103.269 109.692 104.333 109.692C106.181 109.692 107.441 111.204 107.441 113.472C107.441 115.726 106.181 117.238 104.333 117.238C103.283 117.238 102.457 116.734 101.967 115.88H101.953V119.94H100.889ZM104.151 116.23C105.481 116.23 106.377 115.11 106.377 113.472C106.377 111.82 105.467 110.7 104.151 110.7C102.821 110.7 101.925 111.834 101.925 113.472C101.925 115.11 102.821 116.23 104.151 116.23ZM111.001 117.238C109.797 117.238 109.013 116.44 109.013 115.222V110.812H107.641V109.93H109.013V107.886L110.077 107.634V109.93H112.723V110.812H110.077L110.091 115.082C110.091 115.81 110.441 116.314 111.085 116.314C111.687 116.314 112.163 115.866 112.219 114.956L113.129 115.334C113.031 116.51 112.149 117.238 111.001 117.238ZM116.916 117.238C114.886 117.238 113.57 115.754 113.57 113.458C113.57 111.176 114.886 109.692 116.916 109.692C118.946 109.692 120.262 111.176 120.262 113.458C120.262 115.754 118.946 117.238 116.916 117.238ZM116.916 116.272C118.302 116.272 119.198 115.166 119.198 113.458C119.198 111.764 118.302 110.672 116.916 110.672C115.53 110.672 114.634 111.764 114.634 113.458C114.634 115.166 115.53 116.272 116.916 116.272Z" fill="black"/>
</g>
<g filter="url(#filter10_d_1649_8831)">
<rect x="1007" y="78" width="68" height="34" rx="16" fill="white" shape-rendering="crispEdges"/>
<rect x="1007.5" y="78.5" width="67" height="33" rx="15.5" stroke="#E9EDF3" shape-rendering="crispEdges"/>
<path d="M1029.14 100.294C1026.93 100.294 1025.39 98.894 1025.28 96.864L1026.43 96.64C1026.48 98.208 1027.63 99.258 1029.17 99.258C1030.53 99.258 1031.37 98.474 1031.37 97.466C1031.37 96.64 1030.84 96.108 1029.59 95.73L1028.07 95.268C1026.48 94.778 1025.77 93.98 1025.77 92.678C1025.77 91.04 1026.92 89.836 1028.81 89.836C1030.61 89.836 1031.83 90.998 1031.97 92.72L1030.85 92.986C1030.8 91.712 1029.97 90.872 1028.82 90.872C1027.66 90.872 1026.93 91.6 1026.93 92.552C1026.93 93.378 1027.41 93.868 1028.51 94.204L1030.04 94.666C1031.73 95.17 1032.53 95.996 1032.55 97.354C1032.55 99.02 1031.27 100.294 1029.14 100.294ZM1034.8 100L1032.76 92.93H1033.86L1035.49 98.894H1035.5L1037.1 92.93H1038.51L1040.15 98.908H1040.16L1041.76 92.93H1042.85L1040.85 100H1039.43L1037.81 93.994H1037.8L1036.23 100H1034.8ZM1044.34 91.558C1043.86 91.558 1043.55 91.236 1043.55 90.774C1043.55 90.326 1043.86 90.004 1044.34 90.004C1044.8 90.004 1045.12 90.326 1045.12 90.774C1045.12 91.236 1044.8 91.558 1044.34 91.558ZM1043.79 100V92.93H1044.85V100H1043.79ZM1047.11 100L1047.1 93.812H1045.69V92.93H1047.1V91.53C1047.1 90.298 1047.91 89.5 1049.19 89.5C1050.38 89.5 1051.22 90.242 1051.33 91.32L1050.4 91.712C1050.32 90.942 1049.84 90.438 1049.23 90.438C1048.6 90.438 1048.18 90.942 1048.18 91.712V92.93H1050.87V93.812H1048.18V100H1047.11ZM1054.62 100.238C1053.42 100.238 1052.64 99.44 1052.64 98.222V93.812H1051.26V92.93H1052.64V90.886L1053.7 90.634V92.93H1056.35V93.812H1053.7L1053.71 98.082C1053.71 98.81 1054.06 99.314 1054.71 99.314C1055.31 99.314 1055.79 98.866 1055.84 97.956L1056.75 98.334C1056.65 99.51 1055.77 100.238 1054.62 100.238Z" fill="black"/>
</g>
<g filter="url(#filter11_d_1649_8831)">
<rect x="216" y="41" width="65" height="34" rx="16" fill="white" shape-rendering="crispEdges"/>
<rect x="216.5" y="41.5" width="64" height="33" rx="15.5" stroke="#E9EDF3" shape-rendering="crispEdges"/>
<path d="M234.84 63V53.13H236.002V63H234.84ZM237.684 63V53.13H241.576C243.382 53.13 244.46 54.11 244.46 55.748C244.46 56.84 243.886 57.638 242.934 57.89V57.904C244.068 58.17 244.754 59.038 244.754 60.284C244.754 61.978 243.564 63 241.576 63H237.684ZM238.846 57.4H241.436C242.612 57.4 243.298 56.798 243.298 55.79C243.298 54.782 242.612 54.166 241.436 54.166H238.846V57.4ZM238.846 61.964H241.422C242.78 61.964 243.592 61.306 243.592 60.186C243.592 59.094 242.78 58.436 241.422 58.436H238.846V61.964ZM245.105 63L248.465 53.13H249.935L253.309 63H252.091L251.307 60.634H247.107L246.323 63H245.105ZM247.415 59.598H250.999L249.235 54.222H249.207L247.415 59.598ZM254.295 63V53.13H255.933L260.063 61.488H260.091V53.13H261.253V63H259.629L255.485 54.642H255.457V63H254.295Z" fill="black"/>
</g>
<g filter="url(#filter12_d_1649_8831)">
<rect x="599" y="58" width="90" height="34" rx="16" fill="white" shape-rendering="crispEdges"/>
<rect x="599.5" y="58.5" width="89" height="33" rx="15.5" stroke="#E9EDF3" shape-rendering="crispEdges"/>
<path d="M617.84 80V70.13H623.3V71.166H619.002V74.582H622.488V75.562H619.002V80H617.84ZM624.416 80V70.13H630.31V71.166H625.55V74.4H629.75V75.394H625.55V78.964H630.45V80H624.416ZM631.635 80V70.13H634.771C637.893 70.13 639.545 71.922 639.545 75.072C639.545 78.208 637.893 80 634.771 80H631.635ZM632.797 78.964H634.771C637.151 78.964 638.383 77.55 638.383 75.072C638.383 72.594 637.151 71.166 634.771 71.166H632.797V78.964ZM642.259 80L639.781 70.13H640.985L643.099 78.81H643.127L645.059 70.13H646.725L648.671 78.81H648.699L650.785 70.13H651.989L649.511 80H647.831L645.913 71.432H645.885L643.925 80H642.259ZM652.963 80V70.13H654.125V80H652.963ZM662.149 80.266C661.407 80.266 661.001 79.79 660.819 79.132L660.245 77.032C660.049 76.29 659.503 75.786 658.859 75.786H656.969V80H655.807V70.13H659.615C661.533 70.13 662.891 71.292 662.891 72.986C662.891 74.26 661.967 75.338 660.469 75.604V75.618C660.973 75.884 661.267 76.346 661.421 76.92L661.883 78.712C661.967 79.048 662.107 79.286 662.387 79.286C662.625 79.286 662.877 79.09 663.087 78.726L663.675 79.398C663.297 79.944 662.765 80.266 662.149 80.266ZM656.969 74.75H659.573C660.847 74.75 661.729 74.036 661.729 72.986C661.729 71.88 660.847 71.166 659.573 71.166H656.969V74.75ZM664.516 80V70.13H670.41V71.166H665.65V74.4H669.85V75.394H665.65V78.964H670.55V80H664.516Z" fill="black"/>
</g>
<g filter="url(#filter13_d_1649_8831)">
<rect x="1175.5" y="128" width="58" height="34" rx="16" fill="white" shape-rendering="crispEdges"/>
<rect x="1176" y="128.5" width="57" height="33" rx="15.5" stroke="#E9EDF3" shape-rendering="crispEdges"/>
<path d="M1194.34 150V140.13H1199.8V141.166H1195.5V144.582H1198.99V145.562H1195.5V150H1194.34ZM1201.42 141.558C1200.94 141.558 1200.64 141.236 1200.64 140.774C1200.64 140.326 1200.94 140.004 1201.42 140.004C1201.88 140.004 1202.2 140.326 1202.2 140.774C1202.2 141.236 1201.88 141.558 1201.42 141.558ZM1200.87 150V142.93H1201.94V150H1200.87ZM1205.46 150.21C1204.06 150.21 1203.05 149.398 1203.05 148.166C1203.05 147.004 1203.9 146.094 1205.93 145.842L1207.29 145.674C1207.63 145.632 1207.85 145.422 1207.85 145.058C1207.85 144.204 1207.14 143.658 1206.13 143.658C1204.98 143.658 1204.2 144.47 1204.17 145.38L1203.22 144.974C1203.3 143.728 1204.49 142.692 1206.17 142.692C1207.81 142.692 1208.89 143.686 1208.89 145.212V150H1207.94L1207.82 148.922H1207.81C1207.35 149.734 1206.52 150.21 1205.46 150.21ZM1205.68 149.244C1206.91 149.244 1207.82 148.334 1207.82 147.018V146.542L1206.09 146.752C1204.66 146.934 1204.11 147.466 1204.11 148.11C1204.11 148.81 1204.77 149.244 1205.68 149.244ZM1212.82 150.238C1211.61 150.238 1210.83 149.44 1210.83 148.222V143.812H1209.46V142.93H1210.83V140.886L1211.89 140.634V142.93H1214.54V143.812H1211.89L1211.91 148.082C1211.91 148.81 1212.26 149.314 1212.9 149.314C1213.5 149.314 1213.98 148.866 1214.03 147.956L1214.94 148.334C1214.85 149.51 1213.96 150.238 1212.82 150.238Z" fill="black"/>
</g>
<g filter="url(#filter14_d_1649_8831)">
<rect x="438.5" y="14" width="69" height="34" rx="16" fill="white" shape-rendering="crispEdges"/>
<rect x="439" y="14.5" width="68" height="33" rx="15.5" stroke="#E9EDF3" shape-rendering="crispEdges"/>
<path d="M460.784 36.294C458.6 36.294 457.2 34.88 457.2 32.682V26.13H458.362V32.682C458.362 34.18 459.3 35.258 460.784 35.258C462.268 35.258 463.192 34.25 463.192 32.668V26.13H464.354V32.682C464.354 34.88 462.954 36.294 460.784 36.294ZM469.203 36.294C466.991 36.294 465.451 34.894 465.339 32.864L466.487 32.64C466.543 34.208 467.691 35.258 469.231 35.258C470.589 35.258 471.429 34.474 471.429 33.466C471.429 32.64 470.897 32.108 469.651 31.73L468.125 31.268C466.543 30.778 465.829 29.98 465.829 28.678C465.829 27.04 466.977 25.836 468.867 25.836C470.673 25.836 471.891 26.998 472.031 28.72L470.911 28.986C470.855 27.712 470.029 26.872 468.881 26.872C467.719 26.872 466.991 27.6 466.991 28.552C466.991 29.378 467.467 29.868 468.573 30.204L470.099 30.666C471.793 31.17 472.591 31.996 472.605 33.354C472.605 35.02 471.331 36.294 469.203 36.294ZM473.719 36V26.13H476.855C479.977 26.13 481.629 27.922 481.629 31.072C481.629 34.208 479.977 36 476.855 36H473.719ZM474.881 34.964H476.855C479.235 34.964 480.467 33.55 480.467 31.072C480.467 28.594 479.235 27.166 476.855 27.166H474.881V34.964ZM484.585 36V27.166H481.701V26.13H488.631V27.166H485.747V36H484.585Z" fill="black"/>
</g>
<g filter="url(#filter15_d_1649_8831)">
<rect x="152" y="151" width="69" height="34" rx="16" fill="white" shape-rendering="crispEdges"/>
<rect x="152.5" y="151.5" width="68" height="33" rx="15.5" stroke="#E9EDF3" shape-rendering="crispEdges"/>
<path d="M174.284 173.294C172.1 173.294 170.7 171.88 170.7 169.682V163.13H171.862V169.682C171.862 171.18 172.8 172.258 174.284 172.258C175.768 172.258 176.692 171.25 176.692 169.668V163.13H177.854V169.682C177.854 171.88 176.454 173.294 174.284 173.294ZM182.703 173.294C180.491 173.294 178.951 171.894 178.839 169.864L179.987 169.64C180.043 171.208 181.191 172.258 182.731 172.258C184.089 172.258 184.929 171.474 184.929 170.466C184.929 169.64 184.397 169.108 183.151 168.73L181.625 168.268C180.043 167.778 179.329 166.98 179.329 165.678C179.329 164.04 180.477 162.836 182.367 162.836C184.173 162.836 185.391 163.998 185.531 165.72L184.411 165.986C184.355 164.712 183.529 163.872 182.381 163.872C181.219 163.872 180.491 164.6 180.491 165.552C180.491 166.378 180.967 166.868 182.073 167.204L183.599 167.666C185.293 168.17 186.091 168.996 186.105 170.354C186.105 172.02 184.831 173.294 182.703 173.294ZM187.219 173V163.13H190.355C193.477 163.13 195.129 164.922 195.129 168.072C195.129 171.208 193.477 173 190.355 173H187.219ZM188.381 171.964H190.355C192.735 171.964 193.967 170.55 193.967 168.072C193.967 165.594 192.735 164.166 190.355 164.166H188.381V171.964ZM198.085 173V164.166H195.201V163.13H202.131V164.166H199.247V173H198.085Z" fill="black"/>
</g>
<defs>
<filter id="filter0_d_1649_8831" x="547.5" y="336" width="100" height="70" filterUnits="userSpaceOnUse" color-interpolation-filters="sRGB">
<feFlood flood-opacity="0" result="BackgroundImageFix"/>
<feColorMatrix in="SourceAlpha" type="matrix" values="0 0 0 0 0 0 0 0 0 0 0 0 0 0 0 0 0 0 127 0" result="hardAlpha"/>
<feOffset dy="4"/>
<feGaussianBlur stdDeviation="9"/>
<feComposite in2="hardAlpha" operator="out"/>
<feColorMatrix type="matrix" values="0 0 0 0 0 0 0 0 0 0 0 0 0 0 0 0 0 0 0.05 0"/>
<feBlend mode="normal" in2="BackgroundImageFix" result="effect1_dropShadow_1649_8831"/>
<feBlend mode="normal" in="SourceGraphic" in2="effect1_dropShadow_1649_8831" result="shape"/>
</filter>
<filter id="filter1_d_1649_8831" x="325" y="254" width="103" height="70" filterUnits="userSpaceOnUse" color-interpolation-filters="sRGB">
<feFlood flood-opacity="0" result="BackgroundImageFix"/>
<feColorMatrix in="SourceAlpha" type="matrix" values="0 0 0 0 0 0 0 0 0 0 0 0 0 0 0 0 0 0 127 0" result="hardAlpha"/>
<feOffset dy="4"/>
<feGaussianBlur stdDeviation="9"/>
<feComposite in2="hardAlpha" operator="out"/>
<feColorMatrix type="matrix" values="0 0 0 0 0 0 0 0 0 0 0 0 0 0 0 0 0 0 0.05 0"/>
<feBlend mode="normal" in2="BackgroundImageFix" result="effect1_dropShadow_1649_8831"/>
<feBlend mode="normal" in="SourceGraphic" in2="effect1_dropShadow_1649_8831" result="shape"/>
</filter>
<filter id="filter2_d_1649_8831" x="858" y="56" width="94" height="70" filterUnits="userSpaceOnUse" color-interpolation-filters="sRGB">
<feFlood flood-opacity="0" result="BackgroundImageFix"/>
<feColorMatrix in="SourceAlpha" type="matrix" values="0 0 0 0 0 0 0 0 0 0 0 0 0 0 0 0 0 0 127 0" result="hardAlpha"/>
<feOffset dy="4"/>
<feGaussianBlur stdDeviation="9"/>
<feComposite in2="hardAlpha" operator="out"/>
<feColorMatrix type="matrix" values="0 0 0 0 0 0 0 0 0 0 0 0 0 0 0 0 0 0 0.05 0"/>
<feBlend mode="normal" in2="BackgroundImageFix" result="effect1_dropShadow_1649_8831"/>
<feBlend mode="normal" in="SourceGraphic" in2="effect1_dropShadow_1649_8831" result="shape"/>
</filter>
<filter id="filter3_d_1649_8831" x="734" y="10" width="118" height="70" filterUnits="userSpaceOnUse" color-interpolation-filters="sRGB">
<feFlood flood-opacity="0" result="BackgroundImageFix"/>
<feColorMatrix in="SourceAlpha" type="matrix" values="0 0 0 0 0 0 0 0 0 0 0 0 0 0 0 0 0 0 127 0" result="hardAlpha"/>
<feOffset dy="4"/>
<feGaussianBlur stdDeviation="9"/>
<feComposite in2="hardAlpha" operator="out"/>
<feColorMatrix type="matrix" values="0 0 0 0 0 0 0 0 0 0 0 0 0 0 0 0 0 0 0.05 0"/>
<feBlend mode="normal" in2="BackgroundImageFix" result="effect1_dropShadow_1649_8831"/>
<feBlend mode="normal" in="SourceGraphic" in2="effect1_dropShadow_1649_8831" result="shape"/>
</filter>
<filter id="filter4_d_1649_8831" x="787" y="310" width="189" height="70" filterUnits="userSpaceOnUse" color-interpolation-filters="sRGB">
<feFlood flood-opacity="0" result="BackgroundImageFix"/>
<feColorMatrix in="SourceAlpha" type="matrix" values="0 0 0 0 0 0 0 0 0 0 0 0 0 0 0 0 0 0 127 0" result="hardAlpha"/>
<feOffset dy="4"/>
<feGaussianBlur stdDeviation="9"/>
<feComposite in2="hardAlpha" operator="out"/>
<feColorMatrix type="matrix" values="0 0 0 0 0 0 0 0 0 0 0 0 0 0 0 0 0 0 0.05 0"/>
<feBlend mode="normal" in2="BackgroundImageFix" result="effect1_dropShadow_1649_8831"/>
<feBlend mode="normal" in="SourceGraphic" in2="effect1_dropShadow_1649_8831" result="shape"/>
</filter>
<filter id="filter5_d_1649_8831" x="1023" y="302" width="114" height="70" filterUnits="userSpaceOnUse" color-interpolation-filters="sRGB">
<feFlood flood-opacity="0" result="BackgroundImageFix"/>
<feColorMatrix in="SourceAlpha" type="matrix" values="0 0 0 0 0 0 0 0 0 0 0 0 0 0 0 0 0 0 127 0" result="hardAlpha"/>
<feOffset dy="4"/>
<feGaussianBlur stdDeviation="9"/>
<feComposite in2="hardAlpha" operator="out"/>
<feColorMatrix type="matrix" values="0 0 0 0 0 0 0 0 0 0 0 0 0 0 0 0 0 0 0.05 0"/>
<feBlend mode="normal" in2="BackgroundImageFix" result="effect1_dropShadow_1649_8831"/>
<feBlend mode="normal" in="SourceGraphic" in2="effect1_dropShadow_1649_8831" result="shape"/>
</filter>
<filter id="filter6_d_1649_8831" x="331.5" y="329" width="127" height="70" filterUnits="userSpaceOnUse" color-interpolation-filters="sRGB">
<feFlood flood-opacity="0" result="BackgroundImageFix"/>
<feColorMatrix in="SourceAlpha" type="matrix" values="0 0 0 0 0 0 0 0 0 0 0 0 0 0 0 0 0 0 127 0" result="hardAlpha"/>
<feOffset dy="4"/>
<feGaussianBlur stdDeviation="9"/>
<feComposite in2="hardAlpha" operator="out"/>
<feColorMatrix type="matrix" values="0 0 0 0 0 0 0 0 0 0 0 0 0 0 0 0 0 0 0.05 0"/>
<feBlend mode="normal" in2="BackgroundImageFix" result="effect1_dropShadow_1649_8831"/>
<feBlend mode="normal" in="SourceGraphic" in2="effect1_dropShadow_1649_8831" result="shape"/>
</filter>
<filter id="filter7_d_1649_8831" x="0" y="237" width="130" height="70" filterUnits="userSpaceOnUse" color-interpolation-filters="sRGB">
<feFlood flood-opacity="0" result="BackgroundImageFix"/>
<feColorMatrix in="SourceAlpha" type="matrix" values="0 0 0 0 0 0 0 0 0 0 0 0 0 0 0 0 0 0 127 0" result="hardAlpha"/>
<feOffset dy="4"/>
<feGaussianBlur stdDeviation="9"/>
<feComposite in2="hardAlpha" operator="out"/>
<feColorMatrix type="matrix" values="0 0 0 0 0 0 0 0 0 0 0 0 0 0 0 0 0 0 0.05 0"/>
<feBlend mode="normal" in2="BackgroundImageFix" result="effect1_dropShadow_1649_8831"/>
<feBlend mode="normal" in="SourceGraphic" in2="effect1_dropShadow_1649_8831" result="shape"/>
</filter>
<filter id="filter8_d_1649_8831" x="1092" y="221" width="126" height="70" filterUnits="userSpaceOnUse" color-interpolation-filters="sRGB">
<feFlood flood-opacity="0" result="BackgroundImageFix"/>
<feColorMatrix in="SourceAlpha" type="matrix" values="0 0 0 0 0 0 0 0 0 0 0 0 0 0 0 0 0 0 127 0" result="hardAlpha"/>
<feOffset dy="4"/>
<feGaussianBlur stdDeviation="9"/>
<feComposite in2="hardAlpha" operator="out"/>
<feColorMatrix type="matrix" values="0 0 0 0 0 0 0 0 0 0 0 0 0 0 0 0 0 0 0.05 0"/>
<feBlend mode="normal" in2="BackgroundImageFix" result="effect1_dropShadow_1649_8831"/>
<feBlend mode="normal" in="SourceGraphic" in2="effect1_dropShadow_1649_8831" result="shape"/>
</filter>
<filter id="filter9_d_1649_8831" x="42" y="81" width="115" height="70" filterUnits="userSpaceOnUse" color-interpolation-filters="sRGB">
<feFlood flood-opacity="0" result="BackgroundImageFix"/>
<feColorMatrix in="SourceAlpha" type="matrix" values="0 0 0 0 0 0 0 0 0 0 0 0 0 0 0 0 0 0 127 0" result="hardAlpha"/>
<feOffset dy="4"/>
<feGaussianBlur stdDeviation="9"/>
<feComposite in2="hardAlpha" operator="out"/>
<feColorMatrix type="matrix" values="0 0 0 0 0 0 0 0 0 0 0 0 0 0 0 0 0 0 0.05 0"/>
<feBlend mode="normal" in2="BackgroundImageFix" result="effect1_dropShadow_1649_8831"/>
<feBlend mode="normal" in="SourceGraphic" in2="effect1_dropShadow_1649_8831" result="shape"/>
</filter>
<filter id="filter10_d_1649_8831" x="989" y="64" width="104" height="70" filterUnits="userSpaceOnUse" color-interpolation-filters="sRGB">
<feFlood flood-opacity="0" result="BackgroundImageFix"/>
<feColorMatrix in="SourceAlpha" type="matrix" values="0 0 0 0 0 0 0 0 0 0 0 0 0 0 0 0 0 0 127 0" result="hardAlpha"/>
<feOffset dy="4"/>
<feGaussianBlur stdDeviation="9"/>
<feComposite in2="hardAlpha" operator="out"/>
<feColorMatrix type="matrix" values="0 0 0 0 0 0 0 0 0 0 0 0 0 0 0 0 0 0 0.05 0"/>
<feBlend mode="normal" in2="BackgroundImageFix" result="effect1_dropShadow_1649_8831"/>
<feBlend mode="normal" in="SourceGraphic" in2="effect1_dropShadow_1649_8831" result="shape"/>
</filter>
<filter id="filter11_d_1649_8831" x="198" y="27" width="101" height="70" filterUnits="userSpaceOnUse" color-interpolation-filters="sRGB">
<feFlood flood-opacity="0" result="BackgroundImageFix"/>
<feColorMatrix in="SourceAlpha" type="matrix" values="0 0 0 0 0 0 0 0 0 0 0 0 0 0 0 0 0 0 127 0" result="hardAlpha"/>
<feOffset dy="4"/>
<feGaussianBlur stdDeviation="9"/>
<feComposite in2="hardAlpha" operator="out"/>
<feColorMatrix type="matrix" values="0 0 0 0 0 0 0 0 0 0 0 0 0 0 0 0 0 0 0.05 0"/>
<feBlend mode="normal" in2="BackgroundImageFix" result="effect1_dropShadow_1649_8831"/>
<feBlend mode="normal" in="SourceGraphic" in2="effect1_dropShadow_1649_8831" result="shape"/>
</filter>
<filter id="filter12_d_1649_8831" x="581" y="44" width="126" height="70" filterUnits="userSpaceOnUse" color-interpolation-filters="sRGB">
<feFlood flood-opacity="0" result="BackgroundImageFix"/>
<feColorMatrix in="SourceAlpha" type="matrix" values="0 0 0 0 0 0 0 0 0 0 0 0 0 0 0 0 0 0 127 0" result="hardAlpha"/>
<feOffset dy="4"/>
<feGaussianBlur stdDeviation="9"/>
<feComposite in2="hardAlpha" operator="out"/>
<feColorMatrix type="matrix" values="0 0 0 0 0 0 0 0 0 0 0 0 0 0 0 0 0 0 0.05 0"/>
<feBlend mode="normal" in2="BackgroundImageFix" result="effect1_dropShadow_1649_8831"/>
<feBlend mode="normal" in="SourceGraphic" in2="effect1_dropShadow_1649_8831" result="shape"/>
</filter>
<filter id="filter13_d_1649_8831" x="1157.5" y="114" width="94" height="70" filterUnits="userSpaceOnUse" color-interpolation-filters="sRGB">
<feFlood flood-opacity="0" result="BackgroundImageFix"/>
<feColorMatrix in="SourceAlpha" type="matrix" values="0 0 0 0 0 0 0 0 0 0 0 0 0 0 0 0 0 0 127 0" result="hardAlpha"/>
<feOffset dy="4"/>
<feGaussianBlur stdDeviation="9"/>
<feComposite in2="hardAlpha" operator="out"/>
<feColorMatrix type="matrix" values="0 0 0 0 0 0 0 0 0 0 0 0 0 0 0 0 0 0 0.05 0"/>
<feBlend mode="normal" in2="BackgroundImageFix" result="effect1_dropShadow_1649_8831"/>
<feBlend mode="normal" in="SourceGraphic" in2="effect1_dropShadow_1649_8831" result="shape"/>
</filter>
<filter id="filter14_d_1649_8831" x="420.5" y="0" width="105" height="70" filterUnits="userSpaceOnUse" color-interpolation-filters="sRGB">
<feFlood flood-opacity="0" result="BackgroundImageFix"/>
<feColorMatrix in="SourceAlpha" type="matrix" values="0 0 0 0 0 0 0 0 0 0 0 0 0 0 0 0 0 0 127 0" result="hardAlpha"/>
<feOffset dy="4"/>
<feGaussianBlur stdDeviation="9"/>
<feComposite in2="hardAlpha" operator="out"/>
<feColorMatrix type="matrix" values="0 0 0 0 0 0 0 0 0 0 0 0 0 0 0 0 0 0 0.05 0"/>
<feBlend mode="normal" in2="BackgroundImageFix" result="effect1_dropShadow_1649_8831"/>
<feBlend mode="normal" in="SourceGraphic" in2="effect1_dropShadow_1649_8831" result="shape"/>
</filter>
<filter id="filter15_d_1649_8831" x="134" y="137" width="105" height="70" filterUnits="userSpaceOnUse" color-interpolation-filters="sRGB">
<feFlood flood-opacity="0" result="BackgroundImageFix"/>
<feColorMatrix in="SourceAlpha" type="matrix" values="0 0 0 0 0 0 0 0 0 0 0 0 0 0 0 0 0 0 127 0" result="hardAlpha"/>
<feOffset dy="4"/>
<feGaussianBlur stdDeviation="9"/>
<feComposite in2="hardAlpha" operator="out"/>
<feColorMatrix type="matrix" values="0 0 0 0 0 0 0 0 0 0 0 0 0 0 0 0 0 0 0.05 0"/>
<feBlend mode="normal" in2="BackgroundImageFix" result="effect1_dropShadow_1649_8831"/>
<feBlend mode="normal" in="SourceGraphic" in2="effect1_dropShadow_1649_8831" result="shape"/>
</filter>
</defs>
</svg>
