<svg width="51" height="51" viewBox="0 0 51 51" fill="none" xmlns="http://www.w3.org/2000/svg">
<g clip-path="url(#clip0_1657_4061)">
<path d="M50.3841 25.1533C50.4097 39.0652 39.1516 50.3643 25.2379 50.3894C11.3299 50.414 0.0305546 39.155 0.00671693 25.2438C-0.0206173 11.3308 11.2373 0.031107 25.1468 0.00619629C39.0593 -0.0194943 50.3585 11.241 50.3838 25.1536L50.384 25.1533L50.3841 25.1533Z" fill="#9DA8B9"/>
<path d="M35.0959 19.0083C34.7652 15.6339 31.85 14.5078 28.1713 14.1923L28.1628 9.51102L25.3132 9.5166L25.3217 14.0746C24.5726 14.0759 23.8069 14.0921 23.0461 14.1087L23.0382 9.52042L20.1904 9.52557L20.1979 14.2056C19.5811 14.2193 18.9752 14.232 18.3845 14.2334L18.3841 14.2187L14.454 14.2244L14.4603 17.2679C14.4603 17.2679 16.5644 17.224 16.5296 17.2626C17.6836 17.2608 18.0606 17.9303 18.1711 18.5083L18.181 23.8414C18.2605 23.8416 18.3644 23.8447 18.4823 23.8608C18.3872 23.861 18.2859 23.8607 18.1812 23.8619L18.194 31.333C18.1442 31.6963 17.9317 32.276 17.1253 32.2788C17.1619 32.3109 15.054 32.2821 15.054 32.2821L14.4938 35.6862L18.2022 35.6794C18.8923 35.6791 19.5713 35.6896 20.238 35.6923L20.2479 40.427L23.0944 40.4222L23.0856 35.7375C23.8673 35.7523 24.6235 35.7571 25.3621 35.7552L25.3693 40.4181L28.2189 40.4125L28.2111 35.6863C33.0013 35.4027 36.352 34.1899 36.7601 29.6902C37.0896 26.0671 35.3827 24.454 32.6623 23.8059C34.313 22.9615 35.3432 21.4774 35.097 19.0084L35.096 19.008L35.0959 19.0083ZM31.1276 29.1393C31.1356 32.6775 25.0765 32.2862 23.1453 32.2915L23.1347 26.0183C25.0664 26.0153 31.1212 25.4488 31.1277 29.1393L31.1276 29.1393ZM29.7862 20.2911C29.7912 23.51 24.738 23.1436 23.1294 23.1467L23.1193 17.4573C24.7279 17.4543 29.7799 16.9337 29.7864 20.291L29.7862 20.2911Z" fill="white"/>
</g>
<defs>
<clipPath id="clip0_1657_4061">
<rect width="50.3894" height="50.395" fill="white"/>
</clipPath>
</defs>
</svg>
