<svg width="72" height="25" viewBox="0 0 72 25" fill="none" xmlns="http://www.w3.org/2000/svg">
<path fill-rule="evenodd" clip-rule="evenodd" d="M16.449 0L0 24.2968H10.3898L15.3309 17.2723H18.6429L17.3341 24.2968H49.2608L50.7151 15.3963H42.6657L41.1538 23.083C40.1693 23.3664 37.4973 23.9332 34.6857 23.9332C31.3703 23.9163 24.7394 21.8336 24.7394 13.6379C24.7394 3.3934 36.4275 -1.50033 44.7077 1.35741L43.6611 9.38604H51.6313L53.1064 0H16.449ZM19.6399 13.0852H17.802L21.1574 7.16062L19.6399 13.0852Z" fill="#9DA8B9"/>
<path d="M55.4338 15.3963L54.044 24.2968H62.7557L64.0978 15.3963H55.4338Z" fill="#9DA8B9"/>
<path d="M57.7868 0L56.3351 9.38604H65.071L66.5486 0H57.7868Z" fill="#9DA8B9"/>
<path d="M71.5793 9.64209L70.884 15.1392H42.1907V9.64209H71.5793Z" fill="#9DA8B9" stroke="white" stroke-width="0.513338"/>
<path d="M68.2434 13.7473L68.1531 14.2229H68.7467L68.8196 13.7473C69.1483 13.6996 69.8058 13.4218 69.8058 12.6926C69.8058 11.781 68.4416 12.1495 68.6809 11.7616C68.8722 11.4513 69.3295 11.7228 69.5342 11.8974L69.9092 11.1797C69.7799 11.1129 69.4748 10.978 69.2886 10.9729L69.3726 10.5591H68.6809V11.0052C68.3727 11.059 67.7563 11.3465 67.7563 12.0655C67.7563 12.9641 69.0547 12.5568 68.9007 12.9124C68.7467 13.268 67.8856 12.8671 67.821 12.7314L67.4072 13.4555C67.5182 13.5527 67.8407 13.7473 68.2434 13.7473Z" fill="white"/>
<ellipse cx="38.5869" cy="12.1488" rx="5.65394" ry="4.93257" transform="rotate(119.895 38.5869 12.1488)" fill="#9DA8B9"/>
</svg>
