<svg width="50" height="50" viewBox="0 0 50 50" fill="none" xmlns="http://www.w3.org/2000/svg">
<rect x="1" y="1" width="48" height="48" rx="24" stroke="#9DA8B9" stroke-width="2"/>
<path d="M25.1781 9.10376C25.4508 9.10372 25.7194 9.16826 25.9599 9.29166C26.2005 9.41506 26.4055 9.5935 26.5569 9.81115L36.1758 23.6522L27.5132 27.1144L25.5079 13.0032C25.4548 12.6375 24.9013 12.6375 24.8499 13.0032L22.8446 27.1144L14.1803 23.6522L23.7992 9.81115C23.9506 9.5935 24.1557 9.41506 24.3962 9.29166C24.6367 9.16826 24.9053 9.10372 25.1781 9.10376ZM25.8161 31.2364L35.4582 27.3831L26.5586 40.1893C26.4073 40.4073 26.2022 40.5861 25.9615 40.7098C25.7208 40.8335 25.452 40.8982 25.1789 40.8982C24.9058 40.8982 24.637 40.8335 24.3963 40.7098C24.1556 40.5861 23.9505 40.4073 23.7992 40.1893L14.8996 27.3831L24.54 31.2364C24.7422 31.3173 24.959 31.3589 25.1781 31.3589C25.3971 31.3589 25.614 31.3173 25.8161 31.2364Z" fill="#9DA8B9"/>
</svg>
