<svg width="143" height="45" viewBox="0 0 143 45" fill="none" xmlns="http://www.w3.org/2000/svg">
<g clip-path="url(#clip0_1646_4030)">
<path d="M23.1107 44.777C35.9179 44.777 46.2214 34.7955 46.2214 22.3885C46.2214 9.98146 35.9179 0 23.1107 0C10.3034 0 0 9.98146 0 22.3885C0 34.7955 10.3034 44.777 23.1107 44.777Z" fill="#9DA8B9"/>
<path d="M29.4661 25.9331C29.4661 22.6682 27.4439 21.5488 23.3996 21.0824C20.5107 20.7092 19.933 19.963 19.933 18.6569C19.933 17.3507 20.896 16.5114 22.8218 16.5114C24.5551 16.5114 25.5181 17.0711 25.9995 18.4704C26.0959 18.7502 26.3848 18.9367 26.6737 18.9367H28.2142C28.5995 18.9367 28.8884 18.6569 28.8884 18.2839V18.1905C28.5031 16.1382 26.7698 14.5524 24.5551 14.3659V12.127C24.5551 11.7538 24.2662 11.474 23.7848 11.3806H22.3404C21.9552 11.3806 21.6663 11.6605 21.5699 12.127V14.2725C18.6811 14.6458 16.8516 16.5114 16.8516 18.8436C16.8516 21.922 18.7774 23.1346 22.8218 23.6011C25.5181 24.0675 26.3848 24.6272 26.3848 26.1198C26.3848 27.6125 25.0365 28.6386 23.2071 28.6386C20.7033 28.6386 19.8366 27.6123 19.5477 26.213C19.4516 25.84 19.1627 25.6533 18.8738 25.6533H17.2367C16.8516 25.6533 16.5627 25.9331 16.5627 26.3063V26.3997C16.9478 28.7317 18.4886 30.4108 21.6663 30.8774V33.1162C21.6663 33.4892 21.9552 33.7691 22.4366 33.8625H23.881C24.2662 33.8625 24.5551 33.5826 24.6515 33.1162V30.8774C27.5403 30.4108 29.4661 28.4518 29.4661 25.9331Z" fill="white"/>
<path d="M18.1996 35.7284C10.6886 33.1166 6.83677 25.0008 9.62947 17.8177C11.0739 13.8997 14.2516 10.9146 18.1996 9.51533C18.5849 9.32883 18.7774 9.04898 18.7774 8.5824V7.27648C18.7774 6.90327 18.5849 6.62341 18.1996 6.53027C18.1032 6.53027 17.9107 6.53027 17.8143 6.62341C8.66644 9.42197 3.65905 18.8439 6.54789 27.706C8.28119 32.9299 12.4219 36.9412 17.8143 38.6204C18.1996 38.8069 18.5849 38.6204 18.681 38.2471C18.7774 38.154 18.7774 38.0606 18.7774 37.8741V36.568C18.7774 36.2881 18.4885 35.9152 18.1996 35.7284ZM28.4069 6.62341C28.0216 6.43691 27.6364 6.62341 27.5403 6.99663C27.4439 7.08999 27.4439 7.18312 27.4439 7.36984V8.67576C27.4439 9.04898 27.7328 9.42197 28.0216 9.60869C35.5326 12.2205 39.3845 20.3364 36.5918 27.5195C35.1474 31.4375 31.9696 34.4225 28.0216 35.8218C27.6364 36.0083 27.4439 36.2881 27.4439 36.7547V38.0606C27.4439 38.4339 27.6364 38.7137 28.0216 38.8069C28.118 38.8069 28.3105 38.8069 28.4069 38.7137C37.5548 35.9152 42.5622 26.4932 39.6734 17.6312C37.9401 12.3139 33.7029 8.30255 28.4069 6.62341Z" fill="white"/>
</g>
<path d="M68.5142 34.0557C63.2059 34.0557 59.9603 30.9315 59.9603 25.9266V11.8522H64.3586V25.7446C64.3586 28.3835 65.9662 30.2642 68.5142 30.2642C71.0621 30.2642 72.6394 28.4745 72.6394 25.7142V11.8522H77.068V25.9266C77.068 30.9315 73.7921 34.0557 68.5142 34.0557ZM88.7021 34.0557C83.6365 34.0557 80.1482 31.1438 79.9359 26.6242L84.0611 25.8962C84.1521 28.7172 86.1844 30.5675 88.8537 30.5675C91.159 30.5675 92.5847 29.2935 92.5847 27.6252C92.5847 26.2602 91.6443 25.3806 89.3997 24.7436L86.4271 23.8943C82.4838 22.8326 80.7549 20.9823 80.7549 17.767C80.7549 13.8845 83.5758 11.1848 88.2167 11.1848C92.4633 11.1848 95.4359 13.7025 95.7089 17.5244L91.6747 18.3737C91.5837 16.1291 90.1277 14.6428 88.1561 14.6428C86.2451 14.6428 85.0015 15.8257 85.0015 17.3727C85.0015 18.7984 85.8811 19.6477 88.0044 20.224L90.9467 21.043C95.0113 22.1046 96.8616 23.9853 96.8616 27.2309C96.8616 31.2045 93.798 34.0557 88.7021 34.0557ZM99.8956 33.3884V11.8522H107.721C114.577 11.8522 118.368 15.7044 118.368 22.6203C118.368 29.5362 114.546 33.3884 107.721 33.3884H99.8956ZM104.233 29.7485H107.691C111.725 29.7485 113.97 27.2309 113.97 22.6203C113.97 18.0097 111.725 15.4618 107.691 15.4618H104.233V29.7485ZM131.584 34.0557C125.123 34.0557 121.088 29.6575 121.088 22.6203C121.088 15.5528 124.91 11.1848 130.977 11.1848C135.648 11.1848 139.045 14.1271 139.864 19.132L135.739 19.951C135.224 16.7661 133.434 14.9764 130.947 14.9764C127.58 14.9764 125.517 17.8884 125.517 22.6203C125.517 27.3219 127.822 30.2035 131.584 30.2035C134.617 30.2035 136.831 27.9892 137.347 24.3796L141.472 25.1379C140.744 30.6281 136.952 34.0557 131.584 34.0557Z" fill="#9DA8B9"/>
<defs>
<clipPath id="clip0_1646_4030">
<rect width="46.2214" height="44.777" fill="white"/>
</clipPath>
</defs>
</svg>
