<svg width="47" height="47" viewBox="0 0 47 47" fill="none" xmlns="http://www.w3.org/2000/svg">
<path d="M22.5863 0.0106675C35.4485 -0.374967 46.1849 9.74287 46.5587 22.6018C46.9323 35.4607 36.8018 46.1847 23.9389 46.5465C11.093 46.9075 0.38315 36.796 0.0100222 23.9539C-0.363338 11.1119 9.74115 0.39579 22.5863 0.0106675Z" fill="#9DA8B9"/>
<path d="M3.45232 16.3604C4.5929 16.182 5.95591 16.3148 7.11768 16.3153L14.7745 16.3192L42.8797 16.3181C42.9114 16.3486 42.9139 16.3497 42.9465 16.3877C43.1576 16.6339 43.2782 17.1365 43.3756 17.4465C44.1575 19.9333 44.3161 22.6517 44.0964 25.2393C44.0156 26.191 43.5721 29.6507 42.851 30.2593C42.1386 30.4061 40.7977 30.2731 40.0118 30.2717L32.6553 30.2633L3.41809 30.2661C3.4847 30.0483 2.56841 26.4561 2.48992 25.6681C2.34831 24.2457 2.27075 22.6121 2.448 21.1946C2.54652 20.4069 3.47445 16.4946 3.45232 16.3604Z" fill="#FEFEFE"/>
<path d="M19.2522 24.6611C19.2918 24.6246 19.329 24.5857 19.3684 24.5489C20.5407 23.45 21.2063 19.7546 22.3162 18.9144C22.451 18.8122 22.7389 18.8641 22.8994 18.8809C22.9513 18.9368 23.0361 18.9981 23.0424 19.0752C23.0866 19.6188 22.3816 20.948 22.0062 21.3547C21.9947 21.367 21.9826 21.3787 21.9707 21.3908C21.9933 21.5401 19.513 26.8237 19.2142 27.2972C19.0512 27.5555 18.8721 27.7931 18.5616 27.8634C17.2496 27.4894 18.007 23.408 17.3241 22.315C17.3125 22.2963 17.2999 22.2782 17.288 22.2598C17.2955 22.3173 17.3008 22.3753 17.2999 22.4335C17.2936 22.8588 15.0667 27.2402 14.6929 27.6072C14.5254 27.7719 14.4015 27.8073 14.1735 27.8106C13.9578 27.6492 13.9098 27.3808 13.8479 27.1232C13.7226 26.6032 12.9451 19.2438 12.9884 19.0616C12.9994 19.0155 13.0383 18.9811 13.0632 18.9408L13.4095 18.9189L14.7677 18.9235C14.8154 18.9974 14.8538 19.08 14.8834 19.1627C15.0108 19.5212 15.2756 23.7125 15.2384 24.2444C15.227 24.4077 15.1664 24.5596 15.0919 24.7033C15.1485 24.6539 15.202 24.6017 15.2572 24.5509C16.2602 23.6309 17.2032 20.086 18.2297 19.1767C18.4009 19.0251 18.4901 19.0088 18.7109 19.0276C18.8427 19.1334 18.9182 19.247 18.9724 19.4054C19.2021 20.0781 19.4688 23.3009 19.4245 24.1028C19.4136 24.302 19.3384 24.4841 19.2522 24.6611Z" fill="#9DA8B9"/>
<path d="M9.26083 18.663C9.96982 18.5885 11.062 18.6162 11.6531 19.0434C11.8301 19.1715 11.9561 19.3425 11.975 19.5667C12.0057 19.9329 11.7097 20.3272 11.4877 20.5906C11.4598 20.3538 11.3086 20.1399 11.1428 19.975C10.7689 19.6033 10.2999 19.2924 9.75205 19.3054C9.35423 19.3147 8.96363 19.5425 8.70231 19.8341C8.47731 20.0847 8.38275 20.4523 8.40255 20.783C8.46707 21.8595 9.88248 22.5289 10.6013 23.1916C11.1246 23.6742 11.5222 24.2767 11.5422 25.0067C11.5616 25.7185 11.2227 26.6061 10.7324 27.122C10.07 27.8196 9.17209 27.9314 8.26443 27.9502L8.22949 27.9495C7.70241 27.9337 6.47263 27.912 6.11767 27.5103C5.70867 27.047 5.95439 26.3166 5.99306 25.7727C6.54017 26.0823 6.86765 26.7761 7.45273 27.1108C7.81165 27.316 8.20341 27.3342 8.5954 27.2187C9.0221 27.0929 9.58761 26.805 9.79467 26.3881C10.4615 25.0465 7.41942 23.4501 6.9678 21.9697C6.77285 21.3308 6.86578 20.6225 7.18744 20.04C7.62997 19.2386 8.4298 18.9092 9.26083 18.663Z" fill="#9DA8B9"/>
<path d="M29.3167 18.9186C30.7743 18.7144 32.4699 18.8425 33.9454 18.853C33.9591 18.8879 33.9657 18.9023 33.9761 18.9415C34.0879 19.363 33.7882 20.1463 33.5662 20.5076C33.5471 20.3585 33.4139 20.1896 33.3121 20.0816C32.9949 19.7455 32.3189 19.4236 31.8547 19.4285C30.485 19.4432 30.7717 21.5422 30.0944 22.2111C30.0804 22.2248 30.0657 22.2381 30.0515 22.2516L32.5533 22.1655C32.714 22.6147 32.5311 23.0002 32.3488 23.4129C31.7213 23.2855 31.0929 23.2771 30.4591 23.3528C29.0139 24.1017 29.6602 26.8186 28.8001 27.5926C28.376 27.9743 27.3572 27.842 26.8103 27.8306C27.3353 27.3119 28.7165 20.2879 29.3167 18.9186Z" fill="#9DA8B9"/>
<path d="M36.0799 18.8336C37.5808 18.8166 39.0819 18.8245 40.5828 18.8574C40.7338 19.3209 40.5619 19.6777 40.3599 20.0967C39.9246 19.806 39.1425 19.7166 38.6338 19.81C38.4801 19.838 38.3059 19.8987 38.2118 20.0303C37.496 21.0302 36.8725 26.2657 36.1801 27.2413C36.2502 27.3923 36.2495 27.4947 36.2329 27.659C35.7939 27.999 34.6358 27.8197 34.081 27.8103C34.0941 27.7952 34.1076 27.7805 34.1204 27.7652C34.4039 27.4265 36.3175 20.4291 36.2455 20.0557C36.2264 19.956 36.1589 19.912 36.0718 19.8706C35.5337 19.6137 34.5998 20.001 34.0759 20.1743C34.3417 19.8314 34.3456 19.3206 34.6452 19.0274C34.9417 18.7372 35.6879 18.8339 36.0799 18.8336Z" fill="#9DA8B9"/>
<path d="M24.6906 18.9186C25.3241 18.8322 25.9804 18.8755 26.6186 18.8895C26.6398 18.9799 26.6517 19.043 26.6312 19.1357C26.3149 20.5557 25.8737 21.9542 25.5267 23.3684C25.213 24.6471 25.0122 26.1291 24.5296 27.3419C24.439 27.5702 24.3682 27.6188 24.1695 27.7474C23.9215 27.9615 22.7271 27.8364 22.363 27.8266C22.3912 27.7919 22.3915 27.7928 22.4203 27.7504C22.6661 27.3871 24.7509 19.2291 24.6906 18.9186Z" fill="#9DA8B9"/>
<path d="M24.4037 32.6477C26.8847 32.4732 29.9555 32.627 32.5026 32.6335C32.515 32.6784 32.5273 32.7287 32.5289 32.7756C32.5476 33.3257 31.6877 35.8475 31.2968 36.2294C31.2982 36.2394 31.3001 36.2495 31.3015 36.2597C31.3497 36.6536 31.1033 36.9785 30.8713 37.2699C28.7033 37.3293 26.5188 37.2708 24.3492 37.2673C24.6737 36.6617 24.4799 33.4648 24.4037 32.6477Z" fill="#FEFEFE"/>
<path d="M13.9597 32.6477C16.6021 32.5089 19.3284 32.6168 21.9761 32.6394C22.0255 32.7393 22.0719 32.8571 22.0903 32.9671C22.175 33.4741 22.2156 36.7091 22.0768 37.0307C22.046 37.1017 21.9654 37.1872 21.9191 37.2524C21.2499 37.357 20.4526 37.2832 19.7725 37.282L15.4802 37.2797C15.5331 37.0575 14.1323 33.2216 13.9597 32.6477Z" fill="#FEFEFE"/>
<path d="M15.5093 9.36845C16.2453 9.2811 17.0414 9.32699 17.7837 9.32699L21.9575 9.33793C22.0034 9.4099 22.0451 9.48606 22.0682 9.56875C22.2303 10.1524 22.234 13.4829 21.9566 13.9692L20.2908 13.9652C18.1429 13.9536 15.9947 13.9587 13.8468 13.9806C14.0052 13.8061 15.4772 9.70314 15.5093 9.36845Z" fill="#FEFEFE"/>
<path d="M24.3821 9.36811C25.1637 9.27867 26.0006 9.32712 26.7881 9.32665C28.1497 9.31896 29.5113 9.32595 30.8727 9.34738C30.8852 9.35856 30.8981 9.36927 30.9102 9.38069C31.4116 9.85187 32.521 13.1616 32.5236 13.8869L32.3065 13.9728L24.349 13.9549C24.362 13.9348 24.3758 13.915 24.3879 13.8943C24.5707 13.582 24.5009 9.88751 24.3821 9.36811Z" fill="#FEFEFE"/>
<path d="M4.50818 32.6474C6.62839 32.4727 9.24261 32.6213 11.4101 32.6234C11.4579 32.6723 11.5037 32.7255 11.5363 32.786C11.5801 32.8673 12.8556 36.9081 12.8714 37.0017C12.884 37.0751 12.8681 37.1443 12.8451 37.2137C12.4361 37.4461 8.38223 37.2738 7.63737 37.2687C7.5824 36.9493 6.93257 36.3025 6.70875 36.0058C5.89262 34.9237 5.25979 33.7649 4.50818 32.6474Z" fill="#FEFEFE"/>
<path d="M35.0575 32.6477C37.3254 32.5725 39.6003 32.6554 41.87 32.6123C41.8789 32.674 41.8868 32.7278 41.877 32.79C41.7601 33.5253 40.0286 35.9451 39.4675 36.3999C39.3886 36.7489 39.0178 37.0682 38.7392 37.2762C36.9753 37.3002 35.2068 37.2708 33.4425 37.2678C33.4537 37.2561 33.4644 37.2443 33.4756 37.2328C34.1562 36.5339 34.7657 33.7154 35.0575 32.6477Z" fill="#FEFEFE"/>
<path d="M7.6816 9.3687C9.31921 9.16956 11.1541 9.32771 12.8127 9.3347C12.8292 9.39875 12.8402 9.46233 12.8448 9.52848C12.859 9.73065 11.5563 13.7847 11.3838 13.9837L9.62922 13.9673C7.87724 13.9569 6.12527 13.966 4.37329 13.9944C4.89898 13.6259 5.628 12.1015 6.0533 11.4824C6.56035 10.7445 7.15312 10.0861 7.6816 9.3687Z" fill="#FEFEFE"/>
<path d="M33.6112 9.36865C35.2705 9.18907 37.073 9.33138 38.7458 9.33907C39.5722 9.80629 41.561 12.8591 41.8969 13.818L41.7916 13.9733L34.9325 13.957C35.1391 13.1875 33.9168 10.1897 33.6112 9.36865Z" fill="#FEFEFE"/>
<path d="M24.3808 2.5463C24.3964 2.54623 24.4122 2.54647 24.4278 2.54607C25.0248 2.531 25.6951 2.927 26.1908 3.23536C27.1772 3.84913 29.3435 5.73543 29.6041 6.85432L29.3707 6.96845C27.6856 7.01759 25.9921 6.98219 24.306 6.98079C24.3356 6.9391 24.3589 6.91162 24.3789 6.8662C24.5811 6.4055 24.5604 3.0159 24.3808 2.5463Z" fill="#FEFEFE"/>
<path d="M16.7849 39.6396C18.2756 39.4393 20.417 39.6065 21.9691 39.6144C22.011 39.6759 22.0457 39.7397 22.0681 39.8112C22.2276 40.3195 22.216 43.5588 21.9852 44.0272L21.9109 44.0614C19.52 43.362 18.2758 41.4556 16.7849 39.6396Z" fill="#FEFEFE"/>
<path d="M21.7293 2.54665C21.8446 2.53862 21.9587 2.56032 22.0726 2.57586C22.1609 3.29598 22.2622 6.40468 21.9751 6.98836L17.1349 6.97112C17.0648 6.96973 16.983 6.93875 16.9143 6.92151L16.9297 6.79132C18.4208 4.64499 19.4102 3.76714 21.7293 2.54665Z" fill="#FEFEFE"/>
<path d="M24.3862 39.6399C26.1089 39.5199 27.8792 39.6196 29.6086 39.5949C29.6114 39.6646 29.6084 39.7337 29.5886 39.8011C29.3983 40.4483 28.2202 41.7913 27.654 42.1127C27.6372 42.1558 27.6181 42.2022 27.5927 42.2408C27.0447 43.0772 25.3593 43.928 24.4011 44.0995C24.5476 43.3667 24.5854 40.3824 24.3862 39.6399Z" fill="#FEFEFE"/>
<path d="M32.4024 39.64C33.6634 39.541 34.9665 39.6027 36.2326 39.6006C35.904 40.2285 33.5853 41.5762 32.8398 41.8568C32.3017 42.3897 30.6159 42.9229 29.8604 43.1409C29.9982 43.0575 30.1378 42.9702 30.2605 42.8653C30.7727 42.4272 32.3427 40.3217 32.4024 39.64Z" fill="#FEFEFE"/>
<path d="M16.015 3.56982C16.1412 3.58613 16.1743 3.58387 16.2772 3.66539C15.7269 4.35342 14.3916 6.61754 13.9458 6.97716L10.4604 6.97437L10.3666 6.96924L10.3719 6.84324C11.4089 6.00265 12.6531 5.25197 13.8361 4.64404C14.4794 4.31347 15.4909 4.03383 16.015 3.56982Z" fill="#FEFEFE"/>
<path d="M10.2007 39.6399C11.4312 39.5127 12.7446 39.6057 13.9846 39.6108C14.0009 39.6238 14.0177 39.6362 14.0337 39.6495C14.0379 39.6529 16.027 42.5446 16.1456 42.746C16.1847 42.8127 16.1973 42.8904 16.2043 42.9664C16.0049 42.998 15.6448 42.7945 15.4575 42.7167C13.5421 41.9197 11.8942 40.8194 10.2007 39.6399Z" fill="#FEFEFE"/>
<path d="M30.2323 3.56982C31.8816 3.81236 34.7806 5.82904 36.1637 6.82032L36.0724 6.9808L32.3795 6.98545C32.3919 6.21614 30.713 4.24103 30.2323 3.56982Z" fill="#FEFEFE"/>
</svg>
