<svg width="78" height="22" viewBox="0 0 78 22" fill="none" xmlns="http://www.w3.org/2000/svg">
<path fill-rule="evenodd" clip-rule="evenodd" d="M44.5835 0.0445824C47.466 0.0502078 52.5839 -0.230409 55.2349 0.775051C55.8426 1.00571 56.3746 1.37027 56.8277 1.83462C58.3418 3.38576 58.5755 5.71365 58.562 7.77993C58.5481 9.94043 58.3955 12.4793 56.7486 14.07C55.1344 15.6285 52.8554 15.3889 50.7925 15.3698C49.2154 15.3811 47.6382 15.3747 46.0611 15.3512L46.0562 20.9235C44.307 20.9943 42.5639 21.0627 40.813 21.0436L40.8179 7.39029C40.8179 4.98127 40.7342 2.5378 40.8863 0.134426C41.503 0.0792726 42.1292 0.0737815 42.7486 0.0494653L44.5835 0.0445824ZM51.8238 5.00259C50.7247 4.08097 47.913 4.38184 46.5279 4.49478C46.2834 4.64283 46.1972 4.67353 46.1216 4.96841C45.8319 6.10036 46.0584 9.36629 46.0689 10.7438C47.637 10.7564 50.5435 11.0273 51.9634 10.5377C52.7831 9.56387 52.6929 7.93835 52.5982 6.72818C52.5486 6.08975 52.3275 5.42516 51.8238 5.00259Z" fill="#9DA8B9"/>
<path fill-rule="evenodd" clip-rule="evenodd" d="M62.4169 0.0207853C65.2062 0.11284 68.0442 -0.118976 70.8231 0.0920743C71.5933 1.82177 72.0394 3.80057 72.5819 5.61454L75.1991 14.3694C75.8728 16.6217 76.5011 18.8798 77.3768 21.0647C75.4847 20.9918 73.5704 21.0521 71.6757 21.053C71.3251 19.9519 71.0212 18.7938 70.5204 17.7513C70.434 17.6535 70.3199 17.479 70.204 17.4261C69.5302 17.1172 63.6147 17.1704 62.8915 17.4475C62.1985 18.1207 62.0182 20.133 61.8514 21.0677C59.9293 21.0364 58.004 21.0497 56.0819 21.0423C56.9949 18.3362 57.7527 15.5613 58.5702 12.8235L62.4169 0.0207853ZM66.6219 4.38895C65.8939 7.4435 65.0166 10.4734 64.1639 13.4954L67.3807 13.4915L69.6024 13.4905C69.2567 12.3112 67.1932 4.82854 66.6219 4.38895Z" fill="#9DA8B9"/>
<path d="M6.60894 0.259905C7.33783 0.147401 8.13274 0.164774 8.87379 0.160431C11.0101 0.147399 14.2271 0.165643 15.8238 1.795C17.0857 3.08249 17.0644 4.90688 17.0466 6.58706C15.406 6.46934 13.6871 6.5775 12.0382 6.58359C11.9461 5.98849 11.8905 5.13841 11.4058 4.71749C10.6017 4.01901 8.77519 4.12848 7.76613 4.21231C7.05548 4.27139 6.27577 4.47251 5.8149 5.06239C5.48477 5.48461 5.37096 6.01107 5.43004 6.5371C5.4839 7.01796 5.62246 7.59482 6.04859 7.8789C7.36519 8.75678 13.9795 7.89063 16.2778 9.73804C17.1292 10.4226 17.5236 11.4182 17.6491 12.4781C17.8498 14.1717 17.7199 17.6646 16.6531 18.9825C15.4642 20.4507 12.6972 20.8755 10.9115 21.0592L10.4554 21.0627C7.94769 21.0792 3.18821 21.3459 1.3408 19.4785C-0.00838194 18.1146 -0.00881646 16.1251 0.00160862 14.3372L5.07471 14.3255C5.1225 15.0249 5.21589 15.9722 5.76755 16.4722C6.38741 17.0343 9.65046 16.9422 10.5105 16.8614C11.0974 16.8062 11.6929 16.5886 12.0634 16.1095C12.3957 15.6799 12.4787 15.13 12.414 14.6018C12.3597 14.1574 12.2559 13.6648 11.9062 13.3577C10.3229 11.9668 4.24766 13.1288 1.88985 11.2358C0.752215 10.3227 0.249204 8.16298 0.0871806 6.75429C-0.0870052 5.24222 0.213152 3.31793 1.19485 2.10514C2.42414 0.586558 4.80453 0.442778 6.60894 0.259905Z" fill="#9DA8B9"/>
<path d="M32.7832 0.261188C34.9768 0.144774 37.0766 0.381515 39.1751 1.03048C38.838 2.03737 38.5544 3.05251 38.2816 4.07851C35.9685 3.07162 32.9583 2.87484 30.5688 3.71102C28.5789 4.40733 27.3578 5.72176 26.4648 7.58003C29.8403 7.64128 33.2493 7.63781 36.6244 7.56961C36.2322 8.50048 35.8968 9.45437 35.5533 10.4044C32.4214 10.039 29.2248 10.1911 26.0825 9.91047L26.0764 11.5937C29.0823 11.5676 32.3697 11.7957 35.3421 11.5103L34.4938 13.9489C31.9483 13.8807 29.3977 13.9215 26.8518 13.9302C27.3596 14.766 27.9373 15.4249 28.6566 16.0765C28.7231 16.1277 28.7904 16.1773 28.859 16.225C31.5969 18.1298 34.9968 17.8253 38.1005 17.2662C38.2794 18.2853 38.494 19.3009 38.6908 20.3169C35.1962 21.3663 30.706 21.4702 27.307 20.0167C24.6482 18.8804 23.0605 16.9874 21.9972 14.3359C20.8044 14.3346 19.6046 14.3072 18.4153 14.4037L19.748 11.9938L21.6544 11.999L21.6584 10.1238L18.4505 10.1103L19.5985 7.74987C20.3865 7.83675 21.2118 7.8172 22.0059 7.83848C22.5341 6.47758 23.1239 5.23613 24.0817 4.11978C26.3058 1.52784 29.4676 0.503136 32.7832 0.261188Z" fill="#9DA8B9"/>
</svg>
