<svg width="50" height="50" viewBox="0 0 50 50" fill="none" xmlns="http://www.w3.org/2000/svg">
<g clip-path="url(#clip0_1646_4021)">
<path d="M36.1836 6.2312C36.9159 6.23144 37.6351 6.42522 38.2683 6.7929C38.9016 7.16059 39.4264 7.68913 39.7896 8.32495L46.7147 20.4388C47.1667 21.2299 47.3461 22.1476 47.2252 23.0507C47.1043 23.9537 46.69 24.792 46.0459 25.4364L26.7638 44.7184C26.5227 44.9596 26.2365 45.1509 25.9214 45.2815C25.6064 45.412 25.2687 45.4792 24.9277 45.4792C24.5866 45.4792 24.2489 45.412 23.9339 45.2815C23.6188 45.1509 23.3326 44.9596 23.0915 44.7184L3.80942 25.4364C3.16533 24.792 2.75096 23.9537 2.6301 23.0507C2.50924 22.1476 2.68861 21.2299 3.14058 20.4388L10.0637 8.32288C10.427 7.68774 10.9515 7.15982 11.5844 6.79253C12.2172 6.42523 12.9358 6.23159 13.6675 6.2312H36.1836ZM31.157 12.4626H18.6942C18.1647 12.4632 17.6555 12.6659 17.2706 13.0293C16.8856 13.3928 16.6539 13.8895 16.6229 14.418C16.5919 14.9465 16.7638 15.4669 17.1036 15.8729C17.4434 16.2789 17.9254 16.5398 18.4511 16.6023L18.6942 16.6169H22.8484V19.8261C21.274 19.9715 19.8428 20.2768 18.6859 20.7109C17.8654 21.0183 17.1301 21.4088 16.5817 21.897C16.0334 22.383 15.5785 23.0539 15.5785 23.8869C15.5785 24.7198 16.0334 25.3907 16.5817 25.8767C17.1301 26.3649 17.8654 26.7554 18.6859 27.0607C19.9197 27.5239 21.4651 27.8438 23.1662 27.9747C23.0017 28.2364 22.8981 28.5316 22.863 28.8387L22.8484 29.0797V33.234C22.849 33.7634 23.0517 34.2726 23.4152 34.6576C23.7786 35.0425 24.2753 35.2742 24.8038 35.3052C25.3324 35.3362 25.8528 35.1643 26.2587 34.8245C26.6647 34.4847 26.9256 34.0027 26.9882 33.477L27.0027 33.234V29.0797C27.0034 28.6887 26.8932 28.3055 26.6849 27.9747C28.3861 27.8438 29.9315 27.526 31.1653 27.0607C31.9858 26.7554 32.7211 26.3649 33.2694 25.8767C33.8178 25.3907 34.2727 24.7198 34.2727 23.8869C34.2727 23.0539 33.8178 22.383 33.2694 21.897C32.7211 21.4088 31.9858 21.0183 31.1653 20.713C30.0353 20.3077 28.8622 20.0345 27.6695 19.8988L27.0027 19.8261V16.6169H31.157C31.6864 16.6163 32.1956 16.4136 32.5806 16.0501C32.9656 15.6867 33.1972 15.19 33.2282 14.6615C33.2593 14.133 33.0873 13.6126 32.7475 13.2066C32.4077 12.8006 31.9257 12.5397 31.4 12.4771L31.157 12.4626ZM27.0006 21.9136C28.1723 22.0165 29.3264 22.2656 30.4362 22.6551C31.1196 22.9127 31.5994 23.1931 31.8902 23.4507C32.0164 23.5477 32.1164 23.6748 32.181 23.8204L32.1955 23.8869L32.181 23.9533C32.1164 24.0989 32.0164 24.226 31.8902 24.323C31.5994 24.5806 31.1196 24.8631 30.4362 25.1165C29.0757 25.6275 27.1273 25.964 24.9256 25.964C22.7238 25.964 20.7755 25.6275 19.4149 25.1165C18.7316 24.861 18.2517 24.5806 17.9589 24.323C17.8326 24.226 17.7327 24.0989 17.6681 23.9533L17.6556 23.8869C17.6556 23.8598 17.666 23.7103 17.9589 23.4507C18.2497 23.1931 18.7316 22.9106 19.4149 22.6572C20.3289 22.3145 21.5066 22.0486 22.8505 21.9136C22.8744 22.4479 23.1035 22.9523 23.49 23.3219C23.8766 23.6916 24.3908 23.8978 24.9256 23.8978C25.4604 23.8978 25.9746 23.6916 26.3611 23.3219C26.7477 22.9523 26.9767 22.4479 27.0006 21.9136Z" fill="#9DA8B9"/>
</g>
<defs>
<clipPath id="clip0_1646_4021">
<rect width="49.8512" height="49.8512" fill="white"/>
</clipPath>
</defs>
</svg>
