<svg width="119" height="21" viewBox="0 0 119 21" fill="none" xmlns="http://www.w3.org/2000/svg">
<path d="M2.93016e-05 19.957V1.98895e-05H11.7775V3.51358H4.10387V8.79797H10.1191V11.9742H4.10387V19.957H2.93016e-05ZM14.6582 19.957V1.98895e-05H26.9978V3.34493H18.6214V8.20769H25.8734V11.2153H18.6214V16.584H27.2789V19.957H14.6582ZM30.2496 19.957V1.98895e-05H37.5016C43.8541 1.98895e-05 47.3676 3.5698 47.3676 9.97853C47.3676 16.3873 43.826 19.957 37.5016 19.957H30.2496ZM34.2691 16.584H37.4734C41.2119 16.584 43.2919 14.251 43.2919 9.97853C43.2919 5.70604 41.2119 3.34493 37.4734 3.34493H34.2691V16.584ZM53.5034 19.957L48.5282 1.98895e-05H52.6883L56.2018 15.8251H56.258L59.631 1.98895e-05H64.803L68.176 15.8251H68.2322L71.6896 1.98895e-05H75.8496L70.9025 19.957H65.5338L62.2451 4.44116H62.1889L58.844 19.957H53.5034ZM78.3688 19.957V1.98895e-05H82.4727V19.957H78.3688ZM99.6246 20.4911C97.7975 20.4911 96.6451 19.3386 96.2234 17.7084L95.2396 14.0261C94.9023 12.8737 94.0029 12.0586 93.0191 12.0586H90.4331V19.957H86.3293V1.98895e-05H94.6775C99.0062 1.98895e-05 101.901 2.41735 101.901 6.09956C101.901 8.60121 100.243 10.7093 97.4602 11.3558V11.3839C98.4721 11.8618 98.9781 12.6769 99.231 13.7451L99.9619 16.584C100.131 17.1743 100.412 17.5959 100.889 17.5959C101.311 17.5959 101.733 17.3148 102.154 16.7246L103.335 18.7765C102.435 19.8165 101.086 20.4911 99.6246 20.4911ZM90.4331 9.02284H94.3964C96.3921 9.02284 97.8256 7.87039 97.8256 6.15577C97.8256 4.32872 96.4202 3.20439 94.3964 3.20439H90.4331V9.02284ZM105.709 19.957V1.98895e-05H118.048V3.34493H109.672V8.20769H116.924V11.2153H109.672V16.584H118.329V19.957H105.709Z" fill="#9DA8B9"/>
</svg>
