<svg width="151" height="24" viewBox="0 0 151 24" fill="none" xmlns="http://www.w3.org/2000/svg">
<path d="M15.4569 14.6401C15.4569 15.9871 15.2209 17.1671 14.749 18.1798C14.2868 19.1827 13.6477 20.0185 12.8316 20.6871C12.0253 21.3558 11.0765 21.8572 9.98506 22.1915C8.90346 22.5259 7.7383 22.693 6.48955 22.693C6.00775 22.693 5.47679 22.6291 4.89666 22.5013C4.32637 22.3734 3.74624 22.2161 3.15628 22.0293C2.56632 21.8326 1.99603 21.6262 1.4454 21.4098C0.904604 21.1837 0.422804 20.9723 0 20.7756L0.648955 14.6991C1.48473 15.2005 2.409 15.584 3.42176 15.8495C4.44436 16.1051 5.44729 16.233 6.43055 16.233C6.61737 16.233 6.84352 16.228 7.10901 16.2182C7.37449 16.1985 7.62522 16.1543 7.8612 16.0855C8.10702 16.0068 8.31351 15.8937 8.48066 15.7462C8.64782 15.5987 8.73139 15.3873 8.73139 15.112C8.73139 14.9252 8.6724 14.7679 8.55441 14.6401C8.43641 14.5024 8.28401 14.3942 8.09719 14.3156C7.91037 14.2271 7.69896 14.1632 7.46298 14.1239C7.227 14.0747 6.99593 14.0403 6.76978 14.0206C6.54363 14.0009 6.33223 13.9911 6.13557 13.9911C5.93892 13.9911 5.7816 13.9911 5.66361 13.9911C4.818 13.9911 4.04614 13.8436 3.34802 13.5486C2.65973 13.2537 2.06486 12.8456 1.56339 12.3245C1.07176 11.7935 0.688285 11.1691 0.412971 10.4514C0.137657 9.72374 0 8.93713 0 8.09152C0 6.93127 0.231067 5.89392 0.693202 4.97949C1.16517 4.05522 1.78954 3.27352 2.56632 2.6344C3.35293 1.98545 4.25262 1.4889 5.26538 1.14475C6.27815 0.800611 7.32532 0.62854 8.40692 0.62854C8.88872 0.62854 9.38526 0.648205 9.89656 0.687536C10.4079 0.717034 10.9142 0.77603 11.4157 0.864524C11.927 0.953017 12.4236 1.06609 12.9054 1.20375C13.3872 1.34141 13.8444 1.51348 14.277 1.71996L13.7165 7.70805C13.0479 7.4819 12.3449 7.29508 11.6074 7.14759C10.8798 6.99026 10.167 6.9116 9.46884 6.9116C9.34102 6.9116 9.17386 6.91652 8.96738 6.92635C8.77072 6.92635 8.55932 6.9411 8.33317 6.9706C8.11685 6.99026 7.89562 7.02468 7.66947 7.07384C7.44332 7.123 7.24175 7.19183 7.06476 7.28033C6.88777 7.35899 6.7452 7.46715 6.63704 7.6048C6.52888 7.74246 6.47972 7.9047 6.48955 8.09152C6.49938 8.30784 6.57804 8.48483 6.72553 8.62248C6.88285 8.75031 7.07951 8.85355 7.31549 8.93221C7.56131 9.00104 7.82679 9.0502 8.11194 9.0797C8.40691 9.1092 8.69698 9.12887 8.98213 9.1387C9.26727 9.1387 9.53275 9.1387 9.77857 9.1387C10.0244 9.12887 10.226 9.13378 10.3833 9.15345C11.1699 9.20261 11.8778 9.36977 12.5071 9.65491C13.1364 9.94006 13.6674 10.3186 14.1 10.7906C14.5425 11.2626 14.8768 11.8279 15.1029 12.4867C15.3389 13.1357 15.4569 13.8535 15.4569 14.6401Z" fill="black"/>
<path d="M34.0406 6.08566C34.0406 6.81328 34.0062 7.61464 33.9374 8.48974C33.8686 9.36485 33.7555 10.2695 33.5982 11.2036C33.4408 12.1377 33.2344 13.0865 32.9787 14.0501C32.7329 15.0039 32.4232 15.9232 32.0495 16.8082C31.6759 17.6931 31.2383 18.524 30.7369 19.3007C30.2452 20.0677 29.6749 20.7412 29.026 21.3214C28.3869 21.8916 27.6691 22.339 26.8726 22.6635C26.0762 22.9978 25.1912 23.165 24.2178 23.165C23.0772 23.165 22.0841 22.9782 21.2385 22.6045C20.4027 22.2407 19.685 21.7491 19.0852 21.1296C18.4854 20.5003 17.9937 19.7727 17.6103 18.9468C17.2268 18.111 16.9269 17.231 16.7106 16.3067C16.4943 15.3726 16.3419 14.4237 16.2534 13.4601C16.1747 12.4867 16.1354 11.5526 16.1354 10.6578C16.1354 9.28127 16.2042 7.90962 16.3419 6.54288C16.4795 5.16631 16.6762 3.79465 16.9318 2.42791L23.8343 2.6934C23.5689 4.23712 23.3378 5.79068 23.1411 7.35407C22.9543 8.90763 22.8609 10.471 22.8609 12.0442C22.8609 12.2114 22.8658 12.4621 22.8757 12.7964C22.8953 13.1209 22.9248 13.4896 22.9642 13.9026C23.0035 14.3058 23.0576 14.7236 23.1264 15.1563C23.2051 15.5791 23.3083 15.9675 23.4361 16.3214C23.5639 16.6754 23.7164 16.9655 23.8933 17.1916C24.0802 17.4178 24.2965 17.5309 24.5423 17.5309C24.8274 17.5309 25.0831 17.3981 25.3092 17.1326C25.5354 16.8573 25.732 16.4935 25.8992 16.0412C26.0762 15.5889 26.2286 15.0678 26.3564 14.4778C26.4842 13.8879 26.5924 13.2733 26.6809 12.6342C26.7694 11.9951 26.8382 11.356 26.8874 10.7168C26.9464 10.0777 26.9906 9.48284 27.0201 8.93221C27.0595 8.38158 27.084 7.89487 27.0939 7.47206C27.1037 7.04926 27.1086 6.73462 27.1086 6.52813C27.1086 5.76118 27.0939 4.99915 27.0644 4.24204C27.0447 3.47509 27.0103 2.71306 26.9611 1.95595H33.8636C33.9816 3.31285 34.0406 4.68942 34.0406 6.08566Z" fill="black"/>
<path d="M52.5063 8.26851C52.5063 9.03546 52.4375 9.73357 52.2999 10.3629C52.172 10.9823 51.9656 11.5526 51.6804 12.0737C51.3953 12.5949 51.0265 13.0767 50.5742 13.5191C50.1219 13.9616 49.5762 14.3844 48.9371 14.7876L52.4474 21.0411L45.8103 22.339L43.539 16.056L41.7101 16.115L41.4446 22.2505H35.1026C35.1517 20.0087 35.196 17.7767 35.2353 15.5545C35.2845 13.3323 35.3385 11.1003 35.3975 8.85847C35.4172 7.72771 35.4369 6.60679 35.4565 5.4957C35.4762 4.38461 35.5155 3.26369 35.5745 2.13294C36.2628 1.87729 36.9413 1.66588 37.6099 1.49873C38.2785 1.33157 38.9471 1.20375 39.6157 1.11526C40.2942 1.01693 40.9776 0.953017 41.6659 0.92352C42.364 0.884189 43.0768 0.864524 43.8045 0.864524C44.9254 0.864524 46.007 1.02185 47.0492 1.33649C48.1013 1.6413 49.0305 2.10344 49.8368 2.72289C50.6431 3.34235 51.2871 4.11421 51.7689 5.03848C52.2605 5.96275 52.5063 7.03943 52.5063 8.26851ZM45.8988 8.74048C45.8988 8.3275 45.8398 7.94895 45.7218 7.6048C45.6137 7.26066 45.4465 6.96568 45.2204 6.71987C45.004 6.46422 44.7287 6.26756 44.3944 6.12991C44.0699 5.98242 43.6865 5.90867 43.244 5.90867C43.0473 5.90867 42.8556 5.92342 42.6688 5.95292C42.482 5.97259 42.3001 6.007 42.1231 6.05616L41.8871 11.5428H42.2411C42.6639 11.5428 43.0916 11.4887 43.5242 11.3805C43.9667 11.2724 44.36 11.1052 44.7041 10.8791C45.0581 10.6529 45.3433 10.3629 45.5596 10.0089C45.7857 9.65491 45.8988 9.23211 45.8988 8.74048Z" fill="black"/>
<path d="M67.5061 1.2185C67.4471 2.14277 67.393 3.0572 67.3438 3.96181C67.2947 4.86641 67.2307 5.78085 67.1521 6.70512L60.8985 7.02959V8.88797H66.3261L66.0312 13.4601L60.869 13.6076L60.8985 22.339L53.4355 22.4865L53.9075 1.2185H67.5061Z" fill="black"/>
<path d="M91.3256 17.2359C91.3256 18.052 91.1732 18.755 90.8684 19.345C90.5734 19.9349 90.1752 20.4364 89.6738 20.8494C89.1723 21.2624 88.5922 21.6016 87.9334 21.8671C87.2844 22.1227 86.606 22.3243 85.898 22.4718C85.1901 22.6193 84.4772 22.7176 83.7594 22.7668C83.0515 22.8159 82.3878 22.8405 81.7683 22.8405C81.1587 22.8405 80.5245 22.8159 79.8657 22.7668C79.2167 22.7274 78.5678 22.6537 77.9188 22.5455C77.2699 22.4374 76.6308 22.2948 76.0015 22.1178C75.3722 21.931 74.7773 21.6999 74.2168 21.4246L74.1873 2.42791C74.738 2.20176 75.323 2.00019 75.9425 1.82321C76.5619 1.63639 77.1912 1.48398 77.8303 1.36599C78.4793 1.23816 79.1233 1.14475 79.7625 1.08576C80.4016 1.01693 81.021 0.982515 81.6208 0.982515C82.3189 0.982515 83.022 1.02676 83.7299 1.11526C84.4477 1.20375 85.136 1.35124 85.7948 1.55773C86.4536 1.76421 87.0681 2.03461 87.6384 2.36892C88.2087 2.6934 88.7052 3.09653 89.1281 3.57833C89.5607 4.06013 89.895 4.6206 90.131 5.25972C90.3768 5.89884 90.4997 6.63629 90.4997 7.47206C90.4997 8.02269 90.4211 8.53891 90.2637 9.02071C90.1064 9.50251 89.8802 9.93514 89.5853 10.3186C89.2903 10.7021 88.9314 11.0315 88.5086 11.3068C88.0858 11.5723 87.6089 11.7689 87.0779 11.8968C87.7171 12.0639 88.2972 12.3097 88.8183 12.6342C89.3493 12.9587 89.7967 13.352 90.1605 13.8141C90.5341 14.2763 90.8193 14.7974 91.0159 15.3775C91.2224 15.9576 91.3256 16.5771 91.3256 17.2359ZM83.8332 8.82897C83.8332 8.54382 83.7742 8.30292 83.6562 8.10627C83.5382 7.89978 83.3907 7.73263 83.2137 7.6048C83.0466 7.47698 82.8597 7.38357 82.6533 7.32457C82.4566 7.26558 82.2796 7.23608 82.1223 7.23608C81.9256 7.23608 81.7339 7.26558 81.5471 7.32457C81.3603 7.38357 81.1784 7.4524 81.0014 7.53106L80.9129 10.8053C81.139 10.8053 81.4193 10.7857 81.7536 10.7463C82.0879 10.707 82.4074 10.6234 82.7122 10.4956C83.0269 10.3579 83.2924 10.1613 83.5087 9.90564C83.725 9.64016 83.8332 9.28127 83.8332 8.82897ZM81.7388 13.6371C81.4537 13.6371 81.1784 13.6666 80.9129 13.7256L80.8539 17.0884C81.0014 17.1179 81.1439 17.1474 81.2816 17.1769C81.4291 17.1966 81.5717 17.2064 81.7093 17.2064C81.9158 17.2064 82.142 17.1867 82.3878 17.1474C82.6336 17.0982 82.8647 17.0097 83.081 16.8819C83.2973 16.7443 83.4743 16.5623 83.6119 16.3362C83.7594 16.11 83.8332 15.8102 83.8332 15.4365C83.8332 15.0629 83.7594 14.7581 83.6119 14.5221C83.4743 14.2861 83.3022 14.1042 83.0957 13.9764C82.8892 13.8387 82.6631 13.7502 82.4173 13.7109C82.1714 13.6617 81.9453 13.6371 81.7388 13.6371Z" fill="black"/>
<path d="M110.721 21.2181L103.405 22.162L102.52 18.8288H99.1574L98.4199 22.162L90.8979 21.4246L96.768 1.77896L104.968 1.36599L110.721 21.2181ZM101.989 14.3156L100.868 9.18295L99.7768 14.3156H101.989Z" fill="black"/>
<path d="M131.089 1.33649L130.027 21.3361L122.298 22.0441L118.169 11.3363L117.52 22.2505H110.883L111.414 1.33649L118.788 0.982515L123.891 11.6018L124.127 1.57247L131.089 1.33649Z" fill="black"/>
<path d="M151 1.36599L143.891 11.1888L149.879 21.6311L143.036 22.8405L138.552 16.4689L138.316 23.1355L132.18 23.3715L132.652 0.77603L139.525 1.1595L138.994 7.82604L143.567 0.77603L151 1.36599Z" fill="black"/>
</svg>
