<svg width="64" height="64" viewBox="0 0 64 64" fill="none" xmlns="http://www.w3.org/2000/svg">
<path d="M32.001 6.08331C46.3146 6.08349 57.917 17.6866 57.917 32.0003C57.9168 46.3138 46.3145 57.9161 32.001 57.9163C17.6873 57.9163 6.08416 46.3139 6.08398 32.0003C6.08398 17.6865 17.6872 6.08331 32.001 6.08331ZM35.7568 44.4368C33.5691 44.6092 31.3725 44.6306 29.1826 44.5013L28.2441 44.4368L28.1387 44.4349C27.6178 44.4575 27.2247 44.9519 27.3506 45.4808C27.5951 46.508 27.8677 47.4661 28.1641 48.3499C28.8057 50.2795 29.5298 51.7393 30.25 52.7142L30.3936 52.9026C30.7694 53.3816 31.1095 53.6816 31.3965 53.8538L31.4082 53.8616L31.4209 53.8685L31.5459 53.9368C31.6059 53.9698 31.6702 53.9953 31.7363 54.013L31.7803 54.0247C31.9193 54.0617 32.0656 54.0625 32.2051 54.0276L32.2529 54.0159C32.3198 53.9992 32.3849 53.9747 32.4453 53.9427L32.5703 53.8763L32.6064 53.8568L32.6396 53.8343C33.013 53.5815 33.3395 53.2662 33.6074 52.9036L33.6084 52.9046C34.3751 51.9315 35.1524 50.4069 35.8369 48.348C36.133 47.4646 36.406 46.5073 36.6504 45.4808C36.7763 44.9518 36.3833 44.4573 35.8623 44.4349L35.7568 44.4368ZM13.2305 40.72C12.5601 40.5515 11.93 41.2527 12.2705 41.928C14.7604 46.8656 19.008 50.694 24.1777 52.6595C24.8873 52.9293 25.5471 52.2137 25.2637 51.5364C24.9927 50.8889 24.7467 50.2313 24.5264 49.5648H24.5254C24.0317 48.0586 23.6256 46.5253 23.3076 44.973L23.1768 44.3069L23.1436 44.1829C23.0458 43.9032 22.8072 43.6907 22.5107 43.6302C19.5683 43.0301 16.6908 42.1491 13.918 40.9993L13.3652 40.7659L13.2305 40.72ZM51.3447 40.6146C51.2173 40.5864 51.0923 40.5913 50.9775 40.6243L50.8838 40.6595L50.874 40.6634C50.869 40.6657 50.8634 40.6668 50.8584 40.6693C47.881 41.9673 44.7462 42.9653 41.4873 43.6302C41.1487 43.6994 40.8849 43.9669 40.8213 44.3069C40.4885 46.088 40.0382 47.8453 39.4727 49.5667C39.2478 50.2459 39.0028 50.9052 38.7383 51.5296C38.452 52.2055 39.1095 52.9272 39.8223 52.6566C45.0799 50.6588 49.3847 46.7344 51.8574 41.6761L51.8555 41.6751C52.0444 41.2817 51.8823 40.7461 51.3652 40.6194L51.3662 40.6185C51.3628 40.6176 51.3589 40.6173 51.3555 40.6165C51.3522 40.6157 51.349 40.6143 51.3457 40.6136L51.3447 40.6146ZM51.541 42.0023C51.5267 42.0101 51.5129 42.0188 51.498 42.0257C51.5131 42.0188 51.5268 42.0099 51.541 42.0023ZM51.624 41.9515C51.6195 41.9548 51.615 41.958 51.6104 41.9612C51.615 41.9581 51.6195 41.9548 51.624 41.9515ZM51.8018 41.7679C51.7964 41.7756 51.7917 41.7838 51.7861 41.7913C51.7917 41.7837 51.7965 41.7757 51.8018 41.7679ZM51.8545 41.6819C51.852 41.6869 51.8473 41.6907 51.8447 41.6956C51.8473 41.6907 51.8501 41.6859 51.8525 41.681L51.8545 41.6819ZM50.5254 40.9886C50.5331 40.9742 50.5421 40.9605 50.5508 40.9466C50.542 40.9604 50.5332 40.9742 50.5254 40.9886ZM50.583 40.8968C50.6009 40.8727 50.6215 40.8505 50.6426 40.8284C50.6216 40.8503 50.6012 40.8726 50.583 40.8968ZM50.6621 40.8079C50.6835 40.7872 50.707 40.7687 50.7314 40.7503C50.7075 40.7685 50.6837 40.787 50.6621 40.8079ZM37.0654 28.2571C33.9133 28.6638 30.7226 28.6918 27.5664 28.3362L26.9355 28.2601L26.8438 28.2523C26.4193 28.2433 26.0493 28.553 25.9863 28.9759L25.9775 29.0677C25.832 32.6251 25.9579 36.1885 26.3535 39.7269C26.3976 40.1209 26.708 40.4325 27.1025 40.4769C30.3575 40.842 33.6434 40.842 36.8984 40.4769C37.243 40.4382 37.5241 40.1958 37.6191 39.8724L37.6484 39.7288C37.9048 37.4837 38.0481 35.2272 38.0781 32.9681L38.084 31.9993C38.084 31.2524 38.0723 30.5164 38.0498 29.7894L38.0244 29.0648L38.0156 28.972C37.9522 28.5494 37.5814 28.2411 37.1572 28.2503L37.0654 28.2571ZM50.7568 40.7298C50.7749 40.7174 50.7948 40.7076 50.8145 40.6966C50.7952 40.7076 50.775 40.7171 50.7568 40.7298ZM12.5674 23.4476C12.1361 23.2621 11.6204 23.4628 11.4414 23.9173C10.1313 27.2457 9.65156 30.8437 10.0439 34.3997C10.0738 34.67 10.2315 34.9096 10.4668 35.0443C13.8688 36.9914 17.5203 38.4654 21.3203 39.4261C21.8906 39.5703 22.4267 39.1069 22.375 38.5267C22.0637 35.0422 22.0008 31.5396 22.1875 28.0462C22.2088 27.6467 21.9492 27.2869 21.5645 27.181C18.6469 26.3776 15.8336 25.2373 13.1807 23.7845L12.6523 23.4905L12.5674 23.4476ZM52.5127 23.8099C52.3445 23.3887 51.8411 23.2091 51.4434 23.4359V23.4368C48.7867 24.9554 45.961 26.1558 43.0254 27.014L42.4365 27.181C42.0519 27.287 41.7921 27.6468 41.8135 28.0462C41.9769 31.103 41.9495 34.1666 41.7314 37.2191L41.626 38.5267C41.5744 39.1068 42.1106 39.57 42.6807 39.4261C46.4798 38.4652 50.131 36.9912 53.5322 35.0443C53.7675 34.9095 53.9243 34.6699 53.9541 34.3997C54.3256 31.0299 53.9142 27.6226 52.7549 24.4427L52.5127 23.8099ZM31.8867 9.95441L31.8604 9.95831C31.8287 9.96307 31.7974 9.96957 31.7666 9.97784L31.6748 10.0081L31.5928 10.0403C31.5681 10.0501 31.5437 10.0613 31.5195 10.0735L31.4473 10.1146C31.0388 10.3755 30.6813 10.7082 30.3906 11.096C29.6237 12.0694 28.8478 13.5931 28.1611 15.6478C27.5218 17.561 26.9936 19.8364 26.6094 22.3714L26.4541 23.473C26.3935 23.9342 26.7158 24.3627 27.1816 24.4261C30.3794 24.8612 33.6215 24.8611 36.8193 24.4261C37.2853 24.3627 37.6084 23.9342 37.5479 23.473C37.1564 20.4904 36.5674 17.8343 35.8398 15.6487V15.6478L35.5781 14.9017C34.9594 13.2203 34.2821 11.945 33.6104 11.095H33.6094C33.3413 10.7344 33.0158 10.4205 32.6445 10.1673L32.6006 10.137L32.5537 10.1136L32.3867 10.0316C32.3517 10.0143 32.3153 9.99984 32.2783 9.98761L32.1641 9.95831L32.0254 9.94464L31.8867 9.95441ZM25.2617 12.4681C25.5459 11.7928 24.8893 11.0724 24.1768 11.3431C20.456 12.7568 17.1891 15.1461 14.7158 18.2542L14.2314 18.886C13.9292 19.2956 14.0525 19.8765 14.4941 20.1282C16.7287 21.4016 19.1173 22.438 21.624 23.2054C22.1281 23.3596 22.6422 23.0236 22.7139 22.5101C23.1353 19.4875 23.7528 16.7502 24.5254 14.4349C24.7528 13.7527 24.9984 13.0938 25.2617 12.4681ZM39.6914 11.304C39.0331 11.1624 38.4734 11.8354 38.7393 12.4681C39.0015 13.0921 39.2452 13.7501 39.4756 14.4339V14.4349C40.2483 16.7531 40.8657 19.4878 41.2871 22.5101C41.3587 23.0234 41.8735 23.3598 42.3779 23.2054C44.8604 22.4455 47.2512 21.4135 49.5068 20.1282C49.9485 19.8765 50.072 19.2957 49.7695 18.886C47.4037 15.683 44.2214 13.1816 40.5625 11.639L39.8242 11.3431L39.6914 11.304Z" fill="black" stroke="white" stroke-width="1.5"/>
</svg>
